  0
SECTION
  2
HEADER
  9
$ACADVER
  1
AC1024
  9
$ACADMAINTVER
 70
     6
  9
$DWGCODEPAGE
  3
ANSI_1254
  9
$LASTSAVEDBY
  1
DOZ 3
  9
$INSBASE
 10
0.0
 20
0.0
 30
0.0
  9
$EXTMIN
 10
648515.9027064844
 20
4145734.735099846
 30
3015.968017578125
  9
$EXTMAX
 10
648591.598
 20
4146101.266
 30
3060.069091796875
  9
$LIMMIN
 10
0.0
 20
0.0
  9
$LIMMAX
 10
420.0
 20
297.0
  9
$ORTHOMODE
 70
     0
  9
$REGENMODE
 70
     1
  9
$FILLMODE
 70
     1
  9
$QTEXTMODE
 70
     0
  9
$MIRRTEXT
 70
     1
  9
$LTSCALE
 40
1.0
  9
$ATTMODE
 70
     1
  9
$TEXTSIZE
 40
2.5
  9
$TRACEWID
 40
1.0
  9
$TEXTSTYLE
  7
Standard
  9
$CLAYER
  8
GEOFENCE
  9
$CELTYPE
  6
ByLayer
  9
$CECOLOR
 62
   256
  9
$CELTSCALE
 40
1.0
  9
$DISPSILH
 70
     0
  9
$DIMSCALE
 40
1.0
  9
$DIMASZ
 40
2.5
  9
$DIMEXO
 40
0.625
  9
$DIMDLI
 40
3.75
  9
$DIMRND
 40
0.0
  9
$DIMDLE
 40
0.0
  9
$DIMEXE
 40
1.25
  9
$DIMTP
 40
0.0
  9
$DIMTM
 40
0.0
  9
$DIMTXT
 40
2.5
  9
$DIMCEN
 40
2.5
  9
$DIMTSZ
 40
0.0
  9
$DIMTOL
 70
     0
  9
$DIMLIM
 70
     0
  9
$DIMTIH
 70
     0
  9
$DIMTOH
 70
     0
  9
$DIMSE1
 70
     0
  9
$DIMSE2
 70
     0
  9
$DIMTAD
 70
     1
  9
$DIMZIN
 70
     8
  9
$DIMBLK
  1

  9
$DIMASO
 70
     1
  9
$DIMSHO
 70
     1
  9
$DIMPOST
  1

  9
$DIMAPOST
  1

  9
$DIMALT
 70
     0
  9
$DIMALTD
 70
     3
  9
$DIMALTF
 40
0.03937007874016
  9
$DIMLFAC
 40
1.0
  9
$DIMTOFL
 70
     1
  9
$DIMTVP
 40
0.0
  9
$DIMTIX
 70
     0
  9
$DIMSOXD
 70
     0
  9
$DIMSAH
 70
     0
  9
$DIMBLK1
  1

  9
$DIMBLK2
  1

  9
$DIMSTYLE
  2
ISO-25
  9
$DIMCLRD
 70
     0
  9
$DIMCLRE
 70
     0
  9
$DIMCLRT
 70
     0
  9
$DIMTFAC
 40
1.0
  9
$DIMGAP
 40
0.625
  9
$DIMJUST
 70
     0
  9
$DIMSD1
 70
     0
  9
$DIMSD2
 70
     0
  9
$DIMTOLJ
 70
     0
  9
$DIMTZIN
 70
     8
  9
$DIMALTZ
 70
     0
  9
$DIMALTTZ
 70
     0
  9
$DIMUPT
 70
     0
  9
$DIMDEC
 70
     2
  9
$DIMTDEC
 70
     2
  9
$DIMALTU
 70
     2
  9
$DIMALTTD
 70
     3
  9
$DIMTXSTY
  7
Standard
  9
$DIMAUNIT
 70
     0
  9
$DIMADEC
 70
     0
  9
$DIMALTRND
 40
0.0
  9
$DIMAZIN
 70
     0
  9
$DIMDSEP
 70
    44
  9
$DIMATFIT
 70
     3
  9
$DIMFRAC
 70
     0
  9
$DIMLDRBLK
  1

  9
$DIMLUNIT
 70
     2
  9
$DIMLWD
 70
    -2
  9
$DIMLWE
 70
    -2
  9
$DIMTMOVE
 70
     0
  9
$DIMFXL
 40
1.0
  9
$DIMFXLON
 70
     0
  9
$DIMJOGANG
 40
0.7853981633974483
  9
$DIMTFILL
 70
     0
  9
$DIMTFILLCLR
 70
     0
  9
$DIMARCSYM
 70
     0
  9
$DIMLTYPE
  6

  9
$DIMLTEX1
  6

  9
$DIMLTEX2
  6

  9
$DIMTXTDIRECTION
 70
     0
  9
$LUNITS
 70
     2
  9
$LUPREC
 70
     4
  9
$SKETCHINC
 40
1.0
  9
$FILLETRAD
 40
10.0
  9
$AUNITS
 70
     0
  9
$AUPREC
 70
     0
  9
$MENU
  1
.
  9
$ELEVATION
 40
0.0
  9
$PELEVATION
 40
0.0
  9
$THICKNESS
 40
0.0
  9
$LIMCHECK
 70
     0
  9
$CHAMFERA
 40
10.0
  9
$CHAMFERB
 40
10.0
  9
$CHAMFERC
 40
20.0
  9
$CHAMFERD
 40
0.0
  9
$SKPOLY
 70
     0
  9
$TDCREATE
 40
2458388.692587199
  9
$TDUCREATE
 40
2458388.567587199
  9
$TDUPDATE
 40
2458388.986482315
  9
$TDUUPDATE
 40
2458388.861482315
  9
$TDINDWG
 40
0.0033652431
  9
$TDUSRTIMER
 40
0.010239213
  9
$USRTIMER
 70
     1
  9
$ANGBASE
 50
0.0
  9
$ANGDIR
 70
     0
  9
$PDMODE
 70
     0
  9
$PDSIZE
 40
0.0
  9
$PLINEWID
 40
0.0
  9
$SPLFRAME
 70
     0
  9
$SPLINETYPE
 70
     6
  9
$SPLINESEGS
 70
     8
  9
$HANDSEED
  5
4171
  9
$SURFTAB1
 70
     6
  9
$SURFTAB2
 70
     6
  9
$SURFTYPE
 70
     6
  9
$SURFU
 70
     6
  9
$SURFV
 70
     6
  9
$UCSBASE
  2

  9
$UCSNAME
  2

  9
$UCSORG
 10
0.0
 20
0.0
 30
0.0
  9
$UCSXDIR
 10
1.0
 20
0.0
 30
0.0
  9
$UCSYDIR
 10
0.0
 20
1.0
 30
0.0
  9
$UCSORTHOREF
  2

  9
$UCSORTHOVIEW
 70
     1
  9
$UCSORGTOP
 10
0.0
 20
0.0
 30
0.0
  9
$UCSORGBOTTOM
 10
0.0
 20
0.0
 30
0.0
  9
$UCSORGLEFT
 10
0.0
 20
0.0
 30
0.0
  9
$UCSORGRIGHT
 10
0.0
 20
0.0
 30
0.0
  9
$UCSORGFRONT
 10
0.0
 20
0.0
 30
0.0
  9
$UCSORGBACK
 10
0.0
 20
0.0
 30
0.0
  9
$PUCSBASE
  2

  9
$PUCSNAME
  2

  9
$PUCSORG
 10
0.0
 20
0.0
 30
0.0
  9
$PUCSXDIR
 10
1.0
 20
0.0
 30
0.0
  9
$PUCSYDIR
 10
0.0
 20
1.0
 30
0.0
  9
$PUCSORTHOREF
  2

  9
$PUCSORTHOVIEW
 70
     0
  9
$PUCSORGTOP
 10
0.0
 20
0.0
 30
0.0
  9
$PUCSORGBOTTOM
 10
0.0
 20
0.0
 30
0.0
  9
$PUCSORGLEFT
 10
0.0
 20
0.0
 30
0.0
  9
$PUCSORGRIGHT
 10
0.0
 20
0.0
 30
0.0
  9
$PUCSORGFRONT
 10
0.0
 20
0.0
 30
0.0
  9
$PUCSORGBACK
 10
0.0
 20
0.0
 30
0.0
  9
$USERI1
 70
     0
  9
$USERI2
 70
     0
  9
$USERI3
 70
     0
  9
$USERI4
 70
     0
  9
$USERI5
 70
     0
  9
$USERR1
 40
0.0
  9
$USERR2
 40
0.0
  9
$USERR3
 40
0.0
  9
$USERR4
 40
0.0
  9
$USERR5
 40
0.0
  9
$WORLDVIEW
 70
     1
  9
$SHADEDGE
 70
     3
  9
$SHADEDIF
 70
    70
  9
$TILEMODE
 70
     1
  9
$MAXACTVP
 70
    64
  9
$PINSBASE
 10
0.0
 20
0.0
 30
0.0
  9
$PLIMCHECK
 70
     0
  9
$PEXTMIN
 10
1.000000000000000E+20
 20
1.000000000000000E+20
 30
1.000000000000000E+20
  9
$PEXTMAX
 10
-1.000000000000000E+20
 20
-1.000000000000000E+20
 30
-1.000000000000000E+20
  9
$PLIMMIN
 10
0.0
 20
0.0
  9
$PLIMMAX
 10
0.0
 20
0.0
  9
$UNITMODE
 70
     0
  9
$VISRETAIN
 70
     1
  9
$PLINEGEN
 70
     0
  9
$PSLTSCALE
 70
     1
  9
$TREEDEPTH
 70
  3020
  9
$CMLSTYLE
  2
Standard
  9
$CMLJUST
 70
     0
  9
$CMLSCALE
 40
20.0
  9
$PROXYGRAPHICS
 70
     1
  9
$MEASUREMENT
 70
     1
  9
$CELWEIGHT
370
    -1
  9
$ENDCAPS
280
     0
  9
$JOINSTYLE
280
     0
  9
$LWDISPLAY
290
     0
  9
$INSUNITS
 70
     4
  9
$HYPERLINKBASE
  1

  9
$STYLESHEET
  1

  9
$XEDIT
290
     1
  9
$CEPSNTYPE
380
     0
  9
$PSTYLEMODE
290
     1
  9
$FINGERPRINTGUID
  2
{B7D35463-E05B-4D0F-8C5A-423DFDEFB8AF}
  9
$VERSIONGUID
  2
{FAEB1C32-E019-11D5-929B-00C0DF256EC4}
  9
$EXTNAMES
290
     1
  9
$PSVPSCALE
 40
0.0
  9
$OLESTARTUP
290
     0
  9
$SORTENTS
280
   127
  9
$INDEXCTL
280
     0
  9
$HIDETEXT
280
     1
  9
$XCLIPFRAME
280
     2
  9
$HALOGAP
280
     0
  9
$OBSCOLOR
 70
   257
  9
$OBSLTYPE
280
     0
  9
$INTERSECTIONDISPLAY
280
     0
  9
$INTERSECTIONCOLOR
 70
   257
  9
$DIMASSOC
280
     2
  9
$PROJECTNAME
  1

  9
$CAMERADISPLAY
290
     0
  9
$LENSLENGTH
 40
50.0
  9
$CAMERAHEIGHT
 40
0.0
  9
$STEPSPERSEC
 40
2.0
  9
$STEPSIZE
 40
6.0
  9
$3DDWFPREC
 40
2.0
  9
$PSOLWIDTH
 40
5.0
  9
$PSOLHEIGHT
 40
80.0
  9
$LOFTANG1
 40
1.570796326794897
  9
$LOFTANG2
 40
1.570796326794897
  9
$LOFTMAG1
 40
0.0
  9
$LOFTMAG2
 40
0.0
  9
$LOFTPARAM
 70
     7
  9
$LOFTNORMALS
280
     1
  9
$LATITUDE
 40
37.795
  9
$LONGITUDE
 40
-122.394
  9
$NORTHDIRECTION
 40
0.0
  9
$TIMEZONE
 70
 -8000
  9
$LIGHTGLYPHDISPLAY
280
     1
  9
$TILEMODELIGHTSYNCH
280
     1
  9
$SOLIDHIST
280
     1
  9
$SHOWHIST
280
     1
  9
$DWFFRAME
280
     2
  9
$DGNFRAME
280
     2
  9
$REALWORLDSCALE
290
     1
  9
$INTERFERECOLOR
 62
   256
  9
$CSHADOW
280
     0
  9
$SHADOWPLANELOCATION
 40
0.0
  0
ENDSEC
  0
SECTION
  2
CLASSES
  0
CLASS
  1
ACDBDICTIONARYWDFLT
  2
AcDbDictionaryWithDefault
  3
ObjectDBX Classes
 90
        0
 91
        4
280
     0
281
     0
  0
CLASS
  1
VISUALSTYLE
  2
AcDbVisualStyle
  3
ObjectDBX Classes
 90
     4095
 91
        4
280
     0
281
     0
  0
CLASS
  1
MATERIAL
  2
AcDbMaterial
  3
ObjectDBX Classes
 90
     1153
 91
        4
280
     0
281
     0
  0
CLASS
  1
SCALE
  2
AcDbScale
  3
ObjectDBX Classes
 90
     1153
 91
        4
280
     0
281
     0
  0
CLASS
  1
TABLESTYLE
  2
AcDbTableStyle
  3
ObjectDBX Classes
 90
     4095
 91
        4
280
     0
281
     0
  0
CLASS
  1
MLEADERSTYLE
  2
AcDbMLeaderStyle
  3
ACDB_MLEADERSTYLE_CLASS
 90
     4095
 91
        4
280
     0
281
     0
  0
CLASS
  1
SUN
  2
AcDbSun
  3
SCENEOE
 90
     1153
 91
        4
280
     0
281
     0
  0
CLASS
  1
DICTIONARYVAR
  2
AcDbDictionaryVar
  3
ObjectDBX Classes
 90
        0
 91
        4
280
     0
281
     0
  0
CLASS
  1
CELLSTYLEMAP
  2
AcDbCellStyleMap
  3
ObjectDBX Classes
 90
     1152
 91
        4
280
     0
281
     0
  0
ENDSEC
  0
SECTION
  2
TABLES
  0
TABLE
  2
VPORT
  5
8
330
0
100
AcDbSymbolTable
 70
     1
  0
VPORT
  5
29
330
8
100
AcDbSymbolTableRecord
100
AcDbViewportTableRecord
  2
*Active
 70
     0
 10
0.0
 20
0.0
 11
1.0
 21
1.0
 12
834985.9976669119
 22
439266.7479341547
 13
0.0
 23
0.0
 14
10.0
 24
10.0
 15
10.0
 25
10.0
 16
0.0
 26
0.0
 36
1.0
 17
-186417.0947833576
 27
3706575.186795887
 37
-4083283.463482847
 40
454.1117143230861
 41
2.309633027522936
 42
50.0
 43
0.0
 44
0.0
 50
0.0
 51
0.0
 71
    16
 72
   100
 73
     1
 74
     3
 75
     0
 76
     0
 77
     0
 78
     0
281
     0
 65
     1
110
0.0
120
0.0
130
0.0
111
1.0
121
0.0
131
0.0
112
0.0
122
1.0
132
0.0
 79
     1
146
0.0
348
2F
 60
     3
 61
     5
292
     1
282
     1
141
0.0
142
0.0
 63
   250
361
40EC
  0
ENDTAB
  0
TABLE
  2
LTYPE
  5
5
330
0
100
AcDbSymbolTable
 70
     1
  0
LTYPE
  5
14
330
5
100
AcDbSymbolTableRecord
100
AcDbLinetypeTableRecord
  2
ByBlock
 70
     0
  3

 72
    65
 73
     0
 40
0.0
  0
LTYPE
  5
15
330
5
100
AcDbSymbolTableRecord
100
AcDbLinetypeTableRecord
  2
ByLayer
 70
     0
  3
Solid line
 72
    65
 73
     0
 40
0.0
  0
LTYPE
  5
16
330
5
100
AcDbSymbolTableRecord
100
AcDbLinetypeTableRecord
  2
Continuous
 70
     0
  3
Solid line
 72
    65
 73
     0
 40
0.0
  0
ENDTAB
  0
TABLE
  2
LAYER
  5
2
102
{ACAD_XDICTIONARY
360
40ED
102
}
330
0
100
AcDbSymbolTable
 70
    42
  0
LAYER
  5
10
330
2
100
AcDbSymbolTableRecord
100
AcDbLayerTableRecord
  2
0
 70
     0
 62
     5
  6
Continuous
370
     0
390
F
347
3E
1001
AcCmTransparency
1071
 33554687
  0
LAYER
  5
40
330
2
100
AcDbSymbolTableRecord
100
AcDbLayerTableRecord
  2
georef
 70
     0
 62
     2
  6
Continuous
370
     0
390
F
347
3E
1001
AcCmTransparency
1071
 33554687
  0
LAYER
  5
44
330
2
100
AcDbSymbolTableRecord
100
AcDbLayerTableRecord
  2
GALERI
 70
     0
 62
     3
  6
Continuous
370
     0
390
F
347
3E
1001
AcCmTransparency
1071
 33554687
  0
LAYER
  5
47
330
2
100
AcDbSymbolTableRecord
100
AcDbLayerTableRecord
  2
GEOFENCE
 70
     0
 62
     1
  6
Continuous
370
     0
390
F
347
3E
1001
AcCmTransparency
1071
 33554687
  0
LAYER
  5
4C
330
2
100
AcDbSymbolTableRecord
100
AcDbLayerTableRecord
  2
OCAK_ADLARI
 70
     0
 62
   150
  6
Continuous
370
     0
390
F
347
3E
1001
AcCmTransparency
1071
 33554687
  0
LAYER
  5
54
330
2
100
AcDbSymbolTableRecord
100
AcDbLayerTableRecord
  2
GRID
 70
     0
 62
     1
  6
Continuous
370
     0
390
F
347
3E
1001
AcCmTransparency
1071
 33554687
  0
LAYER
  5
5A
330
2
100
AcDbSymbolTableRecord
100
AcDbLayerTableRecord
  2
INIT_COORD
 70
     4
 62
     6
  6
Continuous
370
     0
390
F
347
3E
1001
AcCmTransparency
1071
 33554687
  0
LAYER
  5
62
330
2
100
AcDbSymbolTableRecord
100
AcDbLayerTableRecord
  2
GALERI_3060
 70
     4
 62
     7
  6
Continuous
370
     0
390
F
347
3E
1001
AcCmTransparency
1071
 33554687
  0
LAYER
  5
64
330
2
100
AcDbSymbolTableRecord
100
AcDbLayerTableRecord
  2
FERE
 70
     0
 62
     4
  6
Continuous
370
     0
390
F
347
3E
1001
AcCmTransparency
1071
 33554687
  0
ENDTAB
  0
TABLE
  2
STYLE
  5
3
330
0
100
AcDbSymbolTable
 70
     1
  0
STYLE
  5
11
330
3
100
AcDbSymbolTableRecord
100
AcDbTextStyleTableRecord
  2
Standard
 70
     0
 40
0.0
 41
1.0
 50
0.0
 71
     0
 42
2.5
  3
C:\Windows\Font\TIMES.TTF
  4

  0
ENDTAB
  0
TABLE
  2
VIEW
  5
6
330
0
100
AcDbSymbolTable
 70
     0
  0
ENDTAB
  0
TABLE
  2
UCS
  5
7
330
0
100
AcDbSymbolTable
 70
     0
  0
ENDTAB
  0
TABLE
  2
APPID
  5
9
330
0
100
AcDbSymbolTable
 70
     2
  0
APPID
  5
12
330
9
100
AcDbSymbolTableRecord
100
AcDbRegAppTableRecord
  2
ACAD
 70
     0
  0
APPID
  5
416C
330
9
100
AcDbSymbolTableRecord
100
AcDbRegAppTableRecord
  2
AcCmTransparency
 70
     0
  0
ENDTAB
  0
TABLE
  2
DIMSTYLE
  5
A
330
0
100
AcDbSymbolTable
 70
     1
100
AcDbDimStyleTable
  0
DIMSTYLE
105
27
330
A
100
AcDbSymbolTableRecord
100
AcDbDimStyleTableRecord
  2
ISO-25
 70
     0
 41
2.5
 42
0.625
 43
3.75
 44
1.25
 73
     0
 74
     0
 77
     1
 78
     8
140
2.5
141
2.5
143
0.03937007874016
147
0.625
171
     3
172
     1
178
     0
271
     2
272
     2
274
     3
278
    44
283
     0
284
     8
340
11
  0
ENDTAB
  0
TABLE
  2
BLOCK_RECORD
  5
1
330
0
100
AcDbSymbolTable
 70
     8
  0
BLOCK_RECORD
  5
1F
330
1
100
AcDbSymbolTableRecord
100
AcDbBlockTableRecord
  2
*Model_Space
340
22
 70
     0
280
     1
281
     0
  0
BLOCK_RECORD
  5
1B
330
1
100
AcDbSymbolTableRecord
100
AcDbBlockTableRecord
  2
*Paper_Space
340
1E
 70
     0
280
     1
281
     0
  0
BLOCK_RECORD
  5
23
330
1
100
AcDbSymbolTableRecord
100
AcDbBlockTableRecord
  2
*Paper_Space0
340
26
 70
     0
280
     1
281
     0
  0
BLOCK_RECORD
  5
203
330
1
100
AcDbSymbolTableRecord
100
AcDbBlockTableRecord
  2
70
340
0
102
{BLKREFS
331
0
331
0
331
0
331
0
331
0
331
0
331
0
331
0
331
0
331
0
331
0
102
}
 70
     0
280
     1
281
     0
  0
BLOCK_RECORD
  5
8CF
330
1
100
AcDbSymbolTableRecord
100
AcDbBlockTableRecord
  2
60
340
0
102
{BLKREFS
331
0
102
}
 70
     0
280
     1
281
     0
  0
BLOCK_RECORD
  5
903
330
1
100
AcDbSymbolTableRecord
100
AcDbBlockTableRecord
  2
15
340
0
102
{BLKREFS
331
0
331
0
102
}
 70
     0
280
     1
281
     0
  0
BLOCK_RECORD
  5
FBF
330
1
100
AcDbSymbolTableRecord
100
AcDbBlockTableRecord
  2
240
340
0
102
{BLKREFS
331
0
331
0
331
0
331
0
331
0
331
0
331
0
331
0
331
0
331
0
331
0
331
0
331
0
331
0
331
0
331
0
331
0
331
0
331
0
331
0
331
0
331
0
331
0
331
0
331
0
331
0
331
0
331
0
331
0
331
0
331
0
331
0
331
0
331
0
331
0
331
0
331
0
331
0
331
0
331
0
331
0
331
0
331
0
331
0
331
0
331
0
331
0
331
0
331
0
331
0
331
0
331
0
331
0
331
0
331
0
331
0
331
0
331
0
331
0
331
0
331
0
331
0
331
0
331
0
331
0
331
0
331
0
331
0
331
0
331
0
331
0
331
0
331
0
331
0
331
0
331
0
331
0
331
0
331
0
331
0
331
0
331
0
331
0
331
0
331
0
331
0
331
0
331
0
331
0
331
0
331
0
331
0
331
0
331
0
331
0
331
0
331
0
331
0
331
0
102
}
 70
     0
280
     1
281
     0
  0
BLOCK_RECORD
  5
1040
330
1
100
AcDbSymbolTableRecord
100
AcDbBlockTableRecord
  2
1
340
0
102
{BLKREFS
331
0
102
}
 70
     0
280
     1
281
     0
  0
BLOCK_RECORD
  5
142C
330
1
100
AcDbSymbolTableRecord
100
AcDbBlockTableRecord
  2
25
340
0
102
{BLKREFS
331
0
331
0
331
0
331
0
102
}
 70
     0
280
     1
281
     0
  0
BLOCK_RECORD
  5
3EA6
330
1
100
AcDbSymbolTableRecord
100
AcDbBlockTableRecord
  2
2
340
0
102
{BLKREFS
331
0
331
0
331
0
331
0
102
}
 70
     0
280
     1
281
     0
  0
ENDTAB
  0
ENDSEC
  0
SECTION
  2
BLOCKS
  0
BLOCK
  5
20
330
1F
100
AcDbEntity
  8
0
100
AcDbBlockBegin
  2
*Model_Space
 70
     0
 10
0.0
 20
0.0
 30
0.0
  3
*Model_Space
  1

  0
ENDBLK
  5
21
330
1F
100
AcDbEntity
  8
0
100
AcDbBlockEnd
  0
BLOCK
  5
1C
330
1B
100
AcDbEntity
 67
     1
  8
0
100
AcDbBlockBegin
  2
*Paper_Space
 70
     0
 10
0.0
 20
0.0
 30
0.0
  3
*Paper_Space
  1

  0
ENDBLK
  5
1D
330
1B
100
AcDbEntity
 67
     1
  8
0
100
AcDbBlockEnd
  0
BLOCK
  5
24
330
23
100
AcDbEntity
  8
0
100
AcDbBlockBegin
  2
*Paper_Space0
 70
     0
 10
0.0
 20
0.0
 30
0.0
  3
*Paper_Space0
  1

  0
ENDBLK
  5
25
330
23
100
AcDbEntity
  8
0
100
AcDbBlockEnd
  0
BLOCK
  5
204
330
203
100
AcDbEntity
  8
0
100
AcDbBlockBegin
  2
70
 70
     0
 10
0.0
 20
0.0
 30
0.0
  3
70
  1

  0
CIRCLE
  5
206
330
203
100
AcDbEntity
  8
georef
 62
     1
370
     0
100
AcDbCircle
 10
0.0
 20
0.0
 30
2896.8330078125
 40
1.200000047683715
  0
ENDBLK
  5
205
330
203
100
AcDbEntity
  8
0
100
AcDbBlockEnd
  0
BLOCK
  5
8D0
330
8CF
100
AcDbEntity
  8
0
100
AcDbBlockBegin
  2
60
 70
     0
 10
0.0
 20
0.0
 30
0.0
  3
60
  1

  0
LINE
  5
8D2
330
8CF
100
AcDbEntity
  8
GALERI
 62
     1
370
     0
100
AcDbLine
 10
2.5
 20
3.5
 30
2896.8330078125
 11
-2.5
 21
-3.5
 31
2896.8330078125
  0
LINE
  5
8D3
330
8CF
100
AcDbEntity
  8
GALERI
 62
     1
370
     0
100
AcDbLine
 10
-2.5
 20
3.5
 30
2896.8330078125
 11
2.5
 21
-3.5
 31
2896.8330078125
  0
LINE
  5
8D4
330
8CF
100
AcDbEntity
  8
GALERI
 62
     1
370
     0
100
AcDbLine
 10
2.5
 20
-3.5
 30
2896.8330078125
 11
3.0
 21
-4.25
 31
2896.8330078125
  0
LINE
  5
8D5
330
8CF
100
AcDbEntity
  8
GALERI
 62
     1
370
     0
100
AcDbLine
 10
3.0
 20
-4.25
 30
2896.8330078125
 11
3.25
 21
-4.25
 31
2896.8330078125
  0
LINE
  5
8D6
330
8CF
100
AcDbEntity
  8
GALERI
 62
     1
370
     0
100
AcDbLine
 10
3.25
 20
-4.25
 30
2896.8330078125
 11
3.5
 21
-4.0
 31
2896.8330078125
  0
LINE
  5
8D7
330
8CF
100
AcDbEntity
  8
GALERI
 62
     1
370
     0
100
AcDbLine
 10
3.5
 20
-4.0
 30
2896.8330078125
 11
4.0
 21
-3.75
 31
2896.8330078125
  0
LINE
  5
8D8
330
8CF
100
AcDbEntity
  8
GALERI
 62
     1
370
     0
100
AcDbLine
 10
4.0
 20
-3.75
 30
2896.8330078125
 11
4.25
 21
-3.5
 31
2896.8330078125
  0
LINE
  5
8D9
330
8CF
100
AcDbEntity
  8
GALERI
 62
     1
370
     0
100
AcDbLine
 10
4.25
 20
-3.5
 30
2896.8330078125
 11
4.0
 21
-2.75
 31
2896.8330078125
  0
LINE
  5
8DA
330
8CF
100
AcDbEntity
  8
GALERI
 62
     1
370
     0
100
AcDbLine
 10
4.0
 20
-2.75
 30
2896.8330078125
 11
3.75
 21
-2.75
 31
2896.8330078125
  0
LINE
  5
8DB
330
8CF
100
AcDbEntity
  8
GALERI
 62
     1
370
     0
100
AcDbLine
 10
3.75
 20
-2.75
 30
2896.8330078125
 11
3.25
 21
-3.0
 31
2896.8330078125
  0
LINE
  5
8DC
330
8CF
100
AcDbEntity
  8
GALERI
 62
     1
370
     0
100
AcDbLine
 10
3.25
 20
-3.0
 30
2896.8330078125
 11
3.0
 21
-3.25
 31
2896.8330078125
  0
LINE
  5
8DD
330
8CF
100
AcDbEntity
  8
GALERI
 62
     1
370
     0
100
AcDbLine
 10
3.0
 20
-3.25
 30
2896.8330078125
 11
2.75
 21
-3.25
 31
2896.8330078125
  0
LINE
  5
8DE
330
8CF
100
AcDbEntity
  8
GALERI
 62
     1
370
     0
100
AcDbLine
 10
2.75
 20
-3.25
 30
2896.8330078125
 11
2.5
 21
-3.5
 31
2896.8330078125
  0
LINE
  5
8DF
330
8CF
100
AcDbEntity
  8
GALERI
 62
     1
370
     0
100
AcDbLine
 10
-2.5
 20
-3.5
 30
2896.8330078125
 11
-3.0
 21
-4.25
 31
2896.8330078125
  0
LINE
  5
8E0
330
8CF
100
AcDbEntity
  8
GALERI
 62
     1
370
     0
100
AcDbLine
 10
-3.0
 20
-4.25
 30
2896.8330078125
 11
-3.25
 21
-4.25
 31
2896.8330078125
  0
LINE
  5
8E1
330
8CF
100
AcDbEntity
  8
GALERI
 62
     1
370
     0
100
AcDbLine
 10
-3.25
 20
-4.25
 30
2896.8330078125
 11
-3.5
 21
-4.0
 31
2896.8330078125
  0
LINE
  5
8E2
330
8CF
100
AcDbEntity
  8
GALERI
 62
     1
370
     0
100
AcDbLine
 10
-3.5
 20
-4.0
 30
2896.8330078125
 11
-4.0
 21
-3.75
 31
2896.8330078125
  0
LINE
  5
8E3
330
8CF
100
AcDbEntity
  8
GALERI
 62
     1
370
     0
100
AcDbLine
 10
-4.0
 20
-3.75
 30
2896.8330078125
 11
-4.25
 21
-3.5
 31
2896.8330078125
  0
LINE
  5
8E4
330
8CF
100
AcDbEntity
  8
GALERI
 62
     1
370
     0
100
AcDbLine
 10
-4.0
 20
-2.75
 30
2896.8330078125
 11
-3.75
 21
-2.75
 31
2896.8330078125
  0
LINE
  5
8E5
330
8CF
100
AcDbEntity
  8
GALERI
 62
     1
370
     0
100
AcDbLine
 10
-3.75
 20
-2.75
 30
2896.8330078125
 11
-3.25
 21
-3.0
 31
2896.8330078125
  0
LINE
  5
8E6
330
8CF
100
AcDbEntity
  8
GALERI
 62
     1
370
     0
100
AcDbLine
 10
-3.25
 20
-3.0
 30
2896.8330078125
 11
-3.0
 21
-3.25
 31
2896.8330078125
  0
LINE
  5
8E7
330
8CF
100
AcDbEntity
  8
GALERI
 62
     1
370
     0
100
AcDbLine
 10
-3.0
 20
-3.25
 30
2896.8330078125
 11
-2.75
 21
-3.25
 31
2896.8330078125
  0
LINE
  5
8E8
330
8CF
100
AcDbEntity
  8
GALERI
 62
     1
370
     0
100
AcDbLine
 10
-2.75
 20
-3.25
 30
2896.8330078125
 11
-2.5
 21
-3.5
 31
2896.8330078125
  0
LINE
  5
8E9
330
8CF
100
AcDbEntity
  8
GALERI
 62
     1
370
     0
100
AcDbLine
 10
2.75
 20
-3.25
 30
2896.8330078125
 11
2.75
 21
-4.0
 31
2896.8330078125
  0
LINE
  5
8EA
330
8CF
100
AcDbEntity
  8
GALERI
 62
     1
370
     0
100
AcDbLine
 10
3.0
 20
-3.25
 30
2896.8330078125
 11
3.0
 21
-4.25
 31
2896.8330078125
  0
LINE
  5
8EB
330
8CF
100
AcDbEntity
  8
GALERI
 62
     1
370
     0
100
AcDbLine
 10
3.25
 20
-4.25
 30
2896.8330078125
 11
3.25
 21
-3.0
 31
2896.8330078125
  0
LINE
  5
8EC
330
8CF
100
AcDbEntity
  8
GALERI
 62
     1
370
     0
100
AcDbLine
 10
3.5
 20
-4.0
 30
2896.8330078125
 11
3.5
 21
-3.0
 31
2896.8330078125
  0
LINE
  5
8ED
330
8CF
100
AcDbEntity
  8
GALERI
 62
     1
370
     0
100
AcDbLine
 10
3.75
 20
-2.75
 30
2896.8330078125
 11
3.75
 21
-3.75
 31
2896.8330078125
  0
LINE
  5
8EE
330
8CF
100
AcDbEntity
  8
GALERI
 62
     1
370
     0
100
AcDbLine
 10
4.0
 20
-3.75
 30
2896.8330078125
 11
4.0
 21
-2.75
 31
2896.8330078125
  0
LINE
  5
8EF
330
8CF
100
AcDbEntity
  8
GALERI
 62
     1
370
     0
100
AcDbLine
 10
3.0
 20
-4.0
 30
2896.8330078125
 11
3.5
 21
-4.0
 31
2896.8330078125
  0
LINE
  5
8F0
330
8CF
100
AcDbEntity
  8
GALERI
 62
     1
370
     0
100
AcDbLine
 10
2.75
 20
-4.0
 30
2896.8330078125
 11
3.0
 21
-4.0
 31
2896.8330078125
  0
LINE
  5
8F1
330
8CF
100
AcDbEntity
  8
GALERI
 62
     1
370
     0
100
AcDbLine
 10
2.75
 20
-3.75
 30
2896.8330078125
 11
4.0
 21
-3.75
 31
2896.8330078125
  0
LINE
  5
8F2
330
8CF
100
AcDbEntity
  8
GALERI
 62
     1
370
     0
100
AcDbLine
 10
4.25
 20
-3.5
 30
2896.8330078125
 11
2.5
 21
-3.5
 31
2896.8330078125
  0
LINE
  5
8F3
330
8CF
100
AcDbEntity
  8
GALERI
 62
     1
370
     0
100
AcDbLine
 10
3.0
 20
-3.25
 30
2896.8330078125
 11
4.0
 21
-3.25
 31
2896.8330078125
  0
LINE
  5
8F4
330
8CF
100
AcDbEntity
  8
GALERI
 62
     1
370
     0
100
AcDbLine
 10
3.25
 20
-3.0
 30
2896.8330078125
 11
4.0
 21
-3.0
 31
2896.8330078125
  0
LINE
  5
8F5
330
8CF
100
AcDbEntity
  8
GALERI
 62
     1
370
     0
100
AcDbLine
 10
-2.5
 20
-3.5
 30
2896.8330078125
 11
-4.25
 21
-3.5
 31
2896.8330078125
  0
LINE
  5
8F6
330
8CF
100
AcDbEntity
  8
GALERI
 62
     1
370
     0
100
AcDbLine
 10
-3.25
 20
-3.0
 30
2896.8330078125
 11
-4.0
 21
-3.0
 31
2896.8330078125
  0
LINE
  5
8F7
330
8CF
100
AcDbEntity
  8
GALERI
 62
     1
370
     0
100
AcDbLine
 10
-2.75
 20
-3.75
 30
2896.8330078125
 11
-4.0
 21
-3.75
 31
2896.8330078125
  0
LINE
  5
8F8
330
8CF
100
AcDbEntity
  8
GALERI
 62
     1
370
     0
100
AcDbLine
 10
-3.0
 20
-4.0
 30
2896.8330078125
 11
-3.5
 21
-4.0
 31
2896.8330078125
  0
LINE
  5
8F9
330
8CF
100
AcDbEntity
  8
GALERI
 62
     1
370
     0
100
AcDbLine
 10
-2.75
 20
-4.0
 30
2896.8330078125
 11
-2.75
 21
-3.25
 31
2896.8330078125
  0
LINE
  5
8FA
330
8CF
100
AcDbEntity
  8
GALERI
 62
     1
370
     0
100
AcDbLine
 10
-2.75
 20
-4.0
 30
2896.8330078125
 11
-3.25
 21
-4.0
 31
2896.8330078125
  0
LINE
  5
8FB
330
8CF
100
AcDbEntity
  8
GALERI
 62
     1
370
     0
100
AcDbLine
 10
-3.0
 20
-4.25
 30
2896.8330078125
 11
-3.0
 21
-3.25
 31
2896.8330078125
  0
LINE
  5
8FC
330
8CF
100
AcDbEntity
  8
GALERI
 62
     1
370
     0
100
AcDbLine
 10
-3.25
 20
-4.25
 30
2896.8330078125
 11
-3.25
 21
-3.0
 31
2896.8330078125
  0
LINE
  5
8FD
330
8CF
100
AcDbEntity
  8
GALERI
 62
     1
370
     0
100
AcDbLine
 10
-3.5
 20
-4.0
 30
2896.8330078125
 11
-3.5
 21
-3.0
 31
2896.8330078125
  0
LINE
  5
8FE
330
8CF
100
AcDbEntity
  8
GALERI
 62
     1
370
     0
100
AcDbLine
 10
-3.75
 20
-3.75
 30
2896.8330078125
 11
-3.75
 21
-2.75
 31
2896.8330078125
  0
LINE
  5
8FF
330
8CF
100
AcDbEntity
  8
GALERI
 62
     1
370
     0
100
AcDbLine
 10
-4.0
 20
-2.75
 30
2896.8330078125
 11
-4.0
 21
-3.75
 31
2896.8330078125
  0
LINE
  5
900
330
8CF
100
AcDbEntity
  8
GALERI
 62
     1
370
     0
100
AcDbLine
 10
-4.25
 20
-3.5
 30
2896.8330078125
 11
-4.0
 21
-2.75
 31
2896.8330078125
  0
LINE
  5
901
330
8CF
100
AcDbEntity
  8
GALERI
 62
     1
370
     0
100
AcDbLine
 10
-4.0
 20
-3.25
 30
2896.8330078125
 11
-3.0
 21
-3.25
 31
2896.8330078125
  0
ENDBLK
  5
8D1
330
8CF
100
AcDbEntity
  8
0
100
AcDbBlockEnd
  0
BLOCK
  5
904
330
903
100
AcDbEntity
  8
0
100
AcDbBlockBegin
  2
15
 70
     0
 10
0.0
 20
0.0
 30
0.0
  3
15
  1

  0
CIRCLE
  5
906
330
903
100
AcDbEntity
  8
GEOFENCE
 62
     1
370
     0
100
AcDbCircle
 10
0.0
 20
0.0
 30
2896.8330078125
 40
1.5
  0
LINE
  5
907
330
903
100
AcDbEntity
  8
GEOFENCE
 62
     1
370
     0
100
AcDbLine
 10
-1.5
 20
0.0
 30
2896.8330078125
 11
1.5
 21
0.0
 31
2896.8330078125
  0
LINE
  5
908
330
903
100
AcDbEntity
  8
GEOFENCE
 62
     1
370
     0
100
AcDbLine
 10
0.0
 20
1.5
 30
2896.8330078125
 11
0.0
 21
-1.5
 31
2896.8330078125
  0
ENDBLK
  5
905
330
903
100
AcDbEntity
  8
0
100
AcDbBlockEnd
  0
BLOCK
  5
FC0
330
FBF
100
AcDbEntity
  8
0
100
AcDbBlockBegin
  2
240
 70
     0
 10
0.0
 20
0.0
 30
0.0
  3
240
  1

  0
LINE
  5
FC2
330
FBF
100
AcDbEntity
  8
GRID
370
     0
100
AcDbLine
 10
-2.5
 20
0.0
 30
0.0
 11
-0.625
 21
0.0
 31
0.0
  0
LINE
  5
FC3
330
FBF
100
AcDbEntity
  8
GRID
370
     0
100
AcDbLine
 10
0.625
 20
0.0
 30
0.0
 11
2.5
 21
0.0
 31
0.0
  0
LINE
  5
FC4
330
FBF
100
AcDbEntity
  8
GRID
370
     0
100
AcDbLine
 10
0.0
 20
2.5
 30
0.0
 11
0.0
 21
0.625
 31
0.0
  0
LINE
  5
FC5
330
FBF
100
AcDbEntity
  8
GRID
370
     0
100
AcDbLine
 10
0.0
 20
-0.625
 30
0.0
 11
0.0
 21
-2.5
 31
0.0
  0
POINT
  5
FC6
330
FBF
100
AcDbEntity
  8
GRID
370
     0
100
AcDbPoint
 10
0.0
 20
0.0
 30
0.0
  0
ENDBLK
  5
FC1
330
FBF
100
AcDbEntity
  8
0
100
AcDbBlockEnd
  0
BLOCK
  5
1041
330
1040
100
AcDbEntity
  8
0
100
AcDbBlockBegin
  2
1
 70
     0
 10
0.0
 20
0.0
 30
0.0
  3
1
  1

  0
LINE
  5
1043
330
1040
100
AcDbEntity
  8
OCAK_ADLARI
370
     0
100
AcDbLine
 10
0.0
 20
-36.92307662963867
 30
0.0
 11
0.0
 21
36.92307662963867
 31
0.0
  0
LINE
  5
1044
330
1040
100
AcDbEntity
  8
OCAK_ADLARI
370
     0
100
AcDbLine
 10
0.0
 20
32.30769205093384
 30
0.0
 11
4.615384578704834
 21
9.230769157409668
 31
0.0
  0
LINE
  5
1045
330
1040
100
AcDbEntity
  8
OCAK_ADLARI
370
     0
100
AcDbLine
 10
4.615384578704834
 20
9.230769157409668
 30
0.0
 11
0.0
 21
13.8461537361145
 31
0.0
  0
LINE
  5
1046
330
1040
100
AcDbEntity
  8
OCAK_ADLARI
370
     0
100
AcDbLine
 10
0.0
 20
13.8461537361145
 30
0.0
 11
-4.615384578704834
 21
9.230769157409668
 31
0.0
  0
LINE
  5
1047
330
1040
100
AcDbEntity
  8
OCAK_ADLARI
370
     0
100
AcDbLine
 10
-4.615384578704834
 20
9.230769157409668
 30
0.0
 11
0.0
 21
32.30769205093384
 31
0.0
  0
ENDBLK
  5
1042
330
1040
100
AcDbEntity
  8
0
100
AcDbBlockEnd
  0
BLOCK
  5
142D
330
142C
100
AcDbEntity
  8
0
100
AcDbBlockBegin
  2
25
 70
     0
 10
0.0
 20
0.0
 30
0.0
  3
25
  1

  0
LINE
  5
142F
330
142C
100
AcDbEntity
  8
INIT_COORD
370
     0
100
AcDbLine
 10
-0.7272727489471436
 20
2.727272808551788
 30
0.0
 11
-0.1818181872367859
 21
2.909090995788574
 31
0.0
  0
LINE
  5
1430
330
142C
100
AcDbEntity
  8
INIT_COORD
370
     0
100
AcDbLine
 10
-0.1818181872367859
 20
2.909090995788574
 30
0.0
 11
0.1818181872367859
 21
2.909090995788574
 31
0.0
  0
LINE
  5
1431
330
142C
100
AcDbEntity
  8
INIT_COORD
370
     0
100
AcDbLine
 10
0.1818181872367859
 20
2.909090995788574
 30
0.0
 11
0.7272727489471436
 21
2.727272808551788
 31
0.0
  0
LINE
  5
1432
330
142C
100
AcDbEntity
  8
INIT_COORD
370
     0
100
AcDbLine
 10
-1.272727310657501
 20
2.000000059604645
 30
0.0
 11
-1.090909123420715
 21
2.363636434078217
 31
0.0
  0
LINE
  5
1433
330
142C
100
AcDbEntity
  8
INIT_COORD
370
     0
100
AcDbLine
 10
-1.090909123420715
 20
2.363636434078217
 30
0.0
 11
-0.7272727489471436
 21
2.727272808551788
 31
0.0
  0
LINE
  5
1434
330
142C
100
AcDbEntity
  8
INIT_COORD
370
     0
100
AcDbLine
 10
0.7272727489471436
 20
2.727272808551788
 30
0.0
 11
1.090909123420715
 21
2.363636434078217
 31
0.0
  0
LINE
  5
1435
330
142C
100
AcDbEntity
  8
INIT_COORD
370
     0
100
AcDbLine
 10
1.090909123420715
 20
2.363636434078217
 30
0.0
 11
1.272727310657501
 21
2.000000059604645
 31
0.0
  0
LINE
  5
1436
330
142C
100
AcDbEntity
  8
INIT_COORD
370
     0
100
AcDbLine
 10
1.272727310657501
 20
2.000000059604645
 30
0.0
 11
1.454545497894287
 21
1.090909123420715
 31
0.0
  0
LINE
  5
1437
330
142C
100
AcDbEntity
  8
INIT_COORD
370
     0
100
AcDbLine
 10
1.454545497894287
 20
1.090909123420715
 30
0.0
 11
1.454545497894287
 21
0.0
 31
0.0
  0
LINE
  5
1438
330
142C
100
AcDbEntity
  8
INIT_COORD
370
     0
100
AcDbLine
 10
1.454545497894287
 20
0.0
 30
0.0
 11
1.636363685131073
 21
0.0
 31
0.0
  0
LINE
  5
1439
330
142C
100
AcDbEntity
  8
INIT_COORD
370
     0
100
AcDbLine
 10
1.636363685131073
 20
0.0
 30
0.0
 11
1.272727310657501
 21
0.0
 31
0.0
  0
LINE
  5
143A
330
142C
100
AcDbEntity
  8
INIT_COORD
370
     0
100
AcDbLine
 10
-1.272727310657501
 20
2.000000059604645
 30
0.0
 11
-1.454545497894287
 21
1.090909123420715
 31
0.0
  0
LINE
  5
143B
330
142C
100
AcDbEntity
  8
INIT_COORD
370
     0
100
AcDbLine
 10
-1.454545497894287
 20
1.090909123420715
 30
0.0
 11
-1.454545497894287
 21
0.0
 31
0.0
  0
LINE
  5
143C
330
142C
100
AcDbEntity
  8
INIT_COORD
370
     0
100
AcDbLine
 10
-1.454545497894287
 20
0.0
 30
0.0
 11
-1.636363685131073
 21
0.0
 31
0.0
  0
LINE
  5
143D
330
142C
100
AcDbEntity
  8
INIT_COORD
370
     0
100
AcDbLine
 10
-1.636363685131073
 20
0.0
 30
0.0
 11
-1.272727310657501
 21
0.0
 31
0.0
  0
ENDBLK
  5
142E
330
142C
100
AcDbEntity
  8
0
100
AcDbBlockEnd
  0
BLOCK
  5
3EA7
330
3EA6
100
AcDbEntity
  8
0
100
AcDbBlockBegin
  2
2
 70
     0
 10
0.0
 20
0.0
 30
0.0
  3
2
  1

  0
LINE
  5
3EA9
330
3EA6
100
AcDbEntity
  8
FERE
370
     0
100
AcDbLine
 10
-2.0
 20
2.0
 30
0.0
 11
2.0
 21
2.0
 31
0.0
  0
LINE
  5
3EAA
330
3EA6
100
AcDbEntity
  8
FERE
370
     0
100
AcDbLine
 10
2.0
 20
2.0
 30
0.0
 11
2.0
 21
-2.0
 31
0.0
  0
LINE
  5
3EAB
330
3EA6
100
AcDbEntity
  8
FERE
370
     0
100
AcDbLine
 10
2.0
 20
-2.0
 30
0.0
 11
-2.0
 21
-2.0
 31
0.0
  0
LINE
  5
3EAC
330
3EA6
100
AcDbEntity
  8
FERE
370
     0
100
AcDbLine
 10
-2.0
 20
-2.0
 30
0.0
 11
-2.0
 21
2.0
 31
0.0
  0
LINE
  5
3EAD
330
3EA6
100
AcDbEntity
  8
FERE
370
     0
100
AcDbLine
 10
-2.0
 20
2.0
 30
0.0
 11
2.0
 21
-2.0
 31
0.0
  0
LINE
  5
3EAE
330
3EA6
100
AcDbEntity
  8
FERE
370
     0
100
AcDbLine
 10
2.0
 20
2.0
 30
0.0
 11
-2.0
 21
-2.0
 31
0.0
  0
ENDBLK
  5
3EA8
330
3EA6
100
AcDbEntity
  8
0
100
AcDbBlockEnd
  0
ENDSEC
  0
SECTION
  2
ENTITIES
  0
LINE
  5
3E0B
330
1F
100
AcDbEntity
  8
GALERI_3060
370
     0
100
AcDbLine
 10
648518.844
 20
4145748.893
 30
3059.694091796875
 11
648523.991
 21
4145760.104
 31
3059.452880859375
  0
LINE
  5
3E0C
330
1F
100
AcDbEntity
  8
GALERI_3060
370
     0
100
AcDbLine
 10
648522.523
 20
4145747.986
 30
3060.069091796875
 11
648526.289
 21
4145757.299
 31
3059.64501953125
  0
LINE
  5
3E0D
330
1F
100
AcDbEntity
  8
GALERI_3060
370
     0
100
AcDbLine
 10
648526.289
 20
4145757.299
 30
3059.64501953125
 11
648527.72
 21
4145759.456
 31
3059.29296875
  0
LINE
  5
3E0E
330
1F
100
AcDbEntity
  8
GALERI_3060
370
     0
100
AcDbLine
 10
648527.72
 20
4145759.456
 30
3059.29296875
 11
648529.932
 21
4145763.247
 31
3058.778076171875
  0
LINE
  5
3E0F
330
1F
100
AcDbEntity
  8
GALERI_3060
370
     0
100
AcDbLine
 10
648529.932
 20
4145763.247
 30
3058.778076171875
 11
648532.462
 21
4145767.208
 31
3058.2041015625
  0
LINE
  5
3E10
330
1F
100
AcDbEntity
  8
GALERI_3060
370
     0
100
AcDbLine
 10
648532.462
 20
4145767.208
 30
3058.2041015625
 11
648536.391
 21
4145773.453
 31
3057.074951171875
  0
LINE
  5
3E11
330
1F
100
AcDbEntity
  8
GALERI_3060
370
     0
100
AcDbLine
 10
648533.632
 20
4145775.435
 30
3057.19189453125
 11
648528.61
 21
4145767.972
 31
3058.47998046875
  0
LINE
  5
3E12
330
1F
100
AcDbEntity
  8
GALERI_3060
370
     0
100
AcDbLine
 10
648528.61
 20
4145767.972
 30
3058.47998046875
 11
648526.777
 21
4145765.071
 31
3058.610107421875
  0
LINE
  5
3E13
330
1F
100
AcDbEntity
  8
GALERI_3060
370
     0
100
AcDbLine
 10
648526.777
 20
4145765.071
 30
3058.610107421875
 11
648524.544
 21
4145761.382
 31
3059.2509765625
  0
LINE
  5
3E14
330
1F
100
AcDbEntity
  8
GALERI_3060
370
     0
100
AcDbLine
 10
648524.544
 20
4145761.382
 30
3059.2509765625
 11
648523.991
 21
4145760.104
 31
3059.452880859375
  0
LINE
  5
3E24
330
1F
100
AcDbEntity
  8
GALERI_3060
370
     0
100
AcDbLine
 10
648536.391
 20
4145773.453
 30
3057.074951171875
 11
648541.458
 21
4145778.943
 31
3055.6220703125
  0
LINE
  5
3E25
330
1F
100
AcDbEntity
  8
GALERI_3060
370
     0
100
AcDbLine
 10
648541.458
 20
4145778.943
 30
3055.6220703125
 11
648546.474
 21
4145785.972
 31
3054.27197265625
  0
LINE
  5
3E26
330
1F
100
AcDbEntity
  8
GALERI_3060
370
     0
100
AcDbLine
 10
648533.632
 20
4145775.435
 30
3057.19189453125
 11
648539.434
 21
4145781.88
 31
3055.31298828125
  0
LINE
  5
3E27
330
1F
100
AcDbEntity
  8
GALERI_3060
370
     0
100
AcDbLine
 10
648539.434
 20
4145781.88
 30
3055.31298828125
 11
648544.102
 21
4145788.215
 31
3054.201904296875
  0
LINE
  5
3E35
330
1F
100
AcDbEntity
  8
GALERI_3060
370
     0
100
AcDbLine
 10
648546.474
 20
4145785.972
 30
3054.27197265625
 11
648548.574
 21
4145788.325
 31
3053.4619140625
  0
LINE
  5
3E36
330
1F
100
AcDbEntity
  8
GALERI_3060
370
     0
100
AcDbLine
 10
648558.572
 20
4145800.412
 30
3050.636962890625
 11
648568.233
 21
4145811.171
 31
3048.58203125
  0
LINE
  5
3E37
330
1F
100
AcDbEntity
  8
GALERI_3060
370
     0
100
AcDbLine
 10
648566.105
 20
4145813.379
 30
3048.541015625
 11
648561.264
 21
4145808.991
 31
3049.7939453125
  0
LINE
  5
3E38
330
1F
100
AcDbEntity
  8
GALERI_3060
370
     0
100
AcDbLine
 10
648559.028
 20
4145805.896
 30
3049.85595703125
 11
648556.156
 21
4145802.215
 31
3050.60791015625
  0
LINE
  5
3E39
330
1F
100
AcDbEntity
  8
GALERI_3060
370
     0
100
AcDbLine
 10
648556.156
 20
4145802.215
 30
3050.60791015625
 11
648548.219
 21
4145793.157
 31
3052.87109375
  0
LINE
  5
3E3A
330
1F
100
AcDbEntity
  8
GALERI_3060
370
     0
100
AcDbLine
 10
648548.219
 20
4145793.157
 30
3052.87109375
 11
648544.102
 21
4145788.215
 31
3054.201904296875
  0
LINE
  5
3E3F
330
1F
100
AcDbEntity
  8
GALERI_3060
370
     0
100
AcDbLine
 10
648548.574
 20
4145788.325
 30
3053.4619140625
 11
648550.477
 21
4145790.226
 31
3052.825927734375
  0
LINE
  5
3E40
330
1F
100
AcDbEntity
  8
GALERI_3060
370
     0
100
AcDbLine
 10
648550.477
 20
4145790.226
 30
3052.825927734375
 11
648554.896
 21
4145789.432
 31
3052.591064453125
  0
LINE
  5
3E41
330
1F
100
AcDbEntity
  8
GALERI_3060
370
     0
100
AcDbLine
 10
648556.545
 20
4145792.495
 30
3052.44189453125
 11
648553.965
 21
4145794.018
 31
3052.448974609375
  0
LINE
  5
3E42
330
1F
100
AcDbEntity
  8
GALERI_3060
370
     0
100
AcDbLine
 10
648553.965
 20
4145794.018
 30
3052.448974609375
 11
648558.572
 21
4145800.412
 31
3050.636962890625
  0
LINE
  5
3E49
330
1F
100
AcDbEntity
  8
GALERI_3060
370
     0
100
AcDbLine
 10
648570.35
 20
4145814.657
 30
3048.344970703125
 11
648571.38
 21
4145818.191
 31
3048.027099609375
  0
LINE
  5
3E4A
330
1F
100
AcDbEntity
  8
GALERI_3060
370
     0
100
AcDbLine
 10
648571.38
 20
4145818.191
 30
3048.027099609375
 11
648571.734
 21
4145823.709
 31
3047.090087890625
  0
LINE
  5
3E4B
330
1F
100
AcDbEntity
  8
GALERI_3060
370
     0
100
AcDbLine
 10
648566.796
 20
4145814.429
 30
3048.138916015625
 11
648567.68
 21
4145820.015
 31
3047.916015625
  0
LINE
  5
3E4C
330
1F
100
AcDbEntity
  8
GALERI_3060
370
     0
100
AcDbLine
 10
648567.68
 20
4145820.015
 30
3047.916015625
 11
648568.262
 21
4145824.045
 31
3047.053955078125
  0
LINE
  5
3E4D
330
1F
100
AcDbEntity
  8
GALERI_3060
370
     0
100
AcDbLine
 10
648568.233
 20
4145811.171
 30
3048.58203125
 11
648570.35
 21
4145814.657
 31
3048.344970703125
  0
LINE
  5
3E4E
330
1F
100
AcDbEntity
  8
GALERI_3060
370
     0
100
AcDbLine
 10
648566.105
 20
4145813.379
 30
3048.541015625
 11
648566.796
 21
4145814.429
 31
3048.138916015625
  0
LINE
  5
3E53
330
1F
100
AcDbEntity
  8
GALERI_3060
370
     0
100
AcDbLine
 10
648554.896
 20
4145789.432
 30
3052.591064453125
 11
648565.477
 21
4145786.036
 31
3051.844970703125
  0
LINE
  5
3E54
330
1F
100
AcDbEntity
  8
GALERI_3060
370
     0
100
AcDbLine
 10
648565.355
 20
4145789.076
 30
3051.97509765625
 11
648556.545
 21
4145792.495
 31
3052.44189453125
  0
LINE
  5
3E5C
330
1F
100
AcDbEntity
  8
GALERI_3060
370
     0
100
AcDbLine
 10
648565.355
 20
4145789.076
 30
3051.97509765625
 11
648575.268
 21
4145786.328
 31
3051.55908203125
  0
LINE
  5
3E5D
330
1F
100
AcDbEntity
  8
GALERI_3060
370
     0
100
AcDbLine
 10
648575.268
 20
4145786.328
 30
3051.55908203125
 11
648582.792
 21
4145782.878
 31
3051.325927734375
  0
LINE
  5
3E5E
330
1F
100
AcDbEntity
  8
GALERI_3060
370
     0
100
AcDbLine
 10
648582.792
 20
4145782.878
 30
3051.325927734375
 11
648582.205
 21
4145781.363
 31
3051.30908203125
  0
LINE
  5
3E5F
330
1F
100
AcDbEntity
  8
GALERI_3060
370
     0
100
AcDbLine
 10
648582.205
 20
4145781.363
 30
3051.30908203125
 11
648581.08
 21
4145779.668
 31
3051.553955078125
  0
LINE
  5
3E60
330
1F
100
AcDbEntity
  8
GALERI_3060
370
     0
100
AcDbLine
 10
648581.08
 20
4145779.668
 30
3051.553955078125
 11
648573.435
 21
4145783.245
 31
3051.677978515625
  0
LINE
  5
3E61
330
1F
100
AcDbEntity
  8
GALERI_3060
370
     0
100
AcDbLine
 10
648573.435
 20
4145783.245
 30
3051.677978515625
 11
648565.477
 21
4145786.036
 31
3051.844970703125
  0
LINE
  5
3E6D
330
1F
100
AcDbEntity
  8
GALERI_3060
370
     0
100
AcDbLine
 10
648518.844
 20
4145748.893
 30
3059.694091796875
 11
648516.8165276888
 21
4145747.300312854
 31
3059.68505859375
  0
LINE
  5
3E6E
330
1F
100
AcDbEntity
  8
GALERI_3060
370
     0
100
AcDbLine
 10
648522.523
 20
4145747.986
 30
3060.069091796875
 11
648521.9471969786
 21
4145745.09994955
 31
3060.04443359375
  0
LINE
  5
3E86
330
1F
100
AcDbEntity
  8
GALERI_3060
370
     0
100
AcDbLine
 10
648571.734
 20
4145823.709
 30
3047.090087890625
 11
648570.83
 21
4145834.128
 31
3045.842041015625
  0
LINE
  5
3E87
330
1F
100
AcDbEntity
  8
GALERI_3060
370
     0
100
AcDbLine
 10
648570.83
 20
4145834.128
 30
3045.842041015625
 11
648568.33
 21
4145844.387
 31
3044.60009765625
  0
LINE
  5
3E88
330
1F
100
AcDbEntity
  8
GALERI_3060
370
     0
100
AcDbLine
 10
648568.33
 20
4145844.387
 30
3044.60009765625
 11
648566.933
 21
4145851.37
 31
3043.7099609375
  0
LINE
  5
3E89
330
1F
100
AcDbEntity
  8
GALERI_3060
370
     0
100
AcDbLine
 10
648566.933
 20
4145851.37
 30
3043.7099609375
 11
648566.012
 21
4145859.559
 31
3042.787109375
  0
LINE
  5
3E8A
330
1F
100
AcDbEntity
  8
GALERI_3060
370
     0
100
AcDbLine
 10
648566.012
 20
4145859.559
 30
3042.787109375
 11
648565.479
 21
4145864.461
 31
3041.90087890625
  0
LINE
  5
3E8B
330
1F
100
AcDbEntity
  8
GALERI_3060
370
     0
100
AcDbLine
 10
648565.479
 20
4145864.461
 30
3041.90087890625
 11
648565.221
 21
4145870.576
 31
3041.257080078125
  0
LINE
  5
3E8C
330
1F
100
AcDbEntity
  8
GALERI_3060
370
     0
100
AcDbLine
 10
648561.511
 20
4145869.878
 30
3040.922119140625
 11
648561.751
 21
4145864.091
 31
3041.803955078125
  0
LINE
  5
3E8D
330
1F
100
AcDbEntity
  8
GALERI_3060
370
     0
100
AcDbLine
 10
648561.751
 20
4145864.091
 30
3041.803955078125
 11
648562.108
 21
4145858.639
 31
3042.676025390625
  0
LINE
  5
3E8E
330
1F
100
AcDbEntity
  8
GALERI_3060
370
     0
100
AcDbLine
 10
648562.108
 20
4145858.639
 30
3042.676025390625
 11
648563.093
 21
4145853.539
 31
3043.427978515625
  0
LINE
  5
3E8F
330
1F
100
AcDbEntity
  8
GALERI_3060
370
     0
100
AcDbLine
 10
648563.093
 20
4145853.539
 30
3043.427978515625
 11
648565.125
 21
4145843.127
 31
3044.552978515625
  0
LINE
  5
3E90
330
1F
100
AcDbEntity
  8
GALERI_3060
370
     0
100
AcDbLine
 10
648565.125
 20
4145843.127
 30
3044.552978515625
 11
648567.659
 21
4145833.985
 31
3045.68896484375
  0
LINE
  5
3E91
330
1F
100
AcDbEntity
  8
GALERI_3060
370
     0
100
AcDbLine
 10
648567.659
 20
4145833.985
 30
3045.68896484375
 11
648568.262
 21
4145824.045
 31
3047.053955078125
  0
LINE
  5
3E9B
330
1F
100
AcDbEntity
  8
GALERI_3060
370
     0
100
AcDbLine
 10
648565.221
 20
4145870.576
 30
3041.257080078125
 11
648565.127
 21
4145877.318
 31
3040.068115234375
  0
LINE
  5
3E9C
330
1F
100
AcDbEntity
  8
GALERI_3060
370
     0
100
AcDbLine
 10
648565.127
 20
4145877.318
 30
3040.068115234375
 11
648564.139
 21
4145884.477
 31
3039.131103515625
  0
LINE
  5
3E9D
330
1F
100
AcDbEntity
  8
GALERI_3060
370
     0
100
AcDbLine
 10
648561.511
 20
4145869.878
 30
3040.922119140625
 11
648561.638
 21
4145876.816
 31
3039.931884765625
  0
LINE
  5
3E9E
330
1F
100
AcDbEntity
  8
GALERI_3060
370
     0
100
AcDbLine
 10
648560.5343385196
 20
4145882.933175963
 30
3039.24658203125
 11
648561.638
 21
4145876.816
 31
3039.931884765625
  0
LINE
  5
3E9F
330
1F
100
AcDbEntity
  8
GALERI_3060
370
     0
100
AcDbLine
 10
648560.5343385196
 20
4145882.933175963
 30
3039.06103515625
 11
648561.593
 21
4145892.342
 31
3038.054931640625
  0
LINE
  5
3EA0
330
1F
100
AcDbEntity
  8
GALERI_3060
370
     0
100
AcDbLine
 10
648564.139
 20
4145884.477
 30
3039.131103515625
 11
648564.8273659283
 21
4145892.07603273
 31
3038.159912109375
  0
LINE
  5
3EC4
330
1F
100
AcDbEntity
  8
GALERI_3060
370
     0
100
AcDbLine
 10
648564.8273659283
 20
4145892.07603273
 30
3038.159912109375
 11
648564.56
 21
4145897.396
 31
3037.177001953125
  0
LINE
  5
3EC5
330
1F
100
AcDbEntity
  8
GALERI_3060
370
     0
100
AcDbLine
 10
648564.56
 20
4145897.396
 30
3037.177001953125
 11
648564.657
 21
4145903.083
 31
3036.300048828125
  0
LINE
  5
3EC6
330
1F
100
AcDbEntity
  8
GALERI_3060
370
     0
100
AcDbLine
 10
648564.657
 20
4145903.083
 30
3036.300048828125
 11
648565.071
 21
4145907.407
 31
3035.972900390625
  0
LINE
  5
3EC7
330
1F
100
AcDbEntity
  8
GALERI_3060
370
     0
100
AcDbLine
 10
648565.071
 20
4145907.407
 30
3035.972900390625
 11
648567.463
 21
4145917.16
 31
3034.25390625
  0
LINE
  5
3EC8
330
1F
100
AcDbEntity
  8
GALERI_3060
370
     0
100
AcDbLine
 10
648567.463
 20
4145917.16
 30
3034.25390625
 11
648568.405
 21
4145924.572
 31
3033.218017578125
  0
LINE
  5
3EC9
330
1F
100
AcDbEntity
  8
GALERI_3060
370
     0
100
AcDbLine
 10
648568.405
 20
4145924.572
 30
3033.218017578125
 11
648569.7979463461
 21
4145932.199318868
 31
3032.757080078125
  0
LINE
  5
3ECA
330
1F
100
AcDbEntity
  8
GALERI_3060
370
     0
100
AcDbLine
 10
648561.593
 20
4145892.342
 30
3038.054931640625
 11
648561.482
 21
4145897.153
 31
3037.2548828125
  0
LINE
  5
3ECB
330
1F
100
AcDbEntity
  8
GALERI_3060
370
     0
100
AcDbLine
 10
648561.482
 20
4145897.153
 30
3037.2548828125
 11
648561.199
 21
4145903.293
 31
3036.470947265625
  0
LINE
  5
3ECC
330
1F
100
AcDbEntity
  8
GALERI_3060
370
     0
100
AcDbLine
 10
648561.199
 20
4145903.293
 30
3036.470947265625
 11
648561.036
 21
4145906.832
 31
3035.888916015625
  0
LINE
  5
3ECD
330
1F
100
AcDbEntity
  8
GALERI_3060
370
     0
100
AcDbLine
 10
648561.036
 20
4145906.832
 30
3035.888916015625
 11
648558.681
 21
4145909.668
 31
3035.465087890625
  0
LINE
  5
3ECE
330
1F
100
AcDbEntity
  8
GALERI_3060
370
     0
100
AcDbLine
 10
648558.681
 20
4145909.668
 30
3035.465087890625
 11
648555.6
 21
4145911.352
 31
3035.220947265625
  0
LINE
  5
3ECF
330
1F
100
AcDbEntity
  8
GALERI_3060
370
     0
100
AcDbLine
 10
648562.262
 20
4145912.566
 30
3035.239013671875
 11
648559.702
 21
4145913.281
 31
3035.402099609375
  0
LINE
  5
3ED0
330
1F
100
AcDbEntity
  8
GALERI_3060
370
     0
100
AcDbLine
 10
648559.702
 20
4145913.281
 30
3035.402099609375
 11
648556.253
 21
4145915.119
 31
3035.718994140625
  0
LINE
  5
3ED1
330
1F
100
AcDbEntity
  8
GALERI_3060
370
     0
100
AcDbLine
 10
648549.7986672054
 20
4145913.120025233
 30
3035.220947265625
 11
648551.4009381258
 21
4145916.348228786
 31
3035.46240234375
  0
LINE
  5
3ED2
330
1F
100
AcDbEntity
  8
GALERI_3060
370
     0
100
AcDbLine
 10
648555.6
 20
4145911.352
 30
3035.220947265625
 11
648549.7986672054
 21
4145913.120025233
 31
3035.220947265625
  0
LINE
  5
3ED3
330
1F
100
AcDbEntity
  8
GALERI_3060
370
     0
100
AcDbLine
 10
648551.4009381258
 20
4145916.348228786
 30
3035.46240234375
 11
648556.253
 21
4145915.119
 31
3035.718994140625
  0
LINE
  5
3ED4
330
1F
100
AcDbEntity
  8
GALERI_3060
370
     0
100
AcDbLine
 10
648562.262
 20
4145912.566
 30
3035.239013671875
 11
648563.694
 21
4145919.025
 31
3033.906005859375
  0
LINE
  5
3ED5
330
1F
100
AcDbEntity
  8
GALERI_3060
370
     0
100
AcDbLine
 10
648563.694
 20
4145919.025
 30
3033.906005859375
 11
648565.657
 21
4145927.273
 31
3032.9619140625
  0
LINE
  5
3ED6
330
1F
100
AcDbEntity
  8
GALERI_3060
370
     0
100
AcDbLine
 10
648565.657
 20
4145927.273
 30
3032.9619140625
 11
648567.298
 21
4145939.298
 31
3031.426025390625
  0
LINE
  5
3ED7
330
1F
100
AcDbEntity
  8
GALERI_3060
370
     0
100
AcDbLine
 10
648567.298
 20
4145939.298
 30
3031.426025390625
 11
648568.6305656664
 21
4145949.817576578
 31
3034.587890625
  0
LINE
  5
3EEA
330
1F
100
AcDbEntity
  8
GALERI_3060
370
     0
100
AcDbLine
 10
648568.6305656664
 20
4145949.817576578
 30
3034.587890625
 11
648570.821
 21
4145958.979
 31
3028.467041015625
  0
LINE
  5
3F05
330
1F
100
AcDbEntity
  8
GALERI_3060
370
     0
100
AcDbLine
 10
648573.932
 20
4145956.997
 30
3028.73095703125
 11
648576.1060407646
 21
4145965.291193018
 31
3030.357666015625
  0
LINE
  5
3F06
330
1F
100
AcDbEntity
  8
GALERI_3060
370
     0
100
AcDbLine
 10
648570.821
 20
4145958.979
 30
3028.467041015625
 11
648572.6339768202
 21
4145965.865313828
 31
3030.353515625
  0
LINE
  5
3F07
330
1F
100
AcDbEntity
  8
GALERI_3060
370
     0
100
AcDbLine
 10
648576.1060407646
 20
4145965.291193018
 30
3030.357666015625
 11
648576.898
 21
4145973.378
 31
3026.35791015625
  0
LINE
  5
3F08
330
1F
100
AcDbEntity
  8
GALERI_3060
370
     0
100
AcDbLine
 10
648576.898
 20
4145973.378
 30
3026.35791015625
 11
648576.766
 21
4145982.262
 31
3025.455078125
  0
LINE
  5
3F09
330
1F
100
AcDbEntity
  8
GALERI_3060
370
     0
100
AcDbLine
 10
648576.766
 20
4145982.262
 30
3025.455078125
 11
648576.593
 21
4145984.992
 31
3025.068115234375
  0
LINE
  5
3F0A
330
1F
100
AcDbEntity
  8
GALERI_3060
370
     0
100
AcDbLine
 10
648576.593
 20
4145984.992
 30
3025.068115234375
 11
648575.336
 21
4145988.94
 31
3024.3349609375
  0
LINE
  5
3F0B
330
1F
100
AcDbEntity
  8
GALERI_3060
370
     0
100
AcDbLine
 10
648575.336
 20
4145988.94
 30
3024.3349609375
 11
648573.559
 21
4145997.596
 31
3023.14990234375
  0
LINE
  5
3F0C
330
1F
100
AcDbEntity
  8
GALERI_3060
370
     0
100
AcDbLine
 10
648573.559
 20
4145997.596
 30
3023.14990234375
 11
648572.576
 21
4146005.429
 31
3022.25390625
  0
LINE
  5
3F0D
330
1F
100
AcDbEntity
  8
GALERI_3060
370
     0
100
AcDbLine
 10
648572.576
 20
4146005.429
 30
3022.25390625
 11
648572.521
 21
4146007.323
 31
3022.070068359375
  0
LINE
  5
3F0E
330
1F
100
AcDbEntity
  8
GALERI_3060
370
     0
100
AcDbLine
 10
648572.521
 20
4146007.323
 30
3022.070068359375
 11
648572.135
 21
4146015.233
 31
3021.243896484375
  0
LINE
  5
3F0F
330
1F
100
AcDbEntity
  8
GALERI_3060
370
     0
100
AcDbLine
 10
648569.162
 20
4146004.52
 30
3022.285888671875
 11
648569.633
 21
4145997.955
 31
3022.945068359375
  0
LINE
  5
3F10
330
1F
100
AcDbEntity
  8
GALERI_3060
370
     0
100
AcDbLine
 10
648569.633
 20
4145997.955
 30
3022.945068359375
 11
648571.795
 21
4145987.765
 31
3024.2041015625
  0
LINE
  5
3F11
330
1F
100
AcDbEntity
  8
GALERI_3060
370
     0
100
AcDbLine
 10
648571.795
 20
4145987.765
 30
3024.2041015625
 11
648572.532
 21
4145983.324
 31
3024.930908203125
  0
LINE
  5
3F12
330
1F
100
AcDbEntity
  8
GALERI_3060
370
     0
100
AcDbLine
 10
648572.532
 20
4145983.324
 30
3024.930908203125
 11
648573.021
 21
4145980.029
 31
3025.472900390625
  0
LINE
  5
3F13
330
1F
100
AcDbEntity
  8
GALERI_3060
370
     0
100
AcDbLine
 10
648573.021
 20
4145980.029
 30
3025.472900390625
 11
648573.206
 21
4145973.581
 31
3026.208984375
  0
LINE
  5
3F14
330
1F
100
AcDbEntity
  8
GALERI_3060
370
     0
100
AcDbLine
 10
648573.206
 20
4145973.581
 30
3026.208984375
 11
648572.6339768202
 21
4145965.865313828
 31
3030.353515625
  0
LINE
  5
402B
330
1F
100
AcDbEntity
  8
GALERI_3060
370
     0
100
AcDbLine
 10
648564.329
 20
4146008.067
 30
3022.113037109375
 11
648568.82
 21
4146005.971
 31
3021.910888671875
  0
LINE
  5
402C
330
1F
100
AcDbEntity
  8
GALERI_3060
370
     0
100
AcDbLine
 10
648568.413
 20
4146011.322
 30
3021.89990234375
 11
648564.997
 21
4146011.742
 31
3022.072998046875
  0
LINE
  5
402D
330
1F
100
AcDbEntity
  8
GALERI_3060
370
     0
100
AcDbLine
 10
648567.857
 20
4146030.212
 30
3019.4619140625
 11
648568.481
 21
4146014.562
 31
3021.35400390625
  0
LINE
  5
402E
330
1F
100
AcDbEntity
  8
GALERI_3060
370
     0
100
AcDbLine
 10
648572.135
 20
4146015.233
 30
3021.243896484375
 11
648571.176
 21
4146030.715
 31
3019.5458984375
  0
LINE
  5
402F
330
1F
100
AcDbEntity
  8
GALERI_3060
370
     0
100
AcDbLine
 10
648568.413
 20
4146011.322
 30
3021.89990234375
 11
648568.481
 21
4146014.562
 31
3021.35400390625
  0
LINE
  5
4030
330
1F
100
AcDbEntity
  8
GALERI_3060
370
     0
100
AcDbLine
 10
648568.82
 20
4146005.971
 30
3021.910888671875
 11
648569.162
 21
4146004.52
 31
3022.285888671875
  0
LINE
  5
4036
330
1F
100
AcDbEntity
  8
GALERI_3060
370
     0
100
AcDbLine
 10
648573.932
 20
4145956.997
 30
3028.73095703125
 11
648573.858
 21
4145955.589
 31
3028.697998046875
  0
LINE
  5
4037
330
1F
100
AcDbEntity
  8
GALERI_3060
370
     0
100
AcDbLine
 10
648573.858
 20
4145955.589
 30
3028.697998046875
 11
648575.501
 21
4145953.714
 31
3029.75
  0
LINE
  5
4038
330
1F
100
AcDbEntity
  8
GALERI_3060
370
     0
100
AcDbLine
 10
648576.5682203891
 20
4145953.259364156
 30
3030.373291015625
 11
648575.8528977769
 21
4145950.363641812
 31
3030.47412109375
  0
LINE
  5
4039
330
1F
100
AcDbEntity
  8
GALERI_3060
370
     0
100
AcDbLine
 10
648574.67
 20
4145950.35
 30
3030.47412109375
 11
648573.564
 21
4145949.663
 31
3029.7880859375
  0
LINE
  5
403A
330
1F
100
AcDbEntity
  8
GALERI_3060
370
     0
100
AcDbLine
 10
648573.564
 20
4145949.663
 30
3029.7880859375
 11
648572.636
 21
4145948.716
 31
3029.652099609375
  0
LINE
  5
403B
330
1F
100
AcDbEntity
  8
GALERI_3060
370
     0
100
AcDbLine
 10
648572.636
 20
4145948.716
 30
3029.652099609375
 11
648570.7362307973
 21
4145937.436008026
 31
3029.876953125
  0
LINE
  5
4045
330
1F
100
AcDbEntity
  8
GALERI_3060
370
     0
100
AcDbLine
 10
648569.7979463461
 20
4145932.199318868
 30
3032.757080078125
 11
648575.431
 21
4145933.703
 31
3032.625
  0
LINE
  5
4046
330
1F
100
AcDbEntity
  8
GALERI_3060
370
     0
100
AcDbLine
 10
648575.431
 20
4145933.703
 30
3032.625
 11
648581.793
 21
4145936.761
 31
3032.929931640625
  0
LINE
  5
4047
330
1F
100
AcDbEntity
  8
GALERI_3060
370
     0
100
AcDbLine
 10
648580.478
 20
4145940.148
 30
3032.77392578125
 11
648573.36
 21
4145936.899
 31
3032.35009765625
  0
LINE
  5
4048
330
1F
100
AcDbEntity
  8
GALERI_3060
370
     0
100
AcDbLine
 10
648573.36
 20
4145936.899
 30
3032.35009765625
 11
648570.7362307973
 21
4145937.436008026
 31
3029.876953125
  0
LINE
  5
404D
330
1F
100
AcDbEntity
  8
GALERI_3060
370
     0
100
AcDbLine
 10
648580.478
 20
4145940.148
 30
3032.77392578125
 11
648590.106
 21
4145944.242
 31
3032.617919921875
  0
LINE
  5
404E
330
1F
100
AcDbEntity
  8
GALERI_3060
370
     0
100
AcDbLine
 10
648591.598
 20
4145940.672
 30
3032.95703125
 11
648581.793
 21
4145936.761
 31
3032.929931640625
  0
LINE
  5
404F
330
1F
100
AcDbEntity
  8
GALERI_3060
370
     0
100
AcDbLine
 10
648590.106
 20
4145944.242
 30
3032.617919921875
 11
648590.1534108082
 21
4145944.156427984
 31
3032.57958984375
  0
LINE
  5
4050
330
1F
100
AcDbEntity
  8
GALERI_3060
370
     0
100
AcDbLine
 10
648591.003
 20
4145942.623
 30
3032.320068359375
 11
648591.598
 21
4145940.672
 31
3032.95703125
  0
LINE
  5
4052
330
1F
100
AcDbEntity
  8
GALERI_3060
370
     0
100
AcDbLine
 10
648564.329
 20
4146008.067
 30
3022.113037109375
 11
648557.6732160563
 21
4146011.608671786
 31
3022.81787109375
  0
LINE
  5
4053
330
1F
100
AcDbEntity
  8
GALERI_3060
370
     0
100
AcDbLine
 10
648557.6732160563
 20
4146011.608671786
 30
3022.81787109375
 11
648558.332
 21
4146013.082
 31
3023.30810546875
  0
LINE
  5
4054
330
1F
100
AcDbEntity
  8
GALERI_3060
370
     0
100
AcDbLine
 10
648558.332
 20
4146013.082
 30
3023.30810546875
 11
648558.6783831669
 21
4146014.398010518
 31
3022.724609375
  0
LINE
  5
4055
330
1F
100
AcDbEntity
  8
GALERI_3060
370
     0
100
AcDbLine
 10
648558.6783831669
 20
4146014.398010518
 30
3022.724609375
 11
648564.997
 21
4146011.742
 31
3022.072998046875
  0
LINE
  5
405A
330
1F
100
AcDbEntity
  8
GALERI_3060
370
     0
100
AcDbLine
 10
648590.8803933293
 20
4145942.844293423
 30
3032.5771484375
 11
648591.003
 21
4145942.623
 31
3032.320068359375
  0
LINE
  5
4068
330
1F
100
AcDbEntity
  8
GALERI_3060
370
     0
100
AcDbLine
 10
648574.67
 20
4145950.35
 30
3030.47412109375
 11
648575.8528977769
 21
4145950.363641812
 31
3030.47412109375
  0
LINE
  5
4069
330
1F
100
AcDbEntity
  8
GALERI_3060
370
     0
100
AcDbLine
 10
648575.501
 20
4145953.714
 30
3029.75
 11
648576.5682203891
 21
4145953.259364156
 31
3030.373291015625
  0
LINE
  5
4070
330
1F
100
AcDbEntity
  8
GALERI_3060
370
     0
100
AcDbLine
 10
648567.857
 20
4146030.212
 30
3019.4619140625
 11
648567.281
 21
4146036.021
 31
3019.47900390625
  0
LINE
  5
4071
330
1F
100
AcDbEntity
  8
GALERI_3060
370
     0
100
AcDbLine
 10
648571.176
 20
4146030.715
 30
3019.5458984375
 11
648570.689
 21
4146035.122
 31
3019.239013671875
  0
LINE
  5
4077
330
1F
100
AcDbEntity
  8
GALERI_3060
370
     0
100
AcDbLine
 10
648567.281
 20
4146036.021
 30
3019.47900390625
 11
648567.034
 21
4146044.195
 31
3018.907958984375
  0
LINE
  5
4078
330
1F
100
AcDbEntity
  8
GALERI_3060
370
     0
100
AcDbLine
 10
648567.034
 20
4146044.195
 30
3018.907958984375
 11
648566.7494306931
 21
4146053.427535369
 31
3018.895263671875
  0
LINE
  5
4079
330
1F
100
AcDbEntity
  8
GALERI_3060
370
     0
100
AcDbLine
 10
648570.116
 20
4146057.369
 30
3018.33203125
 11
648570.449
 21
4146044.177
 31
3018.9208984375
  0
LINE
  5
407A
330
1F
100
AcDbEntity
  8
GALERI_3060
370
     0
100
AcDbLine
 10
648570.449
 20
4146044.177
 30
3018.9208984375
 11
648570.689
 21
4146035.122
 31
3019.239013671875
  0
LINE
  5
407E
330
1F
100
AcDbEntity
  8
GALERI_3060
370
     0
100
AcDbLine
 10
648566.703218893
 20
4146054.926825939
 30
3018.816650390625
 11
648566.633
 21
4146057.205
 31
3018.386962890625
  0
LINE
  5
4091
330
1F
100
AcDbEntity
  8
GALERI_3060
370
     0
100
AcDbLine
 10
648570.861
 20
4146067.075
 30
3017.75
 11
648571.434
 21
4146072.082
 31
3017.216064453125
  0
LINE
  5
4092
330
1F
100
AcDbEntity
  8
GALERI_3060
370
     0
100
AcDbLine
 10
648571.434
 20
4146072.082
 30
3017.216064453125
 11
648574.723
 21
4146088.299
 31
3016.27490234375
  0
LINE
  5
4093
330
1F
100
AcDbEntity
  8
GALERI_3060
370
     0
100
AcDbLine
 10
648574.723
 20
4146088.299
 30
3016.27490234375
 11
648575.123
 21
4146093.183
 31
3016.337890625
  0
LINE
  5
4094
330
1F
100
AcDbEntity
  8
GALERI_3060
370
     0
100
AcDbLine
 10
648575.123
 20
4146093.183
 30
3016.337890625
 11
648575.925
 21
4146100.434
 31
3016.069091796875
  0
LINE
  5
4095
330
1F
100
AcDbEntity
  8
GALERI_3060
370
     0
100
AcDbLine
 10
648575.925
 20
4146100.434
 30
3016.069091796875
 11
648572.409
 21
4146101.266
 31
3015.968017578125
  0
LINE
  5
4096
330
1F
100
AcDbEntity
  8
GALERI_3060
370
     0
100
AcDbLine
 10
648572.409
 20
4146101.266
 30
3015.968017578125
 11
648571.622
 21
4146094.005
 31
3016.162109375
  0
LINE
  5
4097
330
1F
100
AcDbEntity
  8
GALERI_3060
370
     0
100
AcDbLine
 10
648571.622
 20
4146094.005
 30
3016.162109375
 11
648571.086
 21
4146088.58
 31
3016.365966796875
  0
LINE
  5
4098
330
1F
100
AcDbEntity
  8
GALERI_3060
370
     0
100
AcDbLine
 10
648571.086
 20
4146088.58
 30
3016.365966796875
 11
648568.521
 21
4146074.685
 31
3017.073974609375
  0
LINE
  5
4099
330
1F
100
AcDbEntity
  8
GALERI_3060
370
     0
100
AcDbLine
 10
648568.521
 20
4146074.685
 30
3017.073974609375
 11
648566.959
 21
4146075.777
 31
3017.467041015625
  0
LINE
  5
409A
330
1F
100
AcDbEntity
  8
GALERI_3060
370
     0
100
AcDbLine
 10
648566.959
 20
4146075.777
 30
3017.467041015625
 11
648560.449
 21
4146082.821
 31
3017.303955078125
  0
LINE
  5
409B
330
1F
100
AcDbEntity
  8
GALERI_3060
370
     0
100
AcDbLine
 10
648560.449
 20
4146082.821
 30
3017.303955078125
 11
648558.735
 21
4146080.451
 31
3017.153076171875
  0
LINE
  5
409C
330
1F
100
AcDbEntity
  8
GALERI_3060
370
     0
100
AcDbLine
 10
648558.735
 20
4146080.451
 30
3017.153076171875
 11
648564.455
 21
4146072.699
 31
3017.449951171875
  0
LINE
  5
409D
330
1F
100
AcDbEntity
  8
GALERI_3060
370
     0
100
AcDbLine
 10
648564.455
 20
4146072.699
 30
3017.449951171875
 11
648566.455
 21
4146070.334
 31
3017.41796875
  0
LINE
  5
409E
330
1F
100
AcDbEntity
  8
GALERI_3060
370
     0
100
AcDbLine
 10
648566.455
 20
4146070.334
 30
3017.41796875
 11
648567.511
 21
4146068.839
 31
3017.488037109375
  0
LINE
  5
409F
330
1F
100
AcDbEntity
  8
GALERI_3060
370
     0
100
AcDbLine
 10
648567.511
 20
4146068.839
 30
3017.488037109375
 11
648567.496
 21
4146067.169
 31
3017.547119140625
  0
LINE
  5
40B1
330
1F
100
AcDbEntity
  8
GALERI_3060
370
     0
100
AcDbLine
 10
648570.116
 20
4146057.369
 30
3018.33203125
 11
648570.861
 21
4146067.075
 31
3017.75
  0
LINE
  5
40B2
330
1F
100
AcDbEntity
  8
GALERI_3060
370
     0
100
AcDbLine
 10
648567.497765832
 20
4146067.365595951
 30
3017.345947265625
 11
648566.633
 21
4146057.205
 31
3018.386962890625
  0
LINE
  5
4106
330
1F
100
AcDbEntity
  8
GALERI_3060
100
AcDbLine
 10
648515.9027064844
 20
4145740.997835962
 30
3060.0
 11
648515.9027064844
 21
4145734.735099846
 31
3060.0
  0
LINE
  5
4107
330
1F
100
AcDbEntity
  8
GALERI_3060
100
AcDbLine
 10
648515.9027064844
 20
4145734.735099846
 30
3060.0
 11
648522.2549102589
 21
4145734.735099846
 31
3060.0
  0
LINE
  5
4108
330
1F
100
AcDbEntity
  8
GALERI_3060
100
AcDbLine
 10
648522.2549102589
 20
4145734.735099846
 30
3060.0
 11
648522.2549102589
 21
4145740.997835962
 31
3060.0
  0
LINE
  5
4109
330
1F
100
AcDbEntity
  8
GALERI_3060
100
AcDbLine
 10
648522.2549102589
 20
4145740.997835962
 30
3060.0
 11
648515.9027064844
 21
4145740.997835962
 31
3060.0
  0
POINT
  5
410F
330
1F
100
AcDbEntity
  8
INIT_COORD
100
AcDbPoint
 10
648519.3818623337
 20
4145746.200131202
 30
3059.86474609375
  0
ENDSEC
  0
SECTION
  2
OBJECTS
  0
DICTIONARY
  5
C
330
0
100
AcDbDictionary
281
     1
  3
ACAD_DETAILVIEWSTYLE
350
412B
  3
ACAD_GROUP
350
D
  3
ACAD_LAYOUT
350
1A
  3
ACAD_MATERIAL
350
3B
  3
ACAD_MLEADERSTYLE
350
40BC
  3
ACAD_MLINESTYLE
350
17
  3
ACAD_PLOTSETTINGS
350
19
  3
ACAD_PLOTSTYLENAME
350
E
  3
ACAD_SCALELIST
350
40BD
  3
ACAD_SECTIONVIEWSTYLE
350
412C
  3
ACAD_TABLESTYLE
350
40BB
  3
ACAD_VISUALSTYLE
350
2A
  3
ACDB_RECOMPOSE_DATA
350
4170
  3
AcDbVariableDictionary
350
4127
  3
APPDATA
350
40EB
  0
SUN
  5
40EC
330
29
100
AcDbSun
 90
        1
290
     0
 63
     7
421
 16777215
 40
1.0
291
     1
 91
  2455826
 92
 54000000
292
     0
 70
     2
 71
   256
280
     1
  0
DICTIONARY
  5
40ED
330
2
100
AcDbDictionary
280
     1
281
     1
  3
ACAD_LAYERSTATES
360
40EE
  3
ACLYDICTIONARY
360
416D
  0
DICTIONARY
  5
412B
102
{ACAD_REACTORS
330
C
102
}
330
C
100
AcDbDictionary
281
     1
  0
DICTIONARY
  5
D
102
{ACAD_REACTORS
330
C
102
}
330
C
100
AcDbDictionary
281
     1
  0
DICTIONARY
  5
1A
102
{ACAD_REACTORS
330
C
102
}
330
C
100
AcDbDictionary
281
     1
  3
Layout1
350
1E
  3
Layout2
350
26
  3
Model
350
22
  0
DICTIONARY
  5
3B
102
{ACAD_REACTORS
330
C
102
}
330
C
100
AcDbDictionary
281
     1
  3
ByBlock
350
3D
  3
ByLayer
350
3C
  3
Global
350
3E
  0
DICTIONARY
  5
40BC
102
{ACAD_REACTORS
330
C
102
}
330
C
100
AcDbDictionary
281
     1
  3
Standard
350
40EA
  0
DICTIONARY
  5
17
102
{ACAD_REACTORS
330
C
102
}
330
C
100
AcDbDictionary
281
     1
  3
Standard
350
18
  0
DICTIONARY
  5
19
102
{ACAD_REACTORS
330
C
102
}
330
C
100
AcDbDictionary
281
     1
  0
ACDBDICTIONARYWDFLT
  5
E
102
{ACAD_REACTORS
330
C
102
}
330
C
100
AcDbDictionary
281
     1
  3
Normal
350
F
100
AcDbDictionaryWithDefault
340
F
  0
DICTIONARY
  5
40BD
102
{ACAD_REACTORS
330
C
102
}
330
C
100
AcDbDictionary
281
     1
  3
A0
350
40BE
  3
A1
350
40BF
  3
A2
350
40C0
  3
A3
350
40C1
  3
A4
350
40C2
  3
A5
350
40C3
  3
A6
350
40C4
  3
A7
350
40C5
  3
A8
350
40C6
  3
A9
350
40C7
  3
B0
350
40C8
  3
B1
350
40C9
  3
B2
350
40CA
  3
B3
350
40CB
  3
B4
350
40CC
  3
B5
350
40CD
  3
B6
350
40CE
  3
B7
350
40CF
  3
B8
350
40D0
  3
B9
350
40D1
  3
C0
350
40D2
  3
C1
350
40D3
  3
C2
350
40D4
  3
C3
350
40D5
  3
C4
350
40D6
  3
C5
350
40D7
  3
C6
350
40D8
  3
C7
350
40D9
  3
C8
350
40DA
  3
C9
350
40DB
  3
D0
350
40DC
  3
D1
350
40DD
  3
D2
350
40DE
  0
DICTIONARY
  5
412C
102
{ACAD_REACTORS
330
C
102
}
330
C
100
AcDbDictionary
281
     1
  0
DICTIONARY
  5
40BB
102
{ACAD_REACTORS
330
C
102
}
330
C
100
AcDbDictionary
281
     1
  3
Standard
350
40E9
  0
DICTIONARY
  5
2A
102
{ACAD_REACTORS
330
C
102
}
330
C
100
AcDbDictionary
281
     1
  3
2dWireframe
350
2F
  3
3D Hidden
350
31
  3
3dWireframe
350
30
  3
Basic
350
32
  3
Brighten
350
36
  3
ColorChange
350
3A
  3
Conceptual
350
34
  3
Dim
350
35
  3
EdgeColorOff
350
40E3
  3
Facepattern
350
39
  3
Flat
350
2B
  3
FlatWithEdges
350
2C
  3
Gouraud
350
2D
  3
GouraudWithEdges
350
2E
  3
Hidden
350
40E0
  3
JitterOff
350
40E1
  3
Linepattern
350
38
  3
OverhangOff
350
40E2
  3
Realistic
350
33
  3
Shaded
350
40E8
  3
Shaded with edges
350
40E7
  3
Shades of Gray
350
40E4
  3
Sketchy
350
40E5
  3
Thicken
350
37
  3
Wireframe
350
40DF
  3
X-Ray
350
40E6
  0
XRECORD
  5
4170
102
{ACAD_REACTORS
330
C
102
}
330
C
100
AcDbXrecord
280
     1
 90
        1
330
40E9
  0
DICTIONARY
  5
4127
102
{ACAD_REACTORS
330
C
102
}
330
C
100
AcDbDictionary
281
     1
  3
CANNOSCALE
350
4128
  3
CMLEADERSTYLE
350
412A
  3
CTABLESTYLE
350
4129
  0
DICTIONARY
  5
40EB
102
{ACAD_REACTORS
330
C
102
}
330
C
100
AcDbDictionary
281
     1
  0
DICTIONARY
  5
40EE
102
{ACAD_REACTORS
330
40ED
102
}
330
40ED
100
AcDbDictionary
281
     1
  3
KatmanDurumu1
350
416B
  0
DICTIONARY
  5
416D
102
{ACAD_REACTORS
330
40ED
102
}
330
40ED
100
AcDbDictionary
281
     1
1001
ACAD
1000
<All
  0
LAYOUT
  5
1E
102
{ACAD_REACTORS
330
1A
102
}
330
1A
100
AcDbPlotSettings
  1

  2
none_device
  4

  6

 40
0.0
 41
0.0
 42
0.0
 43
0.0
 44
0.0
 45
0.0
 46
0.0
 47
0.0
 48
0.0
 49
0.0
140
0.0
141
0.0
142
1.0
143
1.0
 70
   688
 72
     0
 73
     0
 74
     5
  7

 75
    16
 76
     0
 77
     2
 78
   300
147
1.0
148
0.0
149
0.0
100
AcDbLayout
  1
Layout1
 70
     1
 71
     1
 10
0.0
 20
0.0
 11
420.0
 21
297.0
 12
0.0
 22
0.0
 32
0.0
 14
1.000000000000000E+20
 24
1.000000000000000E+20
 34
1.000000000000000E+20
 15
-1.000000000000000E+20
 25
-1.000000000000000E+20
 35
-1.000000000000000E+20
146
0.0
 13
0.0
 23
0.0
 33
0.0
 16
1.0
 26
0.0
 36
0.0
 17
0.0
 27
1.0
 37
0.0
 76
     0
330
1B
  0
LAYOUT
  5
26
102
{ACAD_REACTORS
330
1A
102
}
330
1A
100
AcDbPlotSettings
  1

  2
none_device
  4

  6

 40
0.0
 41
0.0
 42
0.0
 43
0.0
 44
0.0
 45
0.0
 46
0.0
 47
0.0
 48
0.0
 49
0.0
140
0.0
141
0.0
142
1.0
143
1.0
 70
   688
 72
     0
 73
     0
 74
     5
  7

 75
    16
 76
     0
 77
     2
 78
   300
147
1.0
148
0.0
149
0.0
100
AcDbLayout
  1
Layout2
 70
     1
 71
     2
 10
0.0
 20
0.0
 11
0.0
 21
0.0
 12
0.0
 22
0.0
 32
0.0
 14
0.0
 24
0.0
 34
0.0
 15
0.0
 25
0.0
 35
0.0
146
0.0
 13
0.0
 23
0.0
 33
0.0
 16
1.0
 26
0.0
 36
0.0
 17
0.0
 27
1.0
 37
0.0
 76
     0
330
23
  0
LAYOUT
  5
22
102
{ACAD_REACTORS
330
1A
102
}
330
1A
100
AcDbPlotSettings
  1

  2
none_device
  4

  6

 40
0.0
 41
0.0
 42
0.0
 43
0.0
 44
0.0
 45
0.0
 46
0.0
 47
0.0
 48
0.0
 49
0.0
140
0.0
141
0.0
142
1.0
143
1.0
 70
  1712
 72
     0
 73
     0
 74
     0
  7

 75
     0
 76
     0
 77
     2
 78
   300
147
1.0
148
0.0
149
0.0
100
AcDbLayout
  1
Model
 70
     1
 71
     0
 10
0.0
 20
0.0
 11
420.0
 21
297.0
 12
0.0
 22
0.0
 32
0.0
 14
648515.9027064844
 24
4145734.735099846
 34
3015.968017578125
 15
648591.598
 25
4146101.266
 35
3060.069091796875
146
0.0
 13
0.0
 23
0.0
 33
0.0
 16
1.0
 26
0.0
 36
0.0
 17
0.0
 27
1.0
 37
0.0
 76
     0
330
1F
331
29
  0
MATERIAL
  5
3D
102
{ACAD_REACTORS
330
3B
102
}
330
3B
100
AcDbMaterial
  1
ByBlock
 72
     1
 94
      127
  0
MATERIAL
  5
3C
102
{ACAD_REACTORS
330
3B
102
}
330
3B
100
AcDbMaterial
  1
ByLayer
 72
     1
 94
      127
  0
MATERIAL
  5
3E
102
{ACAD_REACTORS
330
3B
102
}
330
3B
100
AcDbMaterial
  1
Global
 72
     1
 94
      127
  0
MLEADERSTYLE
  5
40EA
102
{ACAD_REACTORS
330
40BC
102
}
330
40BC
100
AcDbMLeaderStyle
179
     2
170
     2
171
     1
172
     0
 90
        2
 40
0.0
 41
0.0
173
     1
 91
-1056964608
340
14
 92
       -2
290
     1
 42
2.0
291
     1
 43
8.0
  3
Standard
341
0
 44
4.0
300

342
11
174
     1
178
     1
175
     1
176
     0
 93
-1056964608
 45
4.0
292
     0
297
     0
 46
4.0
343
0
 94
-1056964608
 47
1.0
 49
1.0
140
1.0
293
     1
141
0.0
294
     1
177
     0
142
1.0
295
     0
296
     0
143
3.75
271
     0
272
     9
273
     9
  0
MLINESTYLE
  5
18
102
{ACAD_REACTORS
330
17
102
}
330
17
100
AcDbMlineStyle
  2
Standard
 70
     0
  3

 62
   256
 51
90.0
 52
90.0
 71
     2
 49
0.5
 62
   256
  6
BYLAYER
 49
-0.5
 62
   256
  6
BYLAYER
  0
ACDBPLACEHOLDER
  5
F
102
{ACAD_REACTORS
330
E
102
}
330
E
  0
SCALE
  5
40BE
102
{ACAD_REACTORS
330
40BD
102
}
330
40BD
100
AcDbScale
 70
     0
300
1:1
140
1.0
141
1.0
290
     1
  0
SCALE
  5
40BF
102
{ACAD_REACTORS
330
40BD
102
}
330
40BD
100
AcDbScale
 70
     0
300
1:2
140
1.0
141
2.0
290
     0
  0
SCALE
  5
40C0
102
{ACAD_REACTORS
330
40BD
102
}
330
40BD
100
AcDbScale
 70
     0
300
1:4
140
1.0
141
4.0
290
     0
  0
SCALE
  5
40C1
102
{ACAD_REACTORS
330
40BD
102
}
330
40BD
100
AcDbScale
 70
     0
300
1:5
140
1.0
141
5.0
290
     0
  0
SCALE
  5
40C2
102
{ACAD_REACTORS
330
40BD
102
}
330
40BD
100
AcDbScale
 70
     0
300
1:8
140
1.0
141
8.0
290
     0
  0
SCALE
  5
40C3
102
{ACAD_REACTORS
330
40BD
102
}
330
40BD
100
AcDbScale
 70
     0
300
1:10
140
1.0
141
10.0
290
     0
  0
SCALE
  5
40C4
102
{ACAD_REACTORS
330
40BD
102
}
330
40BD
100
AcDbScale
 70
     0
300
1:16
140
1.0
141
16.0
290
     0
  0
SCALE
  5
40C5
102
{ACAD_REACTORS
330
40BD
102
}
330
40BD
100
AcDbScale
 70
     0
300
1:20
140
1.0
141
20.0
290
     0
  0
SCALE
  5
40C6
102
{ACAD_REACTORS
330
40BD
102
}
330
40BD
100
AcDbScale
 70
     0
300
1:30
140
1.0
141
30.0
290
     0
  0
SCALE
  5
40C7
102
{ACAD_REACTORS
330
40BD
102
}
330
40BD
100
AcDbScale
 70
     0
300
1:40
140
1.0
141
40.0
290
     0
  0
SCALE
  5
40C8
102
{ACAD_REACTORS
330
40BD
102
}
330
40BD
100
AcDbScale
 70
     0
300
1:50
140
1.0
141
50.0
290
     0
  0
SCALE
  5
40C9
102
{ACAD_REACTORS
330
40BD
102
}
330
40BD
100
AcDbScale
 70
     0
300
1:100
140
1.0
141
100.0
290
     0
  0
SCALE
  5
40CA
102
{ACAD_REACTORS
330
40BD
102
}
330
40BD
100
AcDbScale
 70
     0
300
2:1
140
2.0
141
1.0
290
     0
  0
SCALE
  5
40CB
102
{ACAD_REACTORS
330
40BD
102
}
330
40BD
100
AcDbScale
 70
     0
300
4:1
140
4.0
141
1.0
290
     0
  0
SCALE
  5
40CC
102
{ACAD_REACTORS
330
40BD
102
}
330
40BD
100
AcDbScale
 70
     0
300
8:1
140
8.0
141
1.0
290
     0
  0
SCALE
  5
40CD
102
{ACAD_REACTORS
330
40BD
102
}
330
40BD
100
AcDbScale
 70
     0
300
10:1
140
10.0
141
1.0
290
     0
  0
SCALE
  5
40CE
102
{ACAD_REACTORS
330
40BD
102
}
330
40BD
100
AcDbScale
 70
     0
300
100:1
140
100.0
141
1.0
290
     0
  0
SCALE
  5
40CF
102
{ACAD_REACTORS
330
40BD
102
}
330
40BD
100
AcDbScale
 70
     0
300
1/128" = 1'-0"
140
0.0078125
141
12.0
290
     0
  0
SCALE
  5
40D0
102
{ACAD_REACTORS
330
40BD
102
}
330
40BD
100
AcDbScale
 70
     0
300
1/64" = 1'-0"
140
0.015625
141
12.0
290
     0
  0
SCALE
  5
40D1
102
{ACAD_REACTORS
330
40BD
102
}
330
40BD
100
AcDbScale
 70
     0
300
1/32" = 1'-0"
140
0.03125
141
12.0
290
     0
  0
SCALE
  5
40D2
102
{ACAD_REACTORS
330
40BD
102
}
330
40BD
100
AcDbScale
 70
     0
300
1/16" = 1'-0"
140
0.0625
141
12.0
290
     0
  0
SCALE
  5
40D3
102
{ACAD_REACTORS
330
40BD
102
}
330
40BD
100
AcDbScale
 70
     0
300
3/32" = 1'-0"
140
0.09375
141
12.0
290
     0
  0
SCALE
  5
40D4
102
{ACAD_REACTORS
330
40BD
102
}
330
40BD
100
AcDbScale
 70
     0
300
1/8" = 1'-0"
140
0.125
141
12.0
290
     0
  0
SCALE
  5
40D5
102
{ACAD_REACTORS
330
40BD
102
}
330
40BD
100
AcDbScale
 70
     0
300
3/16" = 1'-0"
140
0.1875
141
12.0
290
     0
  0
SCALE
  5
40D6
102
{ACAD_REACTORS
330
40BD
102
}
330
40BD
100
AcDbScale
 70
     0
300
1/4" = 1'-0"
140
0.25
141
12.0
290
     0
  0
SCALE
  5
40D7
102
{ACAD_REACTORS
330
40BD
102
}
330
40BD
100
AcDbScale
 70
     0
300
3/8" = 1'-0"
140
0.375
141
12.0
290
     0
  0
SCALE
  5
40D8
102
{ACAD_REACTORS
330
40BD
102
}
330
40BD
100
AcDbScale
 70
     0
300
1/2" = 1'-0"
140
0.5
141
12.0
290
     0
  0
SCALE
  5
40D9
102
{ACAD_REACTORS
330
40BD
102
}
330
40BD
100
AcDbScale
 70
     0
300
3/4" = 1'-0"
140
0.75
141
12.0
290
     0
  0
SCALE
  5
40DA
102
{ACAD_REACTORS
330
40BD
102
}
330
40BD
100
AcDbScale
 70
     0
300
1" = 1'-0"
140
1.0
141
12.0
290
     0
  0
SCALE
  5
40DB
102
{ACAD_REACTORS
330
40BD
102
}
330
40BD
100
AcDbScale
 70
     0
300
1-1/2" = 1'-0"
140
1.5
141
12.0
290
     0
  0
SCALE
  5
40DC
102
{ACAD_REACTORS
330
40BD
102
}
330
40BD
100
AcDbScale
 70
     0
300
3" = 1'-0"
140
3.0
141
12.0
290
     0
  0
SCALE
  5
40DD
102
{ACAD_REACTORS
330
40BD
102
}
330
40BD
100
AcDbScale
 70
     0
300
6" = 1'-0"
140
6.0
141
12.0
290
     0
  0
SCALE
  5
40DE
102
{ACAD_REACTORS
330
40BD
102
}
330
40BD
100
AcDbScale
 70
     0
300
1'-0" = 1'-0"
140
12.0
141
12.0
290
     0
  0
TABLESTYLE
  5
40E9
102
{ACAD_REACTORS
330
40BB
102
}
102
{ACAD_XDICTIONARY
360
416E
102
}
330
40BB
100
AcDbTableStyle
  3
Standard
 70
     0
 71
     0
 40
0.06
 41
0.06
280
     0
281
     0
  7
Standard
140
4.5
170
     2
 62
     0
 63
   257
283
     0
 90
        4
 91
        0
  1

274
    -2
284
     1
 64
     0
275
    -2
285
     1
 65
     0
276
    -2
286
     1
 66
     0
277
    -2
287
     1
 67
     0
278
    -2
288
     1
 68
     0
279
    -2
289
     1
 69
     0
  7
Standard
140
6.0
170
     5
 62
     0
 63
   257
283
     0
 90
        4
 91
        0
  1

274
    -2
284
     1
 64
     0
275
    -2
285
     1
 65
     0
276
    -2
286
     1
 66
     0
277
    -2
287
     1
 67
     0
278
    -2
288
     1
 68
     0
279
    -2
289
     1
 69
     0
  7
Standard
140
4.5
170
     5
 62
     0
 63
   257
283
     0
 90
        4
 91
        0
  1

274
    -2
284
     1
 64
     0
275
    -2
285
     1
 65
     0
276
    -2
286
     1
 66
     0
277
    -2
287
     1
 67
     0
278
    -2
288
     1
 68
     0
279
    -2
289
     1
 69
     0
  0
VISUALSTYLE
  5
2F
102
{ACAD_REACTORS
330
2A
102
}
330
2A
100
AcDbVisualStyle
  2
2dWireframe
 70
     4
177
     2
291
     0
 71
     0
176
     1
 72
     2
176
     1
 73
     0
176
     1
 90
        0
176
     1
 40
-0.6
176
     1
 41
-30.0
176
     1
 62
     5
 63
     7
421
 16777215
176
     1
 74
     1
176
     1
 91
        4
176
     1
 64
     7
176
     1
 65
   257
176
     1
 75
     1
176
     1
175
     1
176
     1
 42
1.0
176
     1
 92
        0
176
     1
 66
   257
176
     1
 43
1.0
176
     1
 76
     1
176
     1
 77
     6
176
     1
 78
     2
176
     1
 67
     7
176
     1
 79
     5
176
     1
170
     0
176
     1
171
     0
176
     1
290
     0
176
     1
 93
        1
176
     1
 44
0.0
176
     1
173
     0
176
     1
  0
VISUALSTYLE
  5
31
102
{ACAD_REACTORS
330
2A
102
}
330
2A
100
AcDbVisualStyle
  2
3D Hidden
 70
     6
177
     2
291
     0
 71
     1
176
     1
 72
     2
176
     1
 73
     2
176
     1
 90
        0
176
     1
 40
-0.6
176
     1
 41
-30.0
176
     1
 62
     5
 63
     7
421
 16777215
176
     1
 74
     2
176
     1
 91
        2
176
     1
 64
     7
176
     1
 65
   257
176
     1
 75
     2
176
     1
175
     1
176
     1
 42
40.0
176
     1
 92
        0
176
     1
 66
   257
176
     1
 43
1.0
176
     1
 76
     1
176
     1
 77
     6
176
     1
 78
     2
176
     1
 67
     7
176
     1
 79
     3
176
     1
170
     0
176
     1
171
     0
176
     1
290
     0
176
     1
 93
        1
176
     1
 44
0.0
176
     1
173
     0
176
     1
  0
VISUALSTYLE
  5
30
102
{ACAD_REACTORS
330
2A
102
}
330
2A
100
AcDbVisualStyle
  2
3dWireframe
 70
     5
177
     2
291
     0
 71
     0
176
     1
 72
     2
176
     1
 73
     0
176
     1
 90
        0
176
     1
 40
-0.6
176
     1
 41
-30.0
176
     1
 62
     5
 63
     7
421
 16777215
176
     1
 74
     1
176
     1
 91
        4
176
     1
 64
     7
176
     1
 65
   257
176
     1
 75
     1
176
     1
175
     1
176
     1
 42
1.0
176
     1
 92
        0
176
     1
 66
   257
176
     1
 43
1.0
176
     1
 76
     1
176
     1
 77
     6
176
     1
 78
     2
176
     1
 67
     7
176
     1
 79
     5
176
     1
170
     0
176
     1
171
     0
176
     1
290
     0
176
     1
 93
        1
176
     1
 44
0.0
176
     1
173
     0
176
     1
  0
VISUALSTYLE
  5
32
102
{ACAD_REACTORS
330
2A
102
}
330
2A
100
AcDbVisualStyle
  2
Basic
 70
     7
177
     2
291
     1
 71
     1
176
     1
 72
     0
176
     1
 73
     1
176
     1
 90
        0
176
     1
 40
-0.6
176
     1
 41
-30.0
176
     1
 62
     5
 63
     7
421
 16777215
176
     1
 74
     0
176
     1
 91
        4
176
     1
 64
     7
176
     1
 65
   257
176
     1
 75
     1
176
     1
175
     1
176
     1
 42
1.0
176
     1
 92
        8
176
     1
 66
     7
176
     1
 43
1.0
176
     1
 76
     1
176
     1
 77
     6
176
     1
 78
     2
176
     1
 67
     7
176
     1
 79
     5
176
     1
170
     0
176
     1
171
     0
176
     1
290
     0
176
     1
 93
        1
176
     1
 44
0.0
176
     1
173
     0
176
     1
  0
VISUALSTYLE
  5
36
102
{ACAD_REACTORS
330
2A
102
}
330
2A
100
AcDbVisualStyle
  2
Brighten
 70
    12
177
     2
291
     1
 71
     2
176
     1
 72
     2
176
     1
 73
     0
176
     1
 90
        0
176
     1
 40
-0.6
176
     1
 41
-30.0
176
     1
 62
     5
 63
     7
421
 16777215
176
     1
 74
     1
176
     1
 91
        4
176
     1
 64
     7
176
     1
 65
   257
176
     1
 75
     1
176
     1
175
     1
176
     1
 42
1.0
176
     1
 92
        8
176
     1
 66
     7
176
     1
 43
1.0
176
     1
 76
     1
176
     1
 77
     6
176
     1
 78
     2
176
     1
 67
     7
176
     1
 79
     5
176
     1
170
     0
176
     1
171
     0
176
     1
290
     0
176
     1
 93
        1
176
     1
 44
50.0
176
     1
173
     0
176
     1
  0
VISUALSTYLE
  5
3A
102
{ACAD_REACTORS
330
2A
102
}
330
2A
100
AcDbVisualStyle
  2
ColorChange
 70
    16
177
     2
291
     1
 71
     2
176
     1
 72
     2
176
     1
 73
     3
176
     1
 90
        0
176
     1
 40
-0.6
176
     1
 41
-30.0
176
     1
 62
     5
 63
     8
421
  8421504
176
     1
 74
     1
176
     1
 91
        4
176
     1
 64
     7
176
     1
 65
   257
176
     1
 75
     1
176
     1
175
     1
176
     1
 42
1.0
176
     1
 92
        8
176
     1
 66
     8
424
  8421504
176
     1
 43
1.0
176
     1
 76
     1
176
     1
 77
     6
176
     1
 78
     2
176
     1
 67
     7
176
     1
 79
     5
176
     1
170
     0
176
     1
171
     0
176
     1
290
     0
176
     1
 93
        1
176
     1
 44
0.0
176
     1
173
     0
176
     1
  0
VISUALSTYLE
  5
34
102
{ACAD_REACTORS
330
2A
102
}
330
2A
100
AcDbVisualStyle
  2
Conceptual
 70
     9
177
     2
291
     0
 71
     3
176
     1
 72
     2
176
     1
 73
     0
176
     1
 90
        0
176
     1
 40
-0.6
176
     1
 41
-30.0
176
     1
 62
     5
 63
     7
421
 16777215
176
     1
 74
     2
176
     1
 91
        2
176
     1
 64
     7
176
     1
 65
   257
176
     1
 75
     1
176
     1
175
     1
176
     1
 42
40.0
176
     1
 92
        8
176
     1
 66
     7
176
     1
 43
1.0
176
     1
 76
     1
176
     1
 77
     6
176
     1
 78
     2
176
     1
 67
     7
176
     1
 79
     3
176
     1
170
     0
176
     1
171
     0
176
     1
290
     0
176
     1
 93
        1
176
     1
 44
0.0
176
     1
173
     0
176
     1
  0
VISUALSTYLE
  5
35
102
{ACAD_REACTORS
330
2A
102
}
330
2A
100
AcDbVisualStyle
  2
Dim
 70
    11
177
     2
291
     1
 71
     2
176
     1
 72
     2
176
     1
 73
     0
176
     1
 90
        0
176
     1
 40
-0.6
176
     1
 41
-30.0
176
     1
 62
     5
 63
     7
421
 16777215
176
     1
 74
     1
176
     1
 91
        4
176
     1
 64
     7
176
     1
 65
   257
176
     1
 75
     1
176
     1
175
     1
176
     1
 42
1.0
176
     1
 92
        8
176
     1
 66
     7
176
     1
 43
1.0
176
     1
 76
     1
176
     1
 77
     6
176
     1
 78
     2
176
     1
 67
     7
176
     1
 79
     5
176
     1
170
     0
176
     1
171
     0
176
     1
290
     0
176
     1
 93
        1
176
     1
 44
-50.0
176
     1
173
     0
176
     1
  0
VISUALSTYLE
  5
40E3
102
{ACAD_REACTORS
330
2A
102
}
330
2A
100
AcDbVisualStyle
  2
EdgeColorOff
 70
    22
177
     2
291
     1
 71
     2
176
     0
 72
     2
176
     0
 73
     0
176
     0
 90
        0
176
     0
 40
0.6
176
     0
 41
30.0
176
     0
 62
     5
 63
     7
421
 16777215
176
     0
 74
     1
176
     0
 91
        4
176
     0
 64
     7
176
     0
 65
   257
176
     0
 75
     1
176
     0
175
     1
176
     0
 42
1.0
176
     0
 92
        8
176
     2
 66
     7
176
     0
 43
1.0
176
     0
 76
     1
176
     0
 77
     6
176
     0
 78
     2
176
     0
 67
     7
176
     0
 79
     5
176
     0
170
     0
176
     0
171
     0
176
     0
290
     0
176
     0
 93
        1
176
     0
 44
0.0
176
     0
173
     0
176
     0
  0
VISUALSTYLE
  5
39
102
{ACAD_REACTORS
330
2A
102
}
330
2A
100
AcDbVisualStyle
  2
Facepattern
 70
    15
177
     2
291
     1
 71
     2
176
     1
 72
     2
176
     1
 73
     0
176
     1
 90
        0
176
     1
 40
-0.6
176
     1
 41
-30.0
176
     1
 62
     5
 63
     7
421
 16777215
176
     1
 74
     1
176
     1
 91
        4
176
     1
 64
     7
176
     1
 65
   257
176
     1
 75
     1
176
     1
175
     1
176
     1
 42
1.0
176
     1
 92
        8
176
     1
 66
     7
176
     1
 43
1.0
176
     1
 76
     1
176
     1
 77
     6
176
     1
 78
     2
176
     1
 67
     7
176
     1
 79
     5
176
     1
170
     0
176
     1
171
     0
176
     1
290
     0
176
     1
 93
        1
176
     1
 44
0.0
176
     1
173
     0
176
     1
  0
VISUALSTYLE
  5
2B
102
{ACAD_REACTORS
330
2A
102
}
330
2A
100
AcDbVisualStyle
  2
Flat
 70
     0
177
     2
291
     1
 71
     2
176
     1
 72
     1
176
     1
 73
     1
176
     1
 90
        2
176
     1
 40
-0.6
176
     1
 41
30.0
176
     1
 62
     5
 63
     7
421
 16777215
176
     1
 74
     0
176
     1
 91
        4
176
     1
 64
     7
176
     1
 65
   257
176
     1
 75
     1
176
     1
175
     1
176
     1
 42
1.0
176
     1
 92
        8
176
     1
 66
     7
176
     1
 43
1.0
176
     1
 76
     1
176
     1
 77
     6
176
     1
 78
     2
176
     1
 67
     7
176
     1
 79
     5
176
     1
170
     0
176
     1
171
     0
176
     1
290
     0
176
     1
 93
       13
176
     1
 44
0.0
176
     1
173
     0
176
     1
  0
VISUALSTYLE
  5
2C
102
{ACAD_REACTORS
330
2A
102
}
330
2A
100
AcDbVisualStyle
  2
FlatWithEdges
 70
     1
177
     2
291
     1
 71
     2
176
     1
 72
     1
176
     1
 73
     1
176
     1
 90
        2
176
     1
 40
-0.6
176
     1
 41
30.0
176
     1
 62
     5
 63
     7
421
 16777215
176
     1
 74
     1
176
     1
 91
        4
176
     1
 64
     7
176
     1
 65
   257
176
     1
 75
     1
176
     1
175
     1
176
     1
 42
1.0
176
     1
 92
        0
176
     1
 66
   257
176
     1
 43
1.0
176
     1
 76
     1
176
     1
 77
     6
176
     1
 78
     2
176
     1
 67
     7
176
     1
 79
     5
176
     1
170
     0
176
     1
171
     0
176
     1
290
     0
176
     1
 93
       13
176
     1
 44
0.0
176
     1
173
     0
176
     1
  0
VISUALSTYLE
  5
2D
102
{ACAD_REACTORS
330
2A
102
}
330
2A
100
AcDbVisualStyle
  2
Gouraud
 70
     2
177
     2
291
     1
 71
     2
176
     1
 72
     2
176
     1
 73
     1
176
     1
 90
        2
176
     1
 40
-0.6
176
     1
 41
30.0
176
     1
 62
     5
 63
     7
421
 16777215
176
     1
 74
     0
176
     1
 91
        4
176
     1
 64
     7
176
     1
 65
   257
176
     1
 75
     1
176
     1
175
     1
176
     1
 42
1.0
176
     1
 92
        0
176
     1
 66
     7
176
     1
 43
1.0
176
     1
 76
     1
176
     1
 77
     6
176
     1
 78
     2
176
     1
 67
     7
176
     1
 79
     5
176
     1
170
     0
176
     1
171
     0
176
     1
290
     0
176
     1
 93
       13
176
     1
 44
0.0
176
     1
173
     0
176
     1
  0
VISUALSTYLE
  5
2E
102
{ACAD_REACTORS
330
2A
102
}
330
2A
100
AcDbVisualStyle
  2
GouraudWithEdges
 70
     3
177
     2
291
     1
 71
     2
176
     1
 72
     2
176
     1
 73
     1
176
     1
 90
        2
176
     1
 40
-0.6
176
     1
 41
30.0
176
     1
 62
     5
 63
     7
421
 16777215
176
     1
 74
     1
176
     1
 91
        4
176
     1
 64
     7
176
     1
 65
   257
176
     1
 75
     1
176
     1
175
     1
176
     1
 42
1.0
176
     1
 92
        0
176
     1
 66
   257
176
     1
 43
1.0
176
     1
 76
     1
176
     1
 77
     6
176
     1
 78
     2
176
     1
 67
     7
176
     1
 79
     5
176
     1
170
     0
176
     1
171
     0
176
     1
290
     0
176
     1
 93
       13
176
     1
 44
0.0
176
     1
173
     0
176
     1
  0
VISUALSTYLE
  5
40E0
102
{ACAD_REACTORS
330
2A
102
}
330
2A
100
AcDbVisualStyle
  2
Hidden
 70
     6
177
     2
291
     0
 71
     1
176
     1
 72
     2
176
     1
 73
     2
176
     1
 90
        0
176
     1
 40
0.6
176
     1
 41
30.0
176
     1
 62
     5
 63
     7
421
 16777215
176
     1
 74
     2
176
     1
 91
        2
176
     1
 64
     7
176
     1
 65
   257
176
     1
 75
     2
176
     1
175
     1
176
     1
 42
40.0
176
     1
 92
        0
176
     1
 66
   257
176
     1
 43
1.0
176
     1
 76
     1
176
     1
 77
     6
176
     1
 78
     2
176
     1
 67
     7
176
     1
 79
     3
176
     1
170
     0
176
     1
171
     0
176
     1
290
     0
176
     1
 93
        1
176
     1
 44
0.0
176
     1
173
     0
176
     1
  0
VISUALSTYLE
  5
40E1
102
{ACAD_REACTORS
330
2A
102
}
330
2A
100
AcDbVisualStyle
  2
JitterOff
 70
    20
177
     2
291
     1
 71
     2
176
     0
 72
     2
176
     0
 73
     0
176
     0
 90
        0
176
     0
 40
0.6
176
     0
 41
30.0
176
     0
 62
     5
 63
     7
421
 16777215
176
     0
 74
     1
176
     0
 91
        4
176
     0
 64
     7
176
     0
 65
   257
176
     0
 75
     1
176
     0
175
     1
176
     0
 42
1.0
176
     0
 92
       10
176
     2
 66
     7
176
     0
 43
1.0
176
     0
 76
     1
176
     0
 77
     6
176
     0
 78
     2
176
     0
 67
     7
176
     0
 79
     5
176
     0
170
     0
176
     0
171
     0
176
     0
290
     0
176
     0
 93
        1
176
     0
 44
0.0
176
     0
173
     0
176
     0
  0
VISUALSTYLE
  5
38
102
{ACAD_REACTORS
330
2A
102
}
330
2A
100
AcDbVisualStyle
  2
Linepattern
 70
    14
177
     2
291
     1
 71
     2
176
     1
 72
     2
176
     1
 73
     0
176
     1
 90
        0
176
     1
 40
-0.6
176
     1
 41
-30.0
176
     1
 62
     5
 63
     7
421
 16777215
176
     1
 74
     1
176
     1
 91
        4
176
     1
 64
     7
176
     1
 65
   257
176
     1
 75
     7
176
     1
175
     7
176
     1
 42
1.0
176
     1
 92
        8
176
     1
 66
     7
176
     1
 43
1.0
176
     1
 76
     1
176
     1
 77
     6
176
     1
 78
     2
176
     1
 67
     7
176
     1
 79
     5
176
     1
170
     0
176
     1
171
     0
176
     1
290
     0
176
     1
 93
        1
176
     1
 44
0.0
176
     1
173
     0
176
     1
  0
VISUALSTYLE
  5
40E2
102
{ACAD_REACTORS
330
2A
102
}
330
2A
100
AcDbVisualStyle
  2
OverhangOff
 70
    21
177
     2
291
     1
 71
     2
176
     0
 72
     2
176
     0
 73
     0
176
     0
 90
        0
176
     0
 40
0.6
176
     0
 41
30.0
176
     0
 62
     5
 63
     7
421
 16777215
176
     0
 74
     1
176
     0
 91
        4
176
     0
 64
     7
176
     0
 65
   257
176
     0
 75
     1
176
     0
175
     1
176
     0
 42
1.0
176
     0
 92
        9
176
     2
 66
     7
176
     0
 43
1.0
176
     0
 76
     1
176
     0
 77
     6
176
     0
 78
     2
176
     0
 67
     7
176
     0
 79
     5
176
     0
170
     0
176
     0
171
     0
176
     0
290
     0
176
     0
 93
        1
176
     0
 44
0.0
176
     0
173
     0
176
     0
  0
VISUALSTYLE
  5
33
102
{ACAD_REACTORS
330
2A
102
}
330
2A
100
AcDbVisualStyle
  2
Realistic
 70
     8
177
     2
291
     0
 71
     2
176
     1
 72
     2
176
     1
 73
     0
176
     1
 90
        0
176
     1
 40
-0.6
176
     1
 41
-30.0
176
     1
 62
     5
 63
     7
421
 16777215
176
     1
 74
     1
176
     1
 91
        0
176
     1
 64
     7
176
     1
 65
   257
176
     1
 75
     1
176
     1
175
     1
176
     1
 42
1.0
176
     1
 92
        8
176
     1
 66
     8
424
  7895160
176
     1
 43
1.0
176
     1
 76
     1
176
     1
 77
     6
176
     1
 78
     2
176
     1
 67
     7
176
     1
 79
     5
176
     1
170
     0
176
     1
171
     0
176
     1
290
     0
176
     1
 93
       13
176
     1
 44
0.0
176
     1
173
     0
176
     1
  0
VISUALSTYLE
  5
40E8
102
{ACAD_REACTORS
330
2A
102
}
330
2A
100
AcDbVisualStyle
  2
Shaded
 70
    27
177
     2
291
     0
 71
     2
176
     1
 72
     2
176
     1
 73
     1
176
     1
 90
        2
176
     1
 40
0.6
176
     1
 41
30.0
176
     1
 62
     5
 63
     7
421
 16777215
176
     1
 74
     0
176
     1
 91
        4
176
     1
 64
     7
176
     1
 65
   257
176
     1
 75
     1
176
     1
175
     1
176
     1
 42
1.0
176
     1
 92
        8
176
     1
 66
   257
176
     1
 43
1.0
176
     1
 76
     1
176
     1
 77
     6
176
     1
 78
     2
176
     1
 67
     8
425
  7895160
176
     1
 79
     3
176
     1
170
     0
176
     1
171
     0
176
     1
290
     0
176
     1
 93
        5
176
     1
 44
0.0
176
     1
173
     0
176
     1
  0
VISUALSTYLE
  5
40E7
102
{ACAD_REACTORS
330
2A
102
}
330
2A
100
AcDbVisualStyle
  2
Shaded with edges
 70
    26
177
     2
291
     0
 71
     2
176
     1
 72
     2
176
     1
 73
     1
176
     1
 90
        2
176
     1
 40
0.6
176
     1
 41
30.0
176
     1
 62
     5
 63
     7
421
 16777215
176
     1
 74
     1
176
     1
 91
       10
176
     1
 64
     7
176
     1
 65
   257
176
     1
 75
     2
176
     1
175
     1
176
     1
 42
1.0
176
     1
 92
        8
176
     1
 66
   257
176
     1
 43
1.0
176
     1
 76
     1
176
     1
 77
     6
176
     1
 78
     2
176
     1
 67
     7
176
     1
 79
     3
176
     1
170
     0
176
     1
171
     0
176
     1
290
     0
176
     1
 93
        5
176
     1
 44
0.0
176
     1
173
     0
176
     1
  0
VISUALSTYLE
  5
40E4
102
{ACAD_REACTORS
330
2A
102
}
330
2A
100
AcDbVisualStyle
  2
Shades of Gray
 70
    23
177
     2
291
     0
 71
     2
176
     1
 72
     2
176
     1
 73
     3
176
     1
 90
        0
176
     1
 40
0.6
176
     1
 41
30.0
176
     1
 62
     5
 63
     7
421
 16777215
176
     1
 74
     2
176
     1
 91
        2
176
     1
 64
     7
176
     1
 65
     7
176
     1
 75
     1
176
     1
175
     1
176
     1
 42
40.0
176
     1
 92
        8
176
     1
 66
     7
176
     1
 43
1.0
176
     1
 76
     1
176
     1
 77
     6
176
     1
 78
     2
176
     1
 67
     7
176
     1
 79
     3
176
     1
170
     0
176
     1
171
     0
176
     1
290
     0
176
     1
 93
        1
176
     1
 44
0.0
176
     1
173
     0
176
     1
  0
VISUALSTYLE
  5
40E5
102
{ACAD_REACTORS
330
2A
102
}
330
2A
100
AcDbVisualStyle
  2
Sketchy
 70
    24
177
     2
291
     0
 71
     1
176
     1
 72
     2
176
     1
 73
     2
176
     1
 90
        0
176
     1
 40
0.6
176
     1
 41
30.0
176
     1
 62
     5
 63
     7
421
 16777215
176
     1
 74
     2
176
     1
 91
        2
176
     1
 64
     7
176
     1
 65
     7
176
     1
 75
     1
176
     1
175
     1
176
     1
 42
40.0
176
     1
 92
       11
176
     1
 66
     7
176
     1
 43
1.0
176
     1
 76
     1
176
     1
 77
     6
176
     1
 78
     2
176
     1
 67
     7
176
     1
 79
     6
176
     1
170
     0
176
     1
171
     0
176
     1
290
     0
176
     1
 93
        1
176
     1
 44
0.0
176
     1
173
     0
176
     1
  0
VISUALSTYLE
  5
37
102
{ACAD_REACTORS
330
2A
102
}
330
2A
100
AcDbVisualStyle
  2
Thicken
 70
    13
177
     2
291
     1
 71
     2
176
     1
 72
     2
176
     1
 73
     0
176
     1
 90
        0
176
     1
 40
-0.6
176
     1
 41
-30.0
176
     1
 62
     5
 63
     7
421
 16777215
176
     1
 74
     1
176
     1
 91
        4
176
     1
 64
     7
176
     1
 65
   257
176
     1
 75
     1
176
     1
175
     1
176
     1
 42
1.0
176
     1
 92
       12
176
     1
 66
     7
176
     1
 43
1.0
176
     1
 76
     1
176
     1
 77
     6
176
     1
 78
     2
176
     1
 67
     7
176
     1
 79
     5
176
     1
170
     0
176
     1
171
     0
176
     1
290
     0
176
     1
 93
        1
176
     1
 44
0.0
176
     1
173
     0
176
     1
  0
VISUALSTYLE
  5
40DF
102
{ACAD_REACTORS
330
2A
102
}
330
2A
100
AcDbVisualStyle
  2
Wireframe
 70
     5
177
     2
291
     0
 71
     0
176
     1
 72
     2
176
     1
 73
     0
176
     1
 90
        0
176
     1
 40
0.6
176
     1
 41
30.0
176
     1
 62
     5
 63
     7
421
 16777215
176
     1
 74
     1
176
     1
 91
        4
176
     1
 64
     7
176
     1
 65
   257
176
     1
 75
     1
176
     1
175
     1
176
     1
 42
1.0
176
     1
 92
        0
176
     1
 66
   257
176
     1
 43
1.0
176
     1
 76
     1
176
     1
 77
     6
176
     1
 78
     2
176
     1
 67
     7
176
     1
 79
     3
176
     1
170
     0
176
     1
171
     0
176
     1
290
     0
176
     1
 93
        1
176
     1
 44
0.0
176
     1
173
     0
176
     1
  0
VISUALSTYLE
  5
40E6
102
{ACAD_REACTORS
330
2A
102
}
330
2A
100
AcDbVisualStyle
  2
X-Ray
 70
    25
177
     2
291
     0
 71
     2
176
     1
 72
     2
176
     1
 73
     1
176
     1
 90
        1
176
     1
 40
0.5
176
     1
 41
30.0
176
     1
 62
     5
 63
     7
421
 16777215
176
     1
 74
     1
176
     1
 91
        0
176
     1
 64
     7
176
     1
 65
   257
176
     1
 75
     1
176
     1
175
     1
176
     1
 42
1.0
176
     1
 92
        8
176
     1
 66
     7
176
     1
 43
1.0
176
     1
 76
     1
176
     1
 77
     6
176
     1
 78
     2
176
     1
 67
     7
176
     1
 79
     3
176
     1
170
     0
176
     1
171
     0
176
     1
290
     0
176
     1
 93
       13
176
     1
 44
0.0
176
     1
173
     0
176
     1
  0
DICTIONARYVAR
  5
4128
102
{ACAD_REACTORS
330
4127
102
}
330
4127
100
DictionaryVariables
280
     0
  1
1:1
  0
DICTIONARYVAR
  5
412A
102
{ACAD_REACTORS
330
4127
102
}
330
4127
100
DictionaryVariables
280
     0
  1
Standard
  0
DICTIONARYVAR
  5
4129
102
{ACAD_REACTORS
330
4127
102
}
330
4127
100
DictionaryVariables
280
     0
  1
Standard
  0
XRECORD
  5
416B
102
{ACAD_REACTORS
330
40EE
102
}
330
40EE
100
AcDbXrecord
280
     1
 91
    67583
301

290
     0
302
GEOFENCE
330
10
 90
        8
 62
     5
370
     0
331
16
  1
Color_5
440
 33554687
440
 33554687
330
40
 90
        8
 62
     2
370
     0
331
16
  1
Color_2
440
 33554687
440
 33554687
330
44
 90
        8
 62
     3
370
     0
331
16
  1
Color_3
440
 33554687
440
 33554687
330
47
 90
        8
 62
     1
370
     0
331
16
  1
Color_1
440
 33554687
440
 33554687
330
4C
 90
        8
 62
   150
370
     0
331
16
  1
Color_150
440
 33554687
440
 33554687
330
54
 90
        8
 62
     1
370
     0
331
16
  1
Color_1
440
 33554687
440
 33554687
330
5A
 90
       12
 62
     6
370
     0
331
16
  1
Color_6
440
 33554687
440
 33554687
330
62
 90
       12
 62
     7
370
     0
331
16
  1
Color_7
440
 33554687
440
 33554687
330
64
 90
        8
 62
     4
370
     0
331
16
  1
Color_4
440
 33554687
440
 33554687
  0
DICTIONARY
  5
416E
330
40E9
100
AcDbDictionary
280
     1
281
     1
  3
ACAD_ROUNDTRIP_2008_TABLESTYLE_CELLSTYLEMAP
360
416F
  0
CELLSTYLEMAP
  5
416F
102
{ACAD_REACTORS
330
416E
102
}
330
416E
100
AcDbCellStyleMap
 90
        3
300
CELLSTYLE
  1
TABLEFORMAT_BEGIN
 90
        5
170
     1
 91
        0
 92
    32768
 62
   257
 93
        1
300
CONTENTFORMAT
  1
CONTENTFORMAT_BEGIN
 90
        0
 91
        0
 92
        4
 93
        0
300

 40
0.0
140
1.0
 94
        5
 62
     0
340
11
144
6.0
309
CONTENTFORMAT_END
171
     1
301
MARGIN
  1
CELLMARGIN_BEGIN
 40
1.5
 40
1.5
 40
1.5
 40
1.5
 40
1.5
 40
1.5
309
CELLMARGIN_END
 94
        6
 95
        1
302
GRIDFORMAT
  1
GRIDFORMAT_BEGIN
 90
        0
 91
        1
 62
     0
 92
       -2
340
14
 93
        0
 40
0.045
309
GRIDFORMAT_END
 95
        2
302
GRIDFORMAT
  1
GRIDFORMAT_BEGIN
 90
        0
 91
        1
 62
     0
 92
       -2
340
14
 93
        0
 40
0.045
309
GRIDFORMAT_END
 95
        4
302
GRIDFORMAT
  1
GRIDFORMAT_BEGIN
 90
        0
 91
        1
 62
     0
 92
       -2
340
14
 93
        0
 40
0.045
309
GRIDFORMAT_END
 95
        8
302
GRIDFORMAT
  1
GRIDFORMAT_BEGIN
 90
        0
 91
        1
 62
     0
 92
       -2
340
14
 93
        0
 40
0.045
309
GRIDFORMAT_END
 95
       16
302
GRIDFORMAT
  1
GRIDFORMAT_BEGIN
 90
        0
 91
        1
 62
     0
 92
       -2
340
14
 93
        0
 40
0.045
309
GRIDFORMAT_END
 95
       32
302
GRIDFORMAT
  1
GRIDFORMAT_BEGIN
 90
        0
 91
        1
 62
     0
 92
       -2
340
14
 93
        0
 40
0.045
309
GRIDFORMAT_END
309
TABLEFORMAT_END
  1
CELLSTYLE_BEGIN
 90
        1
 91
        1
300
_TITLE
309
CELLSTYLE_END
300
CELLSTYLE
  1
TABLEFORMAT_BEGIN
 90
        5
170
     1
 91
        0
 92
        0
 62
   257
 93
        1
300
CONTENTFORMAT
  1
CONTENTFORMAT_BEGIN
 90
        0
 91
        0
 92
        4
 93
        0
300

 40
0.0
140
1.0
 94
        5
 62
     0
340
11
144
4.5
309
CONTENTFORMAT_END
171
     1
301
MARGIN
  1
CELLMARGIN_BEGIN
 40
1.5
 40
1.5
 40
1.5
 40
1.5
 40
1.5
 40
1.5
309
CELLMARGIN_END
 94
        6
 95
        1
302
GRIDFORMAT
  1
GRIDFORMAT_BEGIN
 90
        0
 91
        1
 62
     0
 92
       -2
340
14
 93
        0
 40
0.045
309
GRIDFORMAT_END
 95
        2
302
GRIDFORMAT
  1
GRIDFORMAT_BEGIN
 90
        0
 91
        1
 62
     0
 92
       -2
340
14
 93
        0
 40
0.045
309
GRIDFORMAT_END
 95
        4
302
GRIDFORMAT
  1
GRIDFORMAT_BEGIN
 90
        0
 91
        1
 62
     0
 92
       -2
340
14
 93
        0
 40
0.045
309
GRIDFORMAT_END
 95
        8
302
GRIDFORMAT
  1
GRIDFORMAT_BEGIN
 90
        0
 91
        1
 62
     0
 92
       -2
340
14
 93
        0
 40
0.045
309
GRIDFORMAT_END
 95
       16
302
GRIDFORMAT
  1
GRIDFORMAT_BEGIN
 90
        0
 91
        1
 62
     0
 92
       -2
340
14
 93
        0
 40
0.045
309
GRIDFORMAT_END
 95
       32
302
GRIDFORMAT
  1
GRIDFORMAT_BEGIN
 90
        0
 91
        1
 62
     0
 92
       -2
340
14
 93
        0
 40
0.045
309
GRIDFORMAT_END
309
TABLEFORMAT_END
  1
CELLSTYLE_BEGIN
 90
        2
 91
        1
300
_HEADER
309
CELLSTYLE_END
300
CELLSTYLE
  1
TABLEFORMAT_BEGIN
 90
        5
170
     1
 91
        0
 92
        0
 62
   257
 93
        1
300
CONTENTFORMAT
  1
CONTENTFORMAT_BEGIN
 90
        0
 91
        0
 92
        4
 93
        0
300

 40
0.0
140
1.0
 94
        2
 62
     0
340
11
144
4.5
309
CONTENTFORMAT_END
171
     1
301
MARGIN
  1
CELLMARGIN_BEGIN
 40
1.5
 40
1.5
 40
1.5
 40
1.5
 40
1.5
 40
1.5
309
CELLMARGIN_END
 94
        6
 95
        1
302
GRIDFORMAT
  1
GRIDFORMAT_BEGIN
 90
        0
 91
        1
 62
     0
 92
       -2
340
14
 93
        0
 40
0.045
309
GRIDFORMAT_END
 95
        2
302
GRIDFORMAT
  1
GRIDFORMAT_BEGIN
 90
        0
 91
        1
 62
     0
 92
       -2
340
14
 93
        0
 40
0.045
309
GRIDFORMAT_END
 95
        4
302
GRIDFORMAT
  1
GRIDFORMAT_BEGIN
 90
        0
 91
        1
 62
     0
 92
       -2
340
14
 93
        0
 40
0.045
309
GRIDFORMAT_END
 95
        8
302
GRIDFORMAT
  1
GRIDFORMAT_BEGIN
 90
        0
 91
        1
 62
     0
 92
       -2
340
14
 93
        0
 40
0.045
309
GRIDFORMAT_END
 95
       16
302
GRIDFORMAT
  1
GRIDFORMAT_BEGIN
 90
        0
 91
        1
 62
     0
 92
       -2
340
14
 93
        0
 40
0.045
309
GRIDFORMAT_END
 95
       32
302
GRIDFORMAT
  1
GRIDFORMAT_BEGIN
 90
        0
 91
        1
 62
     0
 92
       -2
340
14
 93
        0
 40
0.045
309
GRIDFORMAT_END
309
TABLEFORMAT_END
  1
CELLSTYLE_BEGIN
 90
        3
 91
        2
300
_DATA
309
CELLSTYLE_END
  0
ENDSEC
  0
EOF
