  0
SECTION
  2
HEADER
  9
$ACADVER
  1
AC1024
  9
$ACADMAINTVER
 70
     6
  9
$DWGCODEPAGE
  3
ANSI_1252
  9
$LASTSAVEDBY
  1
mehme
  9
$INSBASE
 10
0.0
 20
0.0
 30
0.0
  9
$EXTMIN
 10
649704.1127090688
 20
4146989.477599481
 30
2643.580078125
  9
$EXTMAX
 10
649756.430197147
 20
4147156.022999999
 30
2654.05810546875
  9
$LIMMIN
 10
0.0
 20
0.0
  9
$LIMMAX
 10
420.0
 20
297.0
  9
$ORTHOMODE
 70
     0
  9
$REGENMODE
 70
     1
  9
$FILLMODE
 70
     1
  9
$QTEXTMODE
 70
     0
  9
$MIRRTEXT
 70
     1
  9
$LTSCALE
 40
1.0
  9
$ATTMODE
 70
     1
  9
$TEXTSIZE
 40
2.5
  9
$TRACEWID
 40
1.0
  9
$TEXTSTYLE
  7
Standard
  9
$CLAYER
  8
INIT_COORD
  9
$CELTYPE
  6
ByLayer
  9
$CECOLOR
 62
   256
  9
$CELTSCALE
 40
1.0
  9
$DISPSILH
 70
     0
  9
$DIMSCALE
 40
1.0
  9
$DIMASZ
 40
2.5
  9
$DIMEXO
 40
0.625
  9
$DIMDLI
 40
3.75
  9
$DIMRND
 40
0.0
  9
$DIMDLE
 40
0.0
  9
$DIMEXE
 40
1.25
  9
$DIMTP
 40
0.0
  9
$DIMTM
 40
0.0
  9
$DIMTXT
 40
2.5
  9
$DIMCEN
 40
2.5
  9
$DIMTSZ
 40
0.0
  9
$DIMTOL
 70
     0
  9
$DIMLIM
 70
     0
  9
$DIMTIH
 70
     0
  9
$DIMTOH
 70
     0
  9
$DIMSE1
 70
     0
  9
$DIMSE2
 70
     0
  9
$DIMTAD
 70
     1
  9
$DIMZIN
 70
     8
  9
$DIMBLK
  1

  9
$DIMASO
 70
     1
  9
$DIMSHO
 70
     1
  9
$DIMPOST
  1

  9
$DIMAPOST
  1

  9
$DIMALT
 70
     0
  9
$DIMALTD
 70
     3
  9
$DIMALTF
 40
0.03937007874016
  9
$DIMLFAC
 40
1.0
  9
$DIMTOFL
 70
     1
  9
$DIMTVP
 40
0.0
  9
$DIMTIX
 70
     0
  9
$DIMSOXD
 70
     0
  9
$DIMSAH
 70
     0
  9
$DIMBLK1
  1

  9
$DIMBLK2
  1

  9
$DIMSTYLE
  2
ISO-25
  9
$DIMCLRD
 70
     0
  9
$DIMCLRE
 70
     0
  9
$DIMCLRT
 70
     0
  9
$DIMTFAC
 40
1.0
  9
$DIMGAP
 40
0.625
  9
$DIMJUST
 70
     0
  9
$DIMSD1
 70
     0
  9
$DIMSD2
 70
     0
  9
$DIMTOLJ
 70
     0
  9
$DIMTZIN
 70
     8
  9
$DIMALTZ
 70
     0
  9
$DIMALTTZ
 70
     0
  9
$DIMUPT
 70
     0
  9
$DIMDEC
 70
     2
  9
$DIMTDEC
 70
     2
  9
$DIMALTU
 70
     2
  9
$DIMALTTD
 70
     3
  9
$DIMTXSTY
  7
Standard
  9
$DIMAUNIT
 70
     0
  9
$DIMADEC
 70
     0
  9
$DIMALTRND
 40
0.0
  9
$DIMAZIN
 70
     0
  9
$DIMDSEP
 70
    44
  9
$DIMATFIT
 70
     3
  9
$DIMFRAC
 70
     0
  9
$DIMLDRBLK
  1

  9
$DIMLUNIT
 70
     2
  9
$DIMLWD
 70
    -2
  9
$DIMLWE
 70
    -2
  9
$DIMTMOVE
 70
     0
  9
$DIMFXL
 40
1.0
  9
$DIMFXLON
 70
     0
  9
$DIMJOGANG
 40
0.7853981633974483
  9
$DIMTFILL
 70
     0
  9
$DIMTFILLCLR
 70
     0
  9
$DIMARCSYM
 70
     0
  9
$DIMLTYPE
  6

  9
$DIMLTEX1
  6

  9
$DIMLTEX2
  6

  9
$DIMTXTDIRECTION
 70
     0
  9
$LUNITS
 70
     2
  9
$LUPREC
 70
     4
  9
$SKETCHINC
 40
1.0
  9
$FILLETRAD
 40
10.0
  9
$AUNITS
 70
     0
  9
$AUPREC
 70
     0
  9
$MENU
  1
.
  9
$ELEVATION
 40
0.0
  9
$PELEVATION
 40
0.0
  9
$THICKNESS
 40
0.0
  9
$LIMCHECK
 70
     0
  9
$CHAMFERA
 40
10.0
  9
$CHAMFERB
 40
10.0
  9
$CHAMFERC
 40
20.0
  9
$CHAMFERD
 40
0.0
  9
$SKPOLY
 70
     0
  9
$TDCREATE
 40
2457893.7154911
  9
$TDUCREATE
 40
2457893.5904911
  9
$TDUPDATE
 40
2457898.382729757
  9
$TDUUPDATE
 40
2457898.257729757
  9
$TDINDWG
 40
0.0120296296
  9
$TDUSRTIMER
 40
2457898.23414162
  9
$USRTIMER
 70
     1
  9
$ANGBASE
 50
0.0
  9
$ANGDIR
 70
     0
  9
$PDMODE
 70
     0
  9
$PDSIZE
 40
0.0
  9
$PLINEWID
 40
0.0
  9
$SPLFRAME
 70
     0
  9
$SPLINETYPE
 70
     6
  9
$SPLINESEGS
 70
     8
  9
$HANDSEED
  5
1B6B
  9
$SURFTAB1
 70
     6
  9
$SURFTAB2
 70
     6
  9
$SURFTYPE
 70
     6
  9
$SURFU
 70
     6
  9
$SURFV
 70
     6
  9
$UCSBASE
  2

  9
$UCSNAME
  2

  9
$UCSORG
 10
0.0
 20
0.0
 30
0.0
  9
$UCSXDIR
 10
1.0
 20
0.0
 30
0.0
  9
$UCSYDIR
 10
0.0
 20
1.0
 30
0.0
  9
$UCSORTHOREF
  2

  9
$UCSORTHOVIEW
 70
     1
  9
$UCSORGTOP
 10
0.0
 20
0.0
 30
0.0
  9
$UCSORGBOTTOM
 10
0.0
 20
0.0
 30
0.0
  9
$UCSORGLEFT
 10
0.0
 20
0.0
 30
0.0
  9
$UCSORGRIGHT
 10
0.0
 20
0.0
 30
0.0
  9
$UCSORGFRONT
 10
0.0
 20
0.0
 30
0.0
  9
$UCSORGBACK
 10
0.0
 20
0.0
 30
0.0
  9
$PUCSBASE
  2

  9
$PUCSNAME
  2

  9
$PUCSORG
 10
0.0
 20
0.0
 30
0.0
  9
$PUCSXDIR
 10
1.0
 20
0.0
 30
0.0
  9
$PUCSYDIR
 10
0.0
 20
1.0
 30
0.0
  9
$PUCSORTHOREF
  2

  9
$PUCSORTHOVIEW
 70
     0
  9
$PUCSORGTOP
 10
0.0
 20
0.0
 30
0.0
  9
$PUCSORGBOTTOM
 10
0.0
 20
0.0
 30
0.0
  9
$PUCSORGLEFT
 10
0.0
 20
0.0
 30
0.0
  9
$PUCSORGRIGHT
 10
0.0
 20
0.0
 30
0.0
  9
$PUCSORGFRONT
 10
0.0
 20
0.0
 30
0.0
  9
$PUCSORGBACK
 10
0.0
 20
0.0
 30
0.0
  9
$USERI1
 70
     0
  9
$USERI2
 70
     0
  9
$USERI3
 70
     0
  9
$USERI4
 70
     0
  9
$USERI5
 70
     0
  9
$USERR1
 40
0.0
  9
$USERR2
 40
0.0
  9
$USERR3
 40
0.0
  9
$USERR4
 40
0.0
  9
$USERR5
 40
0.0
  9
$WORLDVIEW
 70
     1
  9
$SHADEDGE
 70
     3
  9
$SHADEDIF
 70
    70
  9
$TILEMODE
 70
     1
  9
$MAXACTVP
 70
    64
  9
$PINSBASE
 10
0.0
 20
0.0
 30
0.0
  9
$PLIMCHECK
 70
     0
  9
$PEXTMIN
 10
1.000000000000000E+20
 20
1.000000000000000E+20
 30
1.000000000000000E+20
  9
$PEXTMAX
 10
-1.000000000000000E+20
 20
-1.000000000000000E+20
 30
-1.000000000000000E+20
  9
$PLIMMIN
 10
0.0
 20
0.0
  9
$PLIMMAX
 10
0.0
 20
0.0
  9
$UNITMODE
 70
     0
  9
$VISRETAIN
 70
     1
  9
$PLINEGEN
 70
     0
  9
$PSLTSCALE
 70
     1
  9
$TREEDEPTH
 70
  3020
  9
$CMLSTYLE
  2
Standard
  9
$CMLJUST
 70
     0
  9
$CMLSCALE
 40
20.0
  9
$PROXYGRAPHICS
 70
     1
  9
$MEASUREMENT
 70
     1
  9
$CELWEIGHT
370
    -1
  9
$ENDCAPS
280
     0
  9
$JOINSTYLE
280
     0
  9
$LWDISPLAY
290
     0
  9
$INSUNITS
 70
     4
  9
$HYPERLINKBASE
  1

  9
$STYLESHEET
  1

  9
$XEDIT
290
     1
  9
$CEPSNTYPE
380
     0
  9
$PSTYLEMODE
290
     1
  9
$FINGERPRINTGUID
  2
{088997EC-D195-4408-BC56-737D538F035C}
  9
$VERSIONGUID
  2
{F138C7CA-CB91-4738-A6B1-A8A03F96DDE8}
  9
$EXTNAMES
290
     1
  9
$PSVPSCALE
 40
0.0
  9
$OLESTARTUP
290
     0
  9
$SORTENTS
280
   127
  9
$INDEXCTL
280
     0
  9
$HIDETEXT
280
     1
  9
$XCLIPFRAME
280
     0
  9
$HALOGAP
280
     0
  9
$OBSCOLOR
 70
   257
  9
$OBSLTYPE
280
     0
  9
$INTERSECTIONDISPLAY
280
     0
  9
$INTERSECTIONCOLOR
 70
   257
  9
$DIMASSOC
280
     2
  9
$PROJECTNAME
  1

  9
$CAMERADISPLAY
290
     0
  9
$LENSLENGTH
 40
50.0
  9
$CAMERAHEIGHT
 40
0.0
  9
$STEPSPERSEC
 40
2.0
  9
$STEPSIZE
 40
6.0
  9
$3DDWFPREC
 40
2.0
  9
$PSOLWIDTH
 40
0.25
  9
$PSOLHEIGHT
 40
4.0
  9
$LOFTANG1
 40
1.570796326794895
  9
$LOFTANG2
 40
1.570796326794895
  9
$LOFTMAG1
 40
0.0
  9
$LOFTMAG2
 40
0.0
  9
$LOFTPARAM
 70
     7
  9
$LOFTNORMALS
280
     1
  9
$LATITUDE
 40
37.795
  9
$LONGITUDE
 40
-122.394
  9
$NORTHDIRECTION
 40
0.0
  9
$TIMEZONE
 70
 -8000
  9
$LIGHTGLYPHDISPLAY
280
     1
  9
$TILEMODELIGHTSYNCH
280
     1
  9
$CMATERIAL
347
3C
  9
$SOLIDHIST
280
     0
  9
$SHOWHIST
280
     1
  9
$DWFFRAME
280
     2
  9
$DGNFRAME
280
     0
  9
$REALWORLDSCALE
290
     1
  9
$INTERFERECOLOR
 62
     1
  9
$INTERFEREOBJVS
345
33
  9
$INTERFEREVPVS
346
1965
  9
$CSHADOW
280
     0
  9
$SHADOWPLANELOCATION
 40
0.0
  0
ENDSEC
  0
SECTION
  2
CLASSES
  0
CLASS
  1
ACDBDICTIONARYWDFLT
  2
AcDbDictionaryWithDefault
  3
ObjectDBX Classes
 90
        0
 91
        4
280
     0
281
     0
  0
CLASS
  1
VISUALSTYLE
  2
AcDbVisualStyle
  3
ObjectDBX Classes
 90
     4095
 91
        4
280
     0
281
     0
  0
CLASS
  1
MATERIAL
  2
AcDbMaterial
  3
ObjectDBX Classes
 90
     1153
 91
        4
280
     0
281
     0
  0
CLASS
  1
SCALE
  2
AcDbScale
  3
ObjectDBX Classes
 90
     1153
 91
        4
280
     0
281
     0
  0
CLASS
  1
DICTIONARYVAR
  2
AcDbDictionaryVar
  3
ObjectDBX Classes
 90
        0
 91
        4
280
     0
281
     0
  0
CLASS
  1
TABLESTYLE
  2
AcDbTableStyle
  3
ObjectDBX Classes
 90
     4095
 91
        4
280
     0
281
     0
  0
CLASS
  1
MLEADERSTYLE
  2
AcDbMLeaderStyle
  3
ACDB_MLEADERSTYLE_CLASS
 90
     4095
 91
        4
280
     0
281
     0
  0
CLASS
  1
ACDBSECTIONVIEWSTYLE
  2
AcDbSectionViewStyle
  3
ObjectDBX Classes
 90
     1025
 91
        4
280
     0
281
     0
  0
CLASS
  1
ACDBDETAILVIEWSTYLE
  2
AcDbDetailViewStyle
  3
ObjectDBX Classes
 90
     1025
 91
        4
280
     0
281
     0
  0
CLASS
  1
CELLSTYLEMAP
  2
AcDbCellStyleMap
  3
ObjectDBX Classes
 90
     1152
 91
        4
280
     0
281
     0
  0
CLASS
  1
SUN
  2
AcDbSun
  3
SCENEOE
 90
     1153
 91
        4
280
     0
281
     0
  0
CLASS
  1
RASTERVARIABLES
  2
AcDbRasterVariables
  3
ISM
 90
        0
 91
        4
280
     0
281
     0
  0
ENDSEC
  0
SECTION
  2
TABLES
  0
TABLE
  2
VPORT
  5
8
330
0
100
AcDbSymbolTable
 70
     1
  0
VPORT
  5
29
330
8
100
AcDbSymbolTableRecord
100
AcDbViewportTableRecord
  2
*Active
 70
     0
 10
0.0
 20
0.0
 11
1.0
 21
1.0
 12
741699.727939053
 22
4131336.0783403
 13
0.0
 23
0.0
 14
10.0
 24
10.0
 15
10.0
 25
10.0
 16
0.0
 26
0.0
 36
1.0
 17
-91978.1961647172
 27
15663.81916262861
 37
-40698.16504032782
 40
69.58133597321302
 41
2.379716981132075
 42
50.0
 43
0.0
 44
0.0
 50
0.0
 51
0.0
 71
    16
 72
   100
 73
     1
 74
     3
 75
     0
 76
     0
 77
     0
 78
     0
281
     0
 65
     1
110
0.0
120
0.0
130
0.0
111
1.0
121
0.0
131
0.0
112
0.0
122
1.0
132
0.0
 79
     1
146
0.0
348
2F
 60
     3
 61
     5
292
     1
282
     1
141
0.0
142
0.0
 63
   250
421
  3355443
361
1A46
1001
ACAD_NAV_VCDISPLAY
1070
     3
  0
ENDTAB
  0
TABLE
  2
LTYPE
  5
5
330
0
100
AcDbSymbolTable
 70
     1
  0
LTYPE
  5
14
330
5
100
AcDbSymbolTableRecord
100
AcDbLinetypeTableRecord
  2
ByBlock
 70
     0
  3

 72
    65
 73
     0
 40
0.0
  0
LTYPE
  5
15
330
5
100
AcDbSymbolTableRecord
100
AcDbLinetypeTableRecord
  2
ByLayer
 70
     0
  3

 72
    65
 73
     0
 40
0.0
  0
LTYPE
  5
16
330
5
100
AcDbSymbolTableRecord
100
AcDbLinetypeTableRecord
  2
Continuous
 70
     0
  3
Solid line
 72
    65
 73
     0
 40
0.0
  0
ENDTAB
  0
TABLE
  2
LAYER
  5
2
102
{ACAD_XDICTIONARY
360
1996
102
}
330
0
100
AcDbSymbolTable
 70
    14
  0
LAYER
  5
10
102
{ACAD_XDICTIONARY
360
197B
102
}
330
2
100
AcDbSymbolTableRecord
100
AcDbLayerTableRecord
  2
0
 70
     0
 62
     5
  6
Continuous
370
     0
390
F
347
3E
  0
LAYER
  5
3F
102
{ACAD_XDICTIONARY
360
197D
102
}
330
2
100
AcDbSymbolTableRecord
100
AcDbLayerTableRecord
  2
PERSONAL_TAKIP_SIS
 70
     0
 62
     1
  6
Continuous
370
     0
390
F
347
3E
  0
LAYER
  5
40
102
{ACAD_XDICTIONARY
360
197F
102
}
330
2
100
AcDbSymbolTableRecord
100
AcDbLayerTableRecord
  2
2680
 70
     0
 62
     6
  6
Continuous
370
     0
390
F
347
3E
  0
LAYER
  5
41
102
{ACAD_XDICTIONARY
360
1981
102
}
330
2
100
AcDbSymbolTableRecord
100
AcDbLayerTableRecord
  2
2650
 70
     0
 62
   151
  6
Continuous
370
     0
390
F
347
3E
  0
LAYER
  5
42
102
{ACAD_XDICTIONARY
360
1983
102
}
330
2
100
AcDbSymbolTableRecord
100
AcDbLayerTableRecord
  2
2590
 70
     0
 62
   132
  6
Continuous
370
     0
390
F
347
3E
  0
LAYER
  5
43
102
{ACAD_XDICTIONARY
360
1985
102
}
330
2
100
AcDbSymbolTableRecord
100
AcDbLayerTableRecord
  2
2640
 70
     4
 62
     1
  6
Continuous
370
     0
390
F
347
3E
  0
LAYER
  5
44
102
{ACAD_XDICTIONARY
360
1987
102
}
330
2
100
AcDbSymbolTableRecord
100
AcDbLayerTableRecord
  2
2635
 70
     0
 62
     3
  6
Continuous
370
     0
390
F
347
3E
  0
LAYER
  5
45
102
{ACAD_XDICTIONARY
360
1989
102
}
330
2
100
AcDbSymbolTableRecord
100
AcDbLayerTableRecord
  2
2614
 70
     0
 62
     6
  6
Continuous
370
     0
390
F
347
3E
  0
LAYER
  5
46
102
{ACAD_XDICTIONARY
360
198B
102
}
330
2
100
AcDbSymbolTableRecord
100
AcDbLayerTableRecord
  2
2661
 70
     0
 62
    30
  6
Continuous
370
     0
390
F
347
3E
  0
LAYER
  5
47
102
{ACAD_XDICTIONARY
360
198D
102
}
330
2
100
AcDbSymbolTableRecord
100
AcDbLayerTableRecord
  2
2564
 70
     0
 62
     3
  6
Continuous
370
     0
390
F
347
3E
  0
LAYER
  5
48
102
{ACAD_XDICTIONARY
360
198F
102
}
330
2
100
AcDbSymbolTableRecord
100
AcDbLayerTableRecord
  2
FERE
 70
     0
 62
     5
  6
Continuous
370
     0
390
F
347
3E
  0
LAYER
  5
49
102
{ACAD_XDICTIONARY
360
1991
102
}
330
2
100
AcDbSymbolTableRecord
100
AcDbLayerTableRecord
  2
2630
 70
     0
 62
     5
  6
Continuous
370
     0
390
F
347
3E
  0
LAYER
  5
1B31
330
2
100
AcDbSymbolTableRecord
100
AcDbLayerTableRecord
  2
GEOFENCE
 70
     0
 62
     3
  6
Continuous
370
     0
390
F
347
3E
1001
AcAecLayerStandard
1000

1000

  0
LAYER
  5
1B33
330
2
100
AcDbSymbolTableRecord
100
AcDbLayerTableRecord
  2
INIT_COORD
 70
     4
 62
     5
  6
Continuous
370
     0
390
F
347
3E
1001
AcAecLayerStandard
1000

1000

  0
ENDTAB
  0
TABLE
  2
STYLE
  5
3
330
0
100
AcDbSymbolTable
 70
     1
  0
STYLE
  5
11
330
3
100
AcDbSymbolTableRecord
100
AcDbTextStyleTableRecord
  2
Standard
 70
     0
 40
0.0
 41
1.0
 50
0.0
 71
     0
 42
2.5
  3
times.ttf
  4

1001
ACAD
1000
Times New Roman
1071
       18
  0
ENDTAB
  0
TABLE
  2
VIEW
  5
6
330
0
100
AcDbSymbolTable
 70
     0
  0
ENDTAB
  0
TABLE
  2
UCS
  5
7
330
0
100
AcDbSymbolTable
 70
     0
  0
ENDTAB
  0
TABLE
  2
APPID
  5
9
330
0
100
AcDbSymbolTable
 70
     4
  0
APPID
  5
12
330
9
100
AcDbSymbolTableRecord
100
AcDbRegAppTableRecord
  2
ACAD
 70
     0
  0
APPID
  5
199C
330
9
100
AcDbSymbolTableRecord
100
AcDbRegAppTableRecord
  2
ACAD_NAV_VCDISPLAY
 70
     0
  0
APPID
  5
1A3E
330
9
100
AcDbSymbolTableRecord
100
AcDbRegAppTableRecord
  2
ACAD_MLEADERVER
 70
     0
  0
APPID
  5
1B32
330
9
100
AcDbSymbolTableRecord
100
AcDbRegAppTableRecord
  2
AcAecLayerStandard
 70
     0
  0
ENDTAB
  0
TABLE
  2
DIMSTYLE
  5
A
330
0
100
AcDbSymbolTable
 70
     1
100
AcDbDimStyleTable
  0
DIMSTYLE
105
27
330
A
100
AcDbSymbolTableRecord
100
AcDbDimStyleTableRecord
  2
ISO-25
 70
     0
 41
2.5
 42
0.625
 43
3.75
 44
1.25
 73
     0
 74
     0
 77
     1
 78
     8
140
2.5
141
2.5
143
0.03937007874016
147
0.625
171
     3
172
     1
178
     0
271
     2
272
     2
274
     3
278
    44
283
     0
284
     8
340
11
  0
ENDTAB
  0
TABLE
  2
BLOCK_RECORD
  5
1
330
0
100
AcDbSymbolTable
 70
     1
  0
BLOCK_RECORD
  5
1F
330
1
100
AcDbSymbolTableRecord
100
AcDbBlockTableRecord
  2
*Model_Space
340
22
 70
     0
280
     1
281
     0
  0
BLOCK_RECORD
  5
1B
330
1
100
AcDbSymbolTableRecord
100
AcDbBlockTableRecord
  2
*Paper_Space
340
1E
 70
     0
280
     1
281
     0
  0
BLOCK_RECORD
  5
23
330
1
100
AcDbSymbolTableRecord
100
AcDbBlockTableRecord
  2
*Paper_Space0
340
26
 70
     0
280
     1
281
     0
  0
ENDTAB
  0
ENDSEC
  0
SECTION
  2
BLOCKS
  0
BLOCK
  5
20
330
1F
100
AcDbEntity
  8
0
100
AcDbBlockBegin
  2
*Model_Space
 70
     0
 10
0.0
 20
0.0
 30
0.0
  3
*Model_Space
  1

  0
ENDBLK
  5
21
330
1F
100
AcDbEntity
  8
0
100
AcDbBlockEnd
  0
BLOCK
  5
1C
330
1B
100
AcDbEntity
 67
     1
  8
0
100
AcDbBlockBegin
  2
*Paper_Space
 70
     0
 10
0.0
 20
0.0
 30
0.0
  3
*Paper_Space
  1

  0
ENDBLK
  5
1D
330
1B
100
AcDbEntity
 67
     1
  8
0
100
AcDbBlockEnd
  0
BLOCK
  5
24
330
23
100
AcDbEntity
  8
0
100
AcDbBlockBegin
  2
*Paper_Space0
 70
     0
 10
0.0
 20
0.0
 30
0.0
  3
*Paper_Space0
  1

  0
ENDBLK
  5
25
330
23
100
AcDbEntity
  8
0
100
AcDbBlockEnd
  0
ENDSEC
  0
SECTION
  2
ENTITIES
  0
LINE
  5
EEE
330
1F
100
AcDbEntity
  8
2640
370
     0
100
AcDbLine
 10
649714.13
 20
4146996.926999999
 30
2644.929931640625
 11
649714.501
 21
4147000.121999999
 31
2644.3779296875
  0
LINE
  5
EEF
330
1F
100
AcDbEntity
  8
2640
370
     0
100
AcDbLine
 10
649717.838
 20
4146998.46
 30
2644.69189453125
 11
649717.878
 21
4147001.759
 31
2644.806884765625
  0
POINT
  5
EF0
330
1F
100
AcDbEntity
  8
2640
370
     0
100
AcDbPoint
 10
649734.0022640222
 20
4147115.793
 30
2650.178955078125
  0
POINT
  5
EF1
330
1F
100
AcDbEntity
  8
2640
370
     0
100
AcDbPoint
 10
649726.6222640222
 20
4147109.967
 30
2650.31689453125
  0
LINE
  5
EF2
330
1F
100
AcDbEntity
  8
2640
370
     0
100
AcDbLine
 10
649714.7850000001
 20
4146994.788
 30
2644.325927734375
 11
649714.13
 21
4146996.926999999
 31
2644.929931640625
  0
POINT
  5
EF5
330
1F
100
AcDbEntity
  8
2640
370
     0
100
AcDbPoint
 10
649718.520942061
 20
4147045.236
 30
2649.498046875
  0
LINE
  5
EF6
330
1F
100
AcDbEntity
  8
2640
370
     0
100
AcDbLine
 10
649705.7316745793
 20
4146993.363805215
 30
2643.68798828125
 11
649714.7850000001
 21
4146994.788
 31
2644.325927734375
  0
LINE
  5
EF7
330
1F
100
AcDbEntity
  8
2640
370
     0
100
AcDbLine
 10
649718.43
 20
4146996.442
 30
2644.406982421875
 11
649718.994
 21
4146996.615
 31
2644.35595703125
  0
POINT
  5
EF8
330
1F
100
AcDbEntity
  8
2640
370
     0
100
AcDbPoint
 10
649722.272942061
 20
4147044.501
 30
2649.22607421875
  0
LINE
  5
EF9
330
1F
100
AcDbEntity
  8
2640
370
     0
100
AcDbLine
 10
649723.6856526297
 20
4147040.870438154
 30
2649.593505859375
 11
649721.6229420612
 21
4147041.122
 31
2649.43701171875
  0
LINE
  5
EFA
330
1F
100
AcDbEntity
  8
2640
370
     0
100
AcDbLine
 10
649730.1429420611
 20
4147041.586
 30
2649.824951171875
 11
649728.4545502499
 21
4147041.194506135
 31
2649.799560546875
  0
LINE
  5
EFC
330
1F
100
AcDbEntity
  8
2640
370
     0
100
AcDbLine
 10
649754.6673387282
 20
4147154.905999999
 30
2653.715087890625
 11
649754.8288173416
 21
4147156.022999999
 31
2654.05810546875
  0
POINT
  5
EFD
330
1F
100
AcDbEntity
  8
2640
370
     0
100
AcDbPoint
 10
649742.5628259239
 20
4147127.367
 30
2650.2119140625
  0
LINE
  5
EFE
330
1F
100
AcDbEntity
  8
2640
370
     0
100
AcDbLine
 10
649755.3023387283
 20
4147150.103999999
 30
2653.090087890625
 11
649754.0193387282
 21
4147150.016
 31
2652.865966796875
  0
LINE
  5
EFF
330
1F
100
AcDbEntity
  8
2640
370
     0
100
AcDbLine
 10
649753.0993387282
 20
4147153.695
 30
2653.221923828125
 11
649754.6673387282
 21
4147154.905999999
 31
2653.715087890625
  0
LINE
  5
F00
330
1F
100
AcDbEntity
  8
2640
370
     0
100
AcDbLine
 10
649729.008048007
 20
4147069.856166842
 30
2649.862548828125
 11
649729.0119999999
 21
4147068.879
 31
2649.943115234375
  0
POINT
  5
F01
330
1F
100
AcDbEntity
  8
2640
370
     0
100
AcDbPoint
 10
649721.6229420612
 20
4147041.122
 30
2649.43701171875
  0
POINT
  5
F02
330
1F
100
AcDbEntity
  8
2640
370
     0
100
AcDbPoint
 10
649730.1429420611
 20
4147041.586
 30
2649.824951171875
  0
POINT
  5
F03
330
1F
100
AcDbEntity
  8
2640
370
     0
100
AcDbPoint
 10
649723.8941598411
 20
4147055.718441921
 30
2649.376953125
  0
POINT
  5
F04
330
1F
100
AcDbEntity
  8
2640
370
     0
100
AcDbPoint
 10
649725.456
 20
4147090.335
 30
2648.822021484375
  0
POINT
  5
F05
330
1F
100
AcDbEntity
  8
2640
370
     0
100
AcDbPoint
 10
649725.6420000001
 20
4147087.223999999
 30
2648.50390625
  0
LINE
  5
F06
330
1F
100
AcDbEntity
  8
2640
370
     0
100
AcDbLine
 10
649725.456
 20
4147090.335
 30
2649.56298828125
 11
649725.4679362555
 21
4147090.135356499
 31
2649.498046875
  0
LINE
  5
F07
330
1F
100
AcDbEntity
  8
2640
370
     0
100
AcDbLine
 10
649725.5126972131
 20
4147089.386693386
 30
2649.56298828125
 11
649725.5246334685
 21
4147089.187049886
 31
2649.498046875
  0
LINE
  5
F08
330
1F
100
AcDbEntity
  8
2640
370
     0
100
AcDbLine
 10
649725.5693944262
 20
4147088.438386774
 30
2649.56298828125
 11
649725.5813306818
 21
4147088.238743275
 31
2649.498046875
  0
LINE
  5
F09
330
1F
100
AcDbEntity
  8
2640
370
     0
100
AcDbLine
 10
649725.6260916393
 20
4147087.490080162
 30
2649.56298828125
 11
649725.6380278948
 21
4147087.290436663
 31
2649.498046875
  0
POINT
  5
F0A
330
1F
100
AcDbEntity
  8
2640
370
     0
100
AcDbPoint
 10
649722.1280000001
 20
4147089.31
 30
2648.885009765625
  0
POINT
  5
F0B
330
1F
100
AcDbEntity
  8
2640
370
     0
100
AcDbPoint
 10
649722.536
 20
4147087.032
 30
2648.341064453125
  0
LINE
  5
F0C
330
1F
100
AcDbEntity
  8
2640
370
     0
100
AcDbLine
 10
649722.1280000001
 20
4147089.31
 30
2649.56298828125
 11
649722.1632598205
 21
4147089.113132668
 31
2649.498046875
  0
LINE
  5
F0D
330
1F
100
AcDbEntity
  8
2640
370
     0
100
AcDbLine
 10
649722.2954841458
 20
4147088.374880186
 30
2649.56298828125
 11
649722.3307439664
 21
4147088.178012855
 31
2649.498046875
  0
LINE
  5
F0E
330
1F
100
AcDbEntity
  8
2640
370
     0
100
AcDbLine
 10
649722.4629682917
 20
4147087.439760372
 30
2649.56298828125
 11
649722.4982281122
 21
4147087.24289304
 31
2649.498046875
  0
LINE
  5
F0F
330
1F
100
AcDbEntity
  8
2640
370
     0
100
AcDbLine
 10
649726.3622640223
 20
4147107.359
 30
2650.123046875
 11
649722.9660000002
 21
4147100.914
 31
2650.305908203125
  0
LINE
  5
F10
330
1F
100
AcDbEntity
  8
2640
370
     0
100
AcDbLine
 10
649721.9560000002
 20
4147094.818
 30
2649.243896484375
 11
649722.9660000002
 21
4147100.914
 31
2650.305908203125
  0
LINE
  5
F11
330
1F
100
AcDbEntity
  8
2640
370
     0
100
AcDbLine
 10
649727.3120000002
 20
4147102.745999999
 30
2650.06298828125
 11
649725.664
 21
4147095.017
 31
2649.215087890625
  0
LINE
  5
F12
330
1F
100
AcDbEntity
  8
2640
370
     0
100
AcDbLine
 10
649725.664
 20
4147095.017
 30
2649.215087890625
 11
649725.456
 21
4147090.335
 31
2648.822021484375
  0
LINE
  5
F13
330
1F
100
AcDbEntity
  8
2640
370
     0
100
AcDbLine
 10
649727.602
 20
4147103.130999999
 30
2650.133056640625
 11
649727.3120000002
 21
4147102.745999999
 31
2650.06298828125
  0
POINT
  5
F14
330
1F
100
AcDbEntity
  8
2640
370
     0
100
AcDbPoint
 10
649726.7705518157
 20
4147055.266199946
 30
2649.35693359375
  0
POINT
  5
F15
330
1F
100
AcDbEntity
  8
2640
370
     0
100
AcDbPoint
 10
649729.9690000002
 20
4147045.795
 30
2649.531005859375
  0
LINE
  5
F16
330
1F
100
AcDbEntity
  8
2640
370
     0
100
AcDbLine
 10
649722.1280000001
 20
4147089.31
 30
2648.885009765625
 11
649721.9560000002
 21
4147094.818
 31
2649.243896484375
  0
POINT
  5
F17
330
1F
100
AcDbEntity
  8
2640
370
     0
100
AcDbPoint
 10
649717.838
 20
4146998.46
 30
2644.69189453125
  0
POINT
  5
F18
330
1F
100
AcDbEntity
  8
2640
370
     0
100
AcDbPoint
 10
649718.43
 20
4146996.442
 30
2644.406982421875
  0
POINT
  5
F19
330
1F
100
AcDbEntity
  8
2640
370
     0
100
AcDbPoint
 10
649714.7850000001
 20
4146994.788
 30
2644.325927734375
  0
POINT
  5
F1A
330
1F
100
AcDbEntity
  8
2640
370
     0
100
AcDbPoint
 10
649714.13
 20
4146996.926999999
 30
2644.929931640625
  0
POINT
  5
F1B
330
1F
100
AcDbEntity
  8
2640
370
     0
100
AcDbPoint
 10
649717.878
 20
4147001.759
 30
2644.806884765625
  0
POINT
  5
F1C
330
1F
100
AcDbEntity
  8
2640
370
     0
100
AcDbPoint
 10
649714.501
 20
4147000.121999999
 30
2644.3779296875
  0
LINE
  5
F1D
330
1F
100
AcDbEntity
  8
2640
370
     0
100
AcDbLine
 10
649718.43
 20
4146996.442
 30
2644.406982421875
 11
649717.838
 21
4146998.46
 31
2644.69189453125
  0
POINT
  5
F1E
330
1F
100
AcDbEntity
  8
2640
370
     0
100
AcDbPoint
 10
649735.8130000001
 20
4147122.899
 30
2650.208984375
  0
POINT
  5
F1F
330
1F
100
AcDbEntity
  8
2640
370
     0
100
AcDbPoint
 10
649725.664
 20
4147095.017
 30
2649.215087890625
  0
POINT
  5
F20
330
1F
100
AcDbEntity
  8
2640
370
     0
100
AcDbPoint
 10
649725.456
 20
4147090.335
 30
2648.822021484375
  0
POINT
  5
F21
330
1F
100
AcDbEntity
  8
2640
370
     0
100
AcDbPoint
 10
649722.1280000001
 20
4147089.31
 30
2648.885009765625
  0
POINT
  5
F22
330
1F
100
AcDbEntity
  8
2640
370
     0
100
AcDbPoint
 10
649722.9660000002
 20
4147100.914
 30
2650.305908203125
  0
POINT
  5
F23
330
1F
100
AcDbEntity
  8
2640
370
     0
100
AcDbPoint
 10
649727.3120000002
 20
4147102.745999999
 30
2650.06298828125
  0
POINT
  5
F24
330
1F
100
AcDbEntity
  8
2640
370
     0
100
AcDbPoint
 10
649721.9560000002
 20
4147094.818
 30
2649.243896484375
  0
POINT
  5
F25
330
1F
100
AcDbEntity
  8
2640
370
     0
100
AcDbPoint
 10
649740.281
 20
4147127.232
 30
2650.2041015625
  0
LINE
  5
F26
330
1F
100
AcDbEntity
  8
2640
370
     0
100
AcDbLine
 10
649745.166
 20
4147141.568
 30
2651.0029296875
 11
649744.12
 21
4147136.825
 31
2649.669921875
  0
LINE
  5
F27
330
1F
100
AcDbEntity
  8
2640
370
     0
100
AcDbLine
 10
649739.026
 20
4147134.621
 30
2649.7900390625
 11
649743.246
 21
4147143.748999998
 31
2651.049072265625
  0
POINT
  5
F28
330
1F
100
AcDbEntity
  8
2640
370
     0
100
AcDbPoint
 10
649744.12
 20
4147136.825
 30
2649.669921875
  0
POINT
  5
F29
330
1F
100
AcDbEntity
  8
2640
370
     0
100
AcDbPoint
 10
649739.026
 20
4147134.621
 30
2649.7900390625
  0
POINT
  5
F2A
330
1F
100
AcDbEntity
  8
2640
370
     0
100
AcDbPoint
 10
649741.923
 20
4147131.38
 30
2649.493896484375
  0
LINE
  5
F2B
330
1F
100
AcDbEntity
  8
2640
370
     0
100
AcDbLine
 10
649735.6157119167
 20
4147122.179233142
 30
2650.105712890625
 11
649739.026
 21
4147134.621
 31
2649.7900390625
  0
LINE
  5
F2C
330
1F
100
AcDbEntity
  8
2640
370
     0
100
AcDbLine
 10
649741.923
 20
4147131.38
 30
2649.493896484375
 11
649739.147636408
 21
4147121.538
 31
2650.225341796875
  0
LINE
  5
F2D
330
1F
100
AcDbEntity
  8
2640
370
     0
100
AcDbLine
 10
649744.12
 20
4147136.825
 30
2649.669921875
 11
649741.923
 21
4147131.38
 31
2649.493896484375
  0
POINT
  5
F2E
330
1F
100
AcDbEntity
  8
2640
370
     0
100
AcDbPoint
 10
649756.430197147
 20
4147147.726
 30
2652.449951171875
  0
POINT
  5
F2F
330
1F
100
AcDbEntity
  8
2640
370
     0
100
AcDbPoint
 10
649728.8332640223
 20
4147114.355
 30
2650.132080078125
  0
POINT
  5
F30
330
1F
100
AcDbEntity
  8
2640
370
     0
100
AcDbPoint
 10
649739.8052640223
 20
4147122.196
 30
2650.1259765625
  0
POINT
  5
F31
330
1F
100
AcDbEntity
  8
2640
370
     0
100
AcDbPoint
 10
649705.1095065752
 20
4146989.545968199
 30
2643.7470703125
  0
POINT
  5
F32
330
1F
100
AcDbEntity
  8
2640
370
     0
100
AcDbPoint
 10
649704.1127090688
 20
4146989.477599481
 30
2643.580078125
  0
LINE
  5
F33
330
1F
100
AcDbEntity
  8
2640
370
     0
100
AcDbLine
 10
649705.1095065752
 20
4146989.545968199
 30
2649.56298828125
 11
649704.9099753553
 21
4146989.532282678
 31
2649.498046875
  0
LINE
  5
F34
330
1F
100
AcDbEntity
  8
2640
370
     0
100
AcDbLine
 10
649704.161733292
 20
4146989.480961972
 30
2649.56298828125
 11
649704.1127090688
 21
4146989.477599481
 31
2649.498046875
  0
POINT
  5
F35
330
1F
100
AcDbEntity
  8
2640
370
     0
100
AcDbPoint
 10
649733.6332640223
 20
4147115.466
 30
2650.10009765625
  0
POINT
  5
F36
330
1F
100
AcDbEntity
  8
2640
370
     0
100
AcDbPoint
 10
649731.1862640223
 20
4147112.742
 30
2650.113037109375
  0
POINT
  5
F37
330
1F
100
AcDbEntity
  8
2640
370
     0
100
AcDbPoint
 10
649732.1712640224
 20
4147118.025
 30
2650.116943359375
  0
POINT
  5
F3A
330
1F
100
AcDbEntity
  8
2640
370
     0
100
AcDbPoint
 10
649721.0553181157
 20
4146999.129025322
 30
2644.512451171875
  0
POINT
  5
F3B
330
1F
100
AcDbEntity
  8
2640
370
     0
100
AcDbPoint
 10
649722.1539999999
 20
4147000.468999999
 30
2644.595947265625
  0
POINT
  5
F3F
330
1F
100
AcDbEntity
  8
2640
370
     0
100
AcDbPoint
 10
649722.6639563066
 20
4146995.896961721
 30
2644.4609375
  0
POINT
  5
F40
330
1F
100
AcDbEntity
  8
2640
370
     0
100
AcDbPoint
 10
649724.6030000001
 20
4146997.643999999
 30
2644.7099609375
  0
POINT
  5
F44
330
1F
100
AcDbEntity
  8
2640
370
     0
100
AcDbPoint
 10
649723.091
 20
4147002.003999999
 30
2645.050048828125
  0
POINT
  5
F45
330
1F
100
AcDbEntity
  8
2640
370
     0
100
AcDbPoint
 10
649723.4550590317
 20
4147002.847284904
 30
2645.1396484375
  0
POINT
  5
F47
330
1F
100
AcDbEntity
  8
2640
370
     0
100
AcDbPoint
 10
649722.1539999999
 20
4147000.468999999
 30
2644.595947265625
  0
POINT
  5
F48
330
1F
100
AcDbEntity
  8
2640
370
     0
100
AcDbPoint
 10
649723.091
 20
4147002.003999999
 30
2645.050048828125
  0
POINT
  5
F4B
330
1F
100
AcDbEntity
  8
2640
370
     0
100
AcDbPoint
 10
649724.6030000001
 20
4146997.643999999
 30
2644.7099609375
  0
POINT
  5
F4C
330
1F
100
AcDbEntity
  8
2640
370
     0
100
AcDbPoint
 10
649725.2660320565
 20
4146999.158890036
 30
2644.886474609375
  0
LINE
  5
F54
330
1F
100
AcDbEntity
  8
2640
370
     0
100
AcDbLine
 10
649727.602
 20
4147103.130999999
 30
2650.133056640625
 11
649729.2552640224
 21
4147104.61
 31
2650.33203125
  0
POINT
  5
F55
330
1F
100
AcDbEntity
  8
2640
370
     0
100
AcDbPoint
 10
649754.8288173416
 20
4147156.022999999
 30
2654.05810546875
  0
POINT
  5
F56
330
1F
100
AcDbEntity
  8
2640
370
     0
100
AcDbPoint
 10
649727.602
 20
4147103.130999999
 30
2650.133056640625
  0
POINT
  5
F57
330
1F
100
AcDbEntity
  8
2640
370
     0
100
AcDbPoint
 10
649754.6673387282
 20
4147154.905999999
 30
2653.715087890625
  0
POINT
  5
F58
330
1F
100
AcDbEntity
  8
2640
370
     0
100
AcDbPoint
 10
649726.3622640223
 20
4147107.359
 30
2650.123046875
  0
POINT
  5
F59
330
1F
100
AcDbEntity
  8
2640
370
     0
100
AcDbPoint
 10
649740.2122640223
 20
4147126.555
 30
2650.029052734375
  0
POINT
  5
F5C
330
1F
100
AcDbEntity
  8
2640
370
     0
100
AcDbPoint
 10
649726.6432640223
 20
4147109.106
 30
2650.297119140625
  0
POINT
  5
F5D
330
1F
100
AcDbEntity
  8
2640
370
     0
100
AcDbPoint
 10
649727.2952640223
 20
4147111.729
 30
2650.2060546875
  0
POINT
  5
F5E
330
1F
100
AcDbEntity
  8
2640
370
     0
100
AcDbPoint
 10
649729.4742640223
 20
4147107.362999999
 30
2650.138916015625
  0
POINT
  5
F5F
330
1F
100
AcDbEntity
  8
2640
370
     0
100
AcDbPoint
 10
649728.985
 20
4147075.554999998
 30
2649.195068359375
  0
POINT
  5
F60
330
1F
100
AcDbEntity
  8
2640
370
     0
100
AcDbPoint
 10
649726.178
 20
4147074.839
 30
2649.242919921875
  0
POINT
  5
F61
330
1F
100
AcDbEntity
  8
2640
370
     0
100
AcDbPoint
 10
649726.827
 20
4147080.9
 30
2648.466064453125
  0
POINT
  5
F62
330
1F
100
AcDbEntity
  8
2640
370
     0
100
AcDbPoint
 10
649725.6389884433
 20
4147069.494893607
 30
2649.70703125
  0
POINT
  5
F63
330
1F
100
AcDbEntity
  8
2640
370
     0
100
AcDbPoint
 10
649731.5872640223
 20
4147113.136999999
 30
2650.035888671875
  0
POINT
  5
F64
330
1F
100
AcDbEntity
  8
2640
370
     0
100
AcDbPoint
 10
649729.0119999999
 20
4147068.879
 30
2649.943115234375
  0
POINT
  5
F65
330
1F
100
AcDbEntity
  8
2640
370
     0
100
AcDbPoint
 10
649723.8450000001
 20
4147080.834
 30
2648.4189453125
  0
LINE
  5
F66
330
1F
100
AcDbEntity
  8
2640
370
     0
100
AcDbLine
 10
649726.178
 20
4147074.839
 30
2649.242919921875
 11
649723.8450000001
 21
4147080.834
 31
2648.4189453125
  0
LINE
  5
F67
330
1F
100
AcDbEntity
  8
2640
370
     0
100
AcDbLine
 10
649723.8450000001
 20
4147080.834
 30
2648.4189453125
 11
649722.536
 21
4147087.032
 31
2648.341064453125
  0
POINT
  5
F68
330
1F
100
AcDbEntity
  8
2640
370
     0
100
AcDbPoint
 10
649725.6420000001
 20
4147087.223999999
 30
2648.50390625
  0
LINE
  5
F69
330
1F
100
AcDbEntity
  8
2640
370
     0
100
AcDbLine
 10
649725.6420000001
 20
4147087.223999999
 30
2649.56298828125
 11
649725.6788351858
 21
4147087.027421338
 31
2649.498046875
  0
LINE
  5
F6A
330
1F
100
AcDbEntity
  8
2640
370
     0
100
AcDbLine
 10
649725.8169671299
 20
4147086.290251366
 30
2649.56298828125
 11
649725.8538023157
 21
4147086.093672704
 31
2649.498046875
  0
LINE
  5
F6B
330
1F
100
AcDbEntity
  8
2640
370
     0
100
AcDbLine
 10
649725.9919342599
 20
4147085.356502733
 30
2649.56298828125
 11
649726.827
 21
4147080.9
 31
2649.195000000001
  0
LINE
  5
F6C
330
1F
100
AcDbEntity
  8
2640
370
     0
100
AcDbLine
 10
649725.6389884433
 20
4147069.494893607
 30
2649.70703125
 11
649726.178
 21
4147074.839
 31
2649.242919921875
  0
POINT
  5
F6D
330
1F
100
AcDbEntity
  8
2640
370
     0
100
AcDbPoint
 10
649722.536
 20
4147087.032
 30
2648.341064453125
  0
POINT
  5
F6E
330
1F
100
AcDbEntity
  8
2640
370
     0
100
AcDbPoint
 10
649725.6420000001
 20
4147087.223999999
 30
2648.50390625
  0
POINT
  5
F6F
330
1F
100
AcDbEntity
  8
2640
370
     0
100
AcDbPoint
 10
649724.147
 20
4147087.584
 30
2648.154052734375
  0
POINT
  5
F70
330
1F
100
AcDbEntity
  8
2640
370
     0
100
AcDbPoint
 10
649729.2552640224
 20
4147104.61
 30
2650.33203125
  0
LINE
  5
F71
330
1F
100
AcDbEntity
  8
2640
370
     0
100
AcDbLine
 10
649727.2952640223
 20
4147111.729
 30
2650.2060546875
 11
649726.6222640222
 21
4147109.967
 31
2650.31689453125
  0
LINE
  5
F72
330
1F
100
AcDbEntity
  8
2640
370
     0
100
AcDbLine
 10
649726.827
 20
4147080.9
 30
2648.466064453125
 11
649728.985
 21
4147075.554999998
 31
2649.195068359375
  0
LINE
  5
F76
330
1F
100
AcDbEntity
  8
2640
370
     0
100
AcDbLine
 10
649728.985
 20
4147075.554999998
 30
2649.195068359375
 11
649728.988497721
 21
4147074.690156107
 31
2649.84619140625
  0
LINE
  5
F77
330
1F
100
AcDbEntity
  8
2640
370
     0
100
AcDbLine
 10
649727.936
 20
4147064.091
 30
2650.14599609375
 11
649729.0119999999
 21
4147068.879
 31
2649.943115234375
  0
LINE
  5
F78
330
1F
100
AcDbEntity
  8
2640
370
     0
100
AcDbLine
 10
649725.381
 20
4147064.58
 30
2650.072998046875
 11
649725.6389884433
 21
4147069.494893607
 31
2649.70703125
  0
LINE
  5
F79
330
1F
100
AcDbEntity
  8
2640
370
     0
100
AcDbLine
 10
649732.1712640224
 20
4147118.025
 30
2650.116943359375
 11
649728.8332640223
 21
4147114.355
 31
2650.132080078125
  0
LINE
  5
F7A
330
1F
100
AcDbEntity
  8
2640
370
     0
100
AcDbLine
 10
649734.7162640223
 20
4147121.015
 30
2650.010009765625
 11
649732.1712640224
 21
4147118.025
 31
2650.116943359375
  0
LINE
  5
F7B
330
1F
100
AcDbEntity
  8
2640
370
     0
100
AcDbLine
 10
649735.6157119167
 20
4147122.179233142
 30
2650.105712890625
 11
649734.7162640223
 21
4147121.015
 31
2650.010009765625
  0
LINE
  5
F7C
330
1F
100
AcDbEntity
  8
2640
370
     0
100
AcDbLine
 10
649728.8332640223
 20
4147114.355
 30
2650.132080078125
 11
649727.2952640223
 21
4147111.729
 31
2650.2060546875
  0
POINT
  5
F7D
330
1F
100
AcDbEntity
  8
2640
370
     0
100
AcDbPoint
 10
649728.435
 20
4147045.827
 30
2649.637939453125
  0
LINE
  5
F81
330
1F
100
AcDbEntity
  8
2640
370
     0
100
AcDbLine
 10
649739.147636408
 20
4147121.538
 30
2650.216064453125
 11
649734.959
 21
4147116.233
 31
2649.87109375
  0
LINE
  5
F82
330
1F
100
AcDbEntity
  8
2640
370
     0
100
AcDbLine
 10
649727.5357001032
 20
4147061.125735779
 30
2649.701904296875
 11
649727.936
 21
4147064.091
 31
2650.14599609375
  0
LINE
  5
F83
330
1F
100
AcDbEntity
  8
2640
370
     0
100
AcDbLine
 10
649724.768
 20
4147061.548
 30
2649.701904296875
 11
649725.381
 21
4147064.58
 31
2650.072998046875
  0
POINT
  5
F84
330
1F
100
AcDbEntity
  8
2640
370
     0
100
AcDbPoint
 10
649727.936
 20
4147064.091
 30
2650.14599609375
  0
POINT
  5
F85
330
1F
100
AcDbEntity
  8
2640
370
     0
100
AcDbPoint
 10
649725.381
 20
4147064.58
 30
2650.072998046875
  0
POINT
  5
F86
330
1F
100
AcDbEntity
  8
2640
370
     0
100
AcDbPoint
 10
649726.3622640223
 20
4147107.359
 30
2650.24609375
  0
POINT
  5
F87
330
1F
100
AcDbEntity
  8
2640
370
     0
100
AcDbPoint
 10
649730.1902640224
 20
4147110.677
 30
2650.049072265626
  0
POINT
  5
F8A
330
1F
100
AcDbEntity
  8
2640
370
     0
100
AcDbPoint
 10
649736.2482640223
 20
4147122.998
 30
2650.173095703125
  0
POINT
  5
F8B
330
1F
100
AcDbEntity
  8
2640
370
     0
100
AcDbPoint
 10
649729.7792640222
 20
4147109.236
 30
2650.181884765625
  0
LINE
  5
F8C
330
1F
100
AcDbEntity
  8
2640
370
     0
100
AcDbLine
 10
649722.272942061
 20
4147044.501
 30
2649.22607421875
 11
649724.703
 21
4147044.829
 31
2649.27294921875
  0
LINE
  5
F8D
330
1F
100
AcDbEntity
  8
2640
370
     0
100
AcDbLine
 10
649729.9690000002
 20
4147045.795
 30
2649.531005859375
 11
649728.435
 21
4147045.827
 31
2649.637939453125
  0
LINE
  5
F8E
330
1F
100
AcDbEntity
  8
2640
370
     0
100
AcDbLine
 10
649726.7670000001
 20
4147055.239
 30
2649.554931640625
 11
649727.5357001032
 21
4147061.125735779
 31
2649.569091796875
  0
LINE
  5
F8F
330
1F
100
AcDbEntity
  8
2640
370
     0
100
AcDbLine
 10
649728.435
 20
4147045.827
 30
2649.637939453125
 11
649727.6460000001
 21
4147048.005
 31
2649.278076171875
  0
LINE
  5
F90
330
1F
100
AcDbEntity
  8
2640
370
     0
100
AcDbLine
 10
649727.6460000001
 20
4147048.005
 30
2649.278076171875
 11
649726.97
 21
4147052.851
 31
2649.60107421875
  0
LINE
  5
F91
330
1F
100
AcDbEntity
  8
2640
370
     0
100
AcDbLine
 10
649726.97
 20
4147052.851
 30
2649.60107421875
 11
649726.7670000001
 21
4147055.239
 31
2649.554931640625
  0
POINT
  5
F92
330
1F
100
AcDbEntity
  8
2640
370
     0
100
AcDbPoint
 10
649723.673
 20
4147053.639
 30
2649.5830078125
  0
POINT
  5
F93
330
1F
100
AcDbEntity
  8
2640
370
     0
100
AcDbPoint
 10
649724.247
 20
4147059.035999999
 30
2649.34912109375
  0
POINT
  5
F94
330
1F
100
AcDbEntity
  8
2640
370
     0
100
AcDbPoint
 10
649726.7670000001
 20
4147055.239
 30
2649.554931640625
  0
POINT
  5
F95
330
1F
100
AcDbEntity
  8
2640
370
     0
100
AcDbPoint
 10
649726.97
 20
4147052.851
 30
2649.60107421875
  0
POINT
  5
F96
330
1F
100
AcDbEntity
  8
2640
370
     0
100
AcDbPoint
 10
649724.703
 20
4147044.829
 30
2649.27294921875
  0
POINT
  5
F97
330
1F
100
AcDbEntity
  8
2640
370
     0
100
AcDbPoint
 10
649727.6460000001
 20
4147048.005
 30
2649.278076171875
  0
POINT
  5
F98
330
1F
100
AcDbEntity
  8
2640
370
     0
100
AcDbPoint
 10
649724.4540000001
 20
4147048.418
 30
2649.30908203125
  0
POINT
  5
F99
330
1F
100
AcDbEntity
  8
2640
370
     0
100
AcDbPoint
 10
649724.768
 20
4147061.548
 30
2649.701904296875
  0
LINE
  5
F9A
330
1F
100
AcDbEntity
  8
2640
370
     0
100
AcDbLine
 10
649724.247
 20
4147059.035999999
 30
2649.34912109375
 11
649723.673
 21
4147053.639
 31
2649.5830078125
  0
LINE
  5
F9B
330
1F
100
AcDbEntity
  8
2640
370
     0
100
AcDbLine
 10
649723.673
 20
4147053.639
 30
2649.5830078125
 11
649724.4540000001
 21
4147048.418
 31
2649.30908203125
  0
LINE
  5
F9C
330
1F
100
AcDbEntity
  8
2640
370
     0
100
AcDbLine
 10
649724.4540000001
 20
4147048.418
 30
2649.30908203125
 11
649724.703
 21
4147044.829
 31
2649.27294921875
  0
LINE
  5
F9D
330
1F
100
AcDbEntity
  8
2640
370
     0
100
AcDbLine
 10
649724.768
 20
4147061.548
 30
2649.701904296875
 11
649724.247
 21
4147059.035999999
 31
2649.34912109375
  0
POINT
  5
F9E
330
1F
100
AcDbEntity
  8
2640
370
     0
100
AcDbPoint
 10
649727.5357001032
 20
4147061.125735779
 30
2649.569091796875
  0
POINT
  5
F9F
330
1F
100
AcDbEntity
  8
2640
370
     0
100
AcDbPoint
 10
649745.166
 20
4147141.568
 30
2651.0029296875
  0
POINT
  5
FA0
330
1F
100
AcDbEntity
  8
2640
370
     0
100
AcDbPoint
 10
649743.246
 20
4147143.748999998
 30
2651.049072265625
  0
POINT
  5
FA1
330
1F
100
AcDbEntity
  8
2640
370
     0
100
AcDbPoint
 10
649730.8360000001
 20
4147069.108
 30
2649.7451171875
  0
POINT
  5
FA2
330
1F
100
AcDbEntity
  8
2640
370
     0
100
AcDbPoint
 10
649749.534
 20
4147146.740000001
 30
2652.319091796875
  0
LINE
  5
FA3
330
1F
100
AcDbEntity
  8
2640
370
     0
100
AcDbLine
 10
649720.06
 20
4146993.196
 30
2644.198974609375
 11
649720.927
 21
4146994.332
 31
2644.238037109375
  0
LINE
  5
FA4
330
1F
100
AcDbEntity
  8
2640
370
     0
100
AcDbLine
 10
649726.306
 20
4147001.535
 30
2645.1630859375
 11
649728.628
 21
4147006.637999998
 31
2645.7451171875
  0
POINT
  5
FA5
330
1F
100
AcDbEntity
  8
2640
370
     0
100
AcDbPoint
 10
649732.7590000001
 20
4147022.651
 30
2647.909912109375
  0
POINT
  5
FA6
330
1F
100
AcDbEntity
  8
2640
370
     0
100
AcDbPoint
 10
649728.696
 20
4147021.526
 30
2647.56005859375
  0
LINE
  5
FA7
330
1F
100
AcDbEntity
  8
2640
370
     0
100
AcDbLine
 10
649727.782
 20
4147015.271999999
 30
2646.840087890625
 11
649725.19
 21
4147006.866
 31
2645.56689453125
  0
LINE
  5
FA8
330
1F
100
AcDbEntity
  8
2640
370
     0
100
AcDbLine
 10
649728.696
 20
4147021.526
 30
2647.56005859375
 11
649727.782
 21
4147015.271999999
 31
2646.840087890625
  0
LINE
  5
FA9
330
1F
100
AcDbEntity
  8
2640
370
     0
100
AcDbLine
 10
649728.628
 20
4147006.637999998
 30
2645.7451171875
 11
649731.137
 21
4147014.572999998
 31
2646.798095703125
  0
POINT
  5
FAA
330
1F
100
AcDbEntity
  8
2640
370
     0
100
AcDbPoint
 10
649727.782
 20
4147015.271999999
 30
2646.840087890625
  0
POINT
  5
FAB
330
1F
100
AcDbEntity
  8
2640
370
     0
100
AcDbPoint
 10
649723.091
 20
4147002.003999999
 30
2645.050048828125
  0
POINT
  5
FAC
330
1F
100
AcDbEntity
  8
2640
370
     0
100
AcDbPoint
 10
649726.306
 20
4147001.535
 30
2645.1630859375
  0
POINT
  5
FAD
330
1F
100
AcDbEntity
  8
2640
370
     0
100
AcDbPoint
 10
649731.137
 20
4147014.572999998
 30
2646.798095703125
  0
POINT
  5
FAE
330
1F
100
AcDbEntity
  8
2640
370
     0
100
AcDbPoint
 10
649725.19
 20
4147006.866
 30
2645.56689453125
  0
POINT
  5
FAF
330
1F
100
AcDbEntity
  8
2640
370
     0
100
AcDbPoint
 10
649728.628
 20
4147006.637999998
 30
2645.7451171875
  0
LINE
  5
FB0
330
1F
100
AcDbEntity
  8
2640
370
     0
100
AcDbLine
 10
649748.9560000001
 20
4147150.798
 30
2652.84912109375
 11
649747.591
 21
4147149.231
 31
2652.25
  0
POINT
  5
FB1
330
1F
100
AcDbEntity
  8
2640
370
     0
100
AcDbPoint
 10
649747.591
 20
4147149.231
 30
2652.25
  0
LINE
  5
FB2
330
1F
100
AcDbEntity
  8
2640
370
     0
100
AcDbLine
 10
649749.534
 20
4147146.740000001
 30
2652.319091796875
 11
649750.48
 21
4147147.979
 31
2652.87890625
  0
LINE
  5
FB3
330
1F
100
AcDbEntity
  8
2640
370
     0
100
AcDbLine
 10
649745.166
 20
4147141.568
 30
2651.0029296875
 11
649749.534
 21
4147146.740000001
 31
2652.319091796875
  0
LINE
  5
FB4
330
1F
100
AcDbEntity
  8
2640
370
     0
100
AcDbLine
 10
649747.591
 20
4147149.231
 30
2652.25
 11
649743.246
 21
4147143.748999998
 31
2651.049072265625
  0
LINE
  5
FB5
330
1F
100
AcDbEntity
  8
2640
370
     0
100
AcDbLine
 10
649731.137
 20
4147014.572999998
 30
2646.798095703125
 11
649733.016
 21
4147021.533
 31
2647.322998046875
  0
LINE
  5
FB6
330
1F
100
AcDbEntity
  8
2640
370
     0
100
AcDbLine
 10
649732.7590000001
 20
4147022.651
 30
2647.909912109375
 11
649733.016
 21
4147021.533
 31
2647.449951171875
  0
POINT
  5
FB7
330
1F
100
AcDbEntity
  8
2640
370
     0
100
AcDbPoint
 10
649729.008048007
 20
4147069.856166842
 30
2649.281005859375
  0
LINE
  5
FB8
330
1F
100
AcDbEntity
  8
2640
370
     0
100
AcDbLine
 10
649729.008048007
 20
4147069.856166842
 30
2649.281005859375
 11
649728.988497721
 21
4147074.690156107
 31
2649.27294921875
  0
POINT
  5
FB9
330
1F
100
AcDbEntity
  8
2640
370
     0
100
AcDbPoint
 10
649733.016
 20
4147021.533
 30
2647.322998046875
  0
POINT
  5
FBA
330
1F
100
AcDbEntity
  8
2640
370
     0
100
AcDbPoint
 10
649733.016
 20
4147021.533
 30
2647.449951171875
  0
POINT
  5
FBB
330
1F
100
AcDbEntity
  8
2640
370
     0
100
AcDbPoint
 10
649704.1127090688
 20
4146989.477599481
 30
2643.580078125
  0
LINE
  5
FBC
330
1F
100
AcDbEntity
  8
2640
370
     0
100
AcDbLine
 10
649705.664
 20
4146989.583999999
 30
2643.840087890625
 11
649705.1095065752
 21
4146989.545968199
 31
2643.7470703125
  0
LINE
  5
FC0
330
1F
100
AcDbEntity
  8
2640
370
     0
100
AcDbLine
 10
649720.927
 20
4146994.332
 30
2644.238037109375
 11
649722.6639563066
 21
4146995.896961721
 31
2644.4609375
  0
LINE
  5
FC1
330
1F
100
AcDbEntity
  8
2640
370
     0
100
AcDbLine
 10
649718.994
 20
4146996.615
 30
2644.35595703125
 11
649721.0553181157
 21
4146999.129025322
 31
2644.512451171875
  0
LINE
  5
FC2
330
1F
100
AcDbEntity
  8
2640
370
     0
100
AcDbLine
 10
649725.2660320565
 20
4146999.158890036
 30
2644.886474609375
 11
649726.306
 21
4147001.535
 31
2645.1630859375
  0
POINT
  5
FC3
330
1F
100
AcDbEntity
  8
2640
370
     0
100
AcDbPoint
 10
649720.927
 20
4146994.332
 30
2644.238037109375
  0
POINT
  5
FC4
330
1F
100
AcDbEntity
  8
2640
370
     0
100
AcDbPoint
 10
649722.1539999999
 20
4147000.468999999
 30
2644.595947265625
  0
POINT
  5
FC5
330
1F
100
AcDbEntity
  8
2640
370
     0
100
AcDbPoint
 10
649724.6030000001
 20
4146997.643999999
 30
2644.7099609375
  0
LINE
  5
FC6
330
1F
100
AcDbEntity
  8
2640
370
     0
100
AcDbLine
 10
649733.6332640223
 20
4147115.466
 30
2650.10009765625
 11
649734.0022640222
 21
4147115.793
 31
2650.178955078125
  0
LINE
  5
FC7
330
1F
100
AcDbEntity
  8
2640
370
     0
100
AcDbLine
 10
649717.195
 20
4146991.164
 30
2644.094970703125
 11
649705.664
 21
4146989.583999999
 31
2643.840087890625
  0
LINE
  5
FC8
330
1F
100
AcDbEntity
  8
2640
370
     0
100
AcDbLine
 10
649720.06
 20
4146993.196
 30
2644.198974609375
 11
649717.195
 21
4146991.164
 31
2644.094970703125
  0
LINE
  5
FC9
330
1F
100
AcDbEntity
  8
2640
370
     0
100
AcDbLine
 10
649729.035
 20
4147025.990999999
 30
2648.3798828125
 11
649728.696
 21
4147021.526
 31
2647.56005859375
  0
LINE
  5
FCA
330
1F
100
AcDbEntity
  8
2640
370
     0
100
AcDbLine
 10
649731.919
 20
4147026.811
 30
2648.4130859375
 11
649732.7590000001
 21
4147022.651
 31
2647.909912109375
  0
LINE
  5
FCB
330
1F
100
AcDbEntity
  8
2640
370
     0
100
AcDbLine
 10
649725.19
 20
4147006.866
 30
2645.56689453125
 11
649723.4550590317
 21
4147002.847284904
 31
2645.1396484375
  0
POINT
  5
FCC
330
1F
100
AcDbEntity
  8
2640
370
     0
100
AcDbPoint
 10
649720.06
 20
4146993.196
 30
2644.198974609375
  0
POINT
  5
FCD
330
1F
100
AcDbEntity
  8
2640
370
     0
100
AcDbPoint
 10
649717.195
 20
4146991.164
 30
2644.094970703125
  0
POINT
  5
FCE
330
1F
100
AcDbEntity
  8
2640
370
     0
100
AcDbPoint
 10
649705.664
 20
4146989.583999999
 30
2643.840087890625
  0
POINT
  5
FCF
330
1F
100
AcDbEntity
  8
2640
370
     0
100
AcDbPoint
 10
649705.7316745793
 20
4146993.363805215
 30
2643.68798828125
  0
POINT
  5
FD0
330
1F
100
AcDbEntity
  8
2640
370
     0
100
AcDbPoint
 10
649731.919
 20
4147026.811
 30
2648.4130859375
  0
POINT
  5
FD1
330
1F
100
AcDbEntity
  8
2640
370
     0
100
AcDbPoint
 10
649734.7162640223
 20
4147121.015
 30
2650.010009765625
  0
POINT
  5
FD2
330
1F
100
AcDbEntity
  8
2640
370
     0
100
AcDbPoint
 10
649734.959
 20
4147116.233
 30
2649.87109375
  0
POINT
  5
FD3
330
1F
100
AcDbEntity
  8
2640
370
     0
100
AcDbPoint
 10
649730.038
 20
4147033.881
 30
2649.2880859375
  0
POINT
  5
FD4
330
1F
100
AcDbEntity
  8
2640
370
     0
100
AcDbPoint
 10
649739.147636408
 20
4147121.538
 30
2650.216064453125
  0
POINT
  5
FD5
330
1F
100
AcDbEntity
  8
2640
370
     0
100
AcDbPoint
 10
649726.1380000002
 20
4147035.854
 30
2649.382080078125
  0
POINT
  5
FD6
330
1F
100
AcDbEntity
  8
2640
370
     0
100
AcDbPoint
 10
649729.368
 20
4147036.376
 30
2649.427001953125
  0
POINT
  5
FD7
330
1F
100
AcDbEntity
  8
2640
370
     0
100
AcDbPoint
 10
649727.302
 20
4147032.691
 30
2649.06591796875
  0
POINT
  5
FD8
330
1F
100
AcDbEntity
  8
2640
370
     0
100
AcDbPoint
 10
649728.59
 20
4147040.48
 30
2649.576904296875
  0
POINT
  5
FD9
330
1F
100
AcDbEntity
  8
2640
370
     0
100
AcDbPoint
 10
649724.097
 20
4147040.029
 30
2649.382080078125
  0
LINE
  5
FDA
330
1F
100
AcDbEntity
  8
2640
370
     0
100
AcDbLine
 10
649726.1380000002
 20
4147035.854
 30
2649.382080078125
 11
649727.302
 21
4147032.691
 31
2649.06591796875
  0
LINE
  5
FDB
330
1F
100
AcDbEntity
  8
2640
370
     0
100
AcDbLine
 10
649728.4545502499
 20
4147041.194506135
 30
2649.799560546875
 11
649729.368
 21
4147036.376
 31
2649.427001953125
  0
LINE
  5
FDC
330
1F
100
AcDbEntity
  8
2640
370
     0
100
AcDbLine
 10
649727.302
 20
4147032.691
 30
2649.06591796875
 11
649729.035
 21
4147025.990999999
 31
2648.3798828125
  0
LINE
  5
FDD
330
1F
100
AcDbEntity
  8
2640
370
     0
100
AcDbLine
 10
649723.6856526297
 20
4147040.870438154
 30
2649.593505859375
 11
649726.1380000002
 21
4147035.854
 31
2649.382080078125
  0
POINT
  5
FDE
330
1F
100
AcDbEntity
  8
2640
370
     0
100
AcDbPoint
 10
649729.035
 20
4147025.990999999
 30
2648.3798828125
  0
LINE
  5
FDF
330
1F
100
AcDbEntity
  8
2640
370
     0
100
AcDbLine
 10
649730.038
 20
4147033.881
 30
2649.2880859375
 11
649731.919
 21
4147026.811
 31
2648.4130859375
  0
LINE
  5
FE0
330
1F
100
AcDbEntity
  8
2640
370
     0
100
AcDbLine
 10
649729.368
 20
4147036.376
 30
2649.427001953125
 11
649730.038
 21
4147033.881
 31
2649.2880859375
  0
POINT
  5
FE1
330
1F
100
AcDbEntity
  8
2640
370
     0
100
AcDbPoint
 10
649755.3023387283
 20
4147150.103999999
 30
2653.090087890625
  0
POINT
  5
FE2
330
1F
100
AcDbEntity
  8
2640
370
     0
100
AcDbPoint
 10
649748.9560000001
 20
4147150.798
 30
2652.84912109375
  0
LINE
  5
FE3
330
1F
100
AcDbEntity
  8
2640
370
     0
100
AcDbLine
 10
649754.0193387282
 20
4147150.016
 30
2652.865966796875
 11
649750.48
 21
4147147.979
 31
2652.87890625
  0
LINE
  5
FE4
330
1F
100
AcDbEntity
  8
2640
370
     0
100
AcDbLine
 10
649753.0993387282
 20
4147153.695
 30
2653.221923828125
 11
649748.9560000001
 21
4147150.798
 31
2652.84912109375
  0
POINT
  5
FE5
330
1F
100
AcDbEntity
  8
2640
370
     0
100
AcDbPoint
 10
649750.48
 20
4147147.979
 30
2652.87890625
  0
LINE
  5
FE6
330
1F
100
AcDbEntity
  8
2640
370
     0
100
AcDbLine
 10
649731.5872640223
 20
4147113.136999999
 30
2650.035888671875
 11
649733.6332640223
 21
4147115.466
 31
2650.10009765625
  0
POINT
  5
FE7
330
1F
100
AcDbEntity
  8
2640
370
     0
100
AcDbPoint
 10
649755.9863387282
 20
4147149.585
 30
2652.866943359375
  0
POINT
  5
FE9
330
1F
100
AcDbEntity
  8
2640
370
     0
100
AcDbPoint
 10
649753.0993387282
 20
4147153.695
 30
2653.221923828125
  0
POINT
  5
FEA
330
1F
100
AcDbEntity
  8
2640
370
     0
100
AcDbPoint
 10
649754.0193387282
 20
4147150.016
 30
2652.865966796875
  0
LINE
  5
FEB
330
1F
100
AcDbEntity
  8
2640
370
     0
100
AcDbLine
 10
649731.1862640223
 20
4147112.742
 30
2650.113037109375
 11
649731.5872640223
 21
4147113.136999999
 31
2650.035888671875
  0
LINE
  5
FEC
330
1F
100
AcDbEntity
  8
2640
370
     0
100
AcDbLine
 10
649729.2552640224
 20
4147104.61
 30
2650.14794921875
 11
649729.4742640223
 21
4147107.362999999
 31
2650.138916015625
  0
POINT
  5
FED
330
1F
100
AcDbEntity
  8
2640
370
     0
100
AcDbPoint
 10
649729.010119572
 20
4147069.343953203
 30
2649.819091796875
  0
POINT
  5
FEE
330
1F
100
AcDbEntity
  8
2640
370
     0
100
AcDbPoint
 10
649725.680209668
 20
4147069.903587276
 30
2650.073974609375
  0
LINE
  5
FEF
330
1F
100
AcDbEntity
  8
2640
370
     0
100
AcDbLine
 10
649730.1902640224
 20
4147110.677
 30
2650.049072265626
 11
649731.1862640223
 21
4147112.742
 31
2650.113037109375
  0
LINE
  5
FF1
330
1F
100
AcDbEntity
  8
2640
370
     0
100
AcDbLine
 10
649734.0022640222
 20
4147115.793
 30
2650.178955078125
 11
649734.959
 21
4147116.233
 31
2650.10791015625
  0
LINE
  5
FF3
330
1F
100
AcDbEntity
  8
2640
370
     0
100
AcDbLine
 10
649729.4742640223
 20
4147107.362999999
 30
2650.138916015625
 11
649729.7792640222
 21
4147109.236
 31
2650.181884765625
  0
LINE
  5
FF4
330
1F
100
AcDbEntity
  8
2640
370
     0
100
AcDbLine
 10
649729.7792640222
 20
4147109.236
 30
2650.181884765625
 11
649730.1902640224
 21
4147110.677
 31
2650.049072265626
  0
LINE
  5
FF5
330
1F
100
AcDbEntity
  8
2640
370
     0
100
AcDbLine
 10
649726.6222640222
 20
4147109.967
 30
2650.31689453125
 11
649726.6432640223
 21
4147109.106
 31
2650.297119140625
  0
LINE
  5
FF6
330
1F
100
AcDbEntity
  8
2640
370
     0
100
AcDbLine
 10
649726.6432640223
 20
4147109.106
 30
2650.297119140625
 11
649726.3622640223
 21
4147107.359
 31
2650.24609375
  0
POINT
  5
FF8
330
1F
100
AcDbEntity
  8
2640
370
     0
100
AcDbPoint
 10
649739.295
 20
4147119.574
 30
2649.992919921875
  0
POINT
  5
FFC
330
1F
100
AcDbEntity
  8
2640
370
     0
100
AcDbPoint
 10
649734.959
 20
4147116.233
 30
2650.10791015625
  0
LINE
  5
FFF
330
1F
100
AcDbEntity
  8
2640
370
     0
100
AcDbLine
 10
649756.430197147
 20
4147147.726
 30
2652.449951171875
 11
649755.9863387282
 21
4147149.585
 31
2652.866943359375
  0
LINE
  5
1000
330
1F
100
AcDbEntity
  8
2640
370
     0
100
AcDbLine
 10
649755.9863387282
 20
4147149.585
 30
2652.866943359375
 11
649755.3023387283
 21
4147150.103999999
 31
2653.090087890625
  0
LINE
  5
190D
330
1F
100
AcDbEntity
  8
2640
370
     0
100
AcDbLine
 10
649733.593
 20
4147043.578999999
 30
2649.762939453125
 11
649737.5050000001
 21
4147046.013999999
 31
2649.9970703125
  0
LINE
  5
190E
330
1F
100
AcDbEntity
  8
2640
370
     0
100
AcDbLine
 10
649730.1429420611
 20
4147041.586
 30
2649.824951171875
 11
649731.594
 21
4147042.631999998
 31
2649.577880859375
  0
LINE
  5
190F
330
1F
100
AcDbEntity
  8
2640
370
     0
100
AcDbLine
 10
649737.5050000001
 20
4147046.013999999
 30
2649.9970703125
 11
649741.621
 21
4147048.387999999
 31
2649.83203125
  0
POINT
  5
1910
330
1F
100
AcDbEntity
  8
2640
370
     0
100
AcDbPoint
 10
649730.1429420611
 20
4147041.586
 30
2649.824951171875
  0
POINT
  5
1911
330
1F
100
AcDbEntity
  8
2640
370
     0
100
AcDbPoint
 10
649729.9690000002
 20
4147045.795
 30
2649.531005859375
  0
POINT
  5
1912
330
1F
100
AcDbEntity
  8
2640
370
     0
100
AcDbPoint
 10
649735.3240000001
 20
4147048.733
 30
2650.033935546875
  0
POINT
  5
1913
330
1F
100
AcDbEntity
  8
2640
370
     0
100
AcDbPoint
 10
649733.624
 20
4147047.720999998
 30
2649.8330078125
  0
POINT
  5
1914
330
1F
100
AcDbEntity
  8
2640
370
     0
100
AcDbPoint
 10
649737.5050000001
 20
4147046.013999999
 30
2649.9970703125
  0
LINE
  5
1915
330
1F
100
AcDbEntity
  8
2640
370
     0
100
AcDbLine
 10
649729.9690000002
 20
4147045.795
 30
2649.531005859375
 11
649728.435
 21
4147045.827
 31
2649.637939453125
  0
LINE
  5
1916
330
1F
100
AcDbEntity
  8
2640
370
     0
100
AcDbLine
 10
649735.3240000001
 20
4147048.733
 30
2650.033935546875
 11
649740.048
 21
4147051.665
 31
2649.969970703125
  0
LINE
  5
1917
330
1F
100
AcDbEntity
  8
2640
370
     0
100
AcDbLine
 10
649729.9690000002
 20
4147045.795
 30
2649.531005859375
 11
649733.624
 21
4147047.720999998
 31
2649.8330078125
  0
LINE
  5
1918
330
1F
100
AcDbEntity
  8
2640
370
     0
100
AcDbLine
 10
649733.624
 20
4147047.720999998
 30
2649.8330078125
 11
649735.3240000001
 21
4147048.733
 31
2650.033935546875
  0
LINE
  5
1919
330
1F
100
AcDbEntity
  8
2640
370
     0
100
AcDbLine
 10
649731.594
 20
4147042.631999998
 30
2649.577880859375
 11
649733.593
 21
4147043.578999999
 31
2649.762939453125
  0
LINE
  5
191A
330
1F
100
AcDbEntity
  8
2640
370
     0
100
AcDbLine
 10
649741.621
 20
4147048.387999999
 30
2649.83203125
 11
649746.301
 21
4147050.71
 31
2649.673095703125
  0
LINE
  5
191B
330
1F
100
AcDbEntity
  8
2640
370
     0
100
AcDbLine
 10
649740.048
 20
4147051.665
 30
2649.969970703125
 11
649745.067
 21
4147054.565
 31
2650.132080078125
  0
LINE
  5
191C
330
1F
100
AcDbEntity
  8
2640
370
     0
100
AcDbLine
 10
649745.067
 20
4147054.565
 30
2650.132080078125
 11
649748.075
 21
4147055.91
 31
2649.906005859375
  0
LINE
  5
191D
330
1F
100
AcDbEntity
  8
2640
370
     0
100
AcDbLine
 10
649746.301
 20
4147050.71
 30
2649.673095703125
 11
649749.779
 21
4147052.862999998
 31
2650.126953125
  0
LINE
  5
191E
330
1F
100
AcDbEntity
  8
2640
370
     0
100
AcDbLine
 10
649721.6229420612
 20
4147041.122
 30
2649.43701171875
 11
649717.807942061
 21
4147041.844
 31
2649.443115234375
  0
LINE
  5
191F
330
1F
100
AcDbEntity
  8
2640
370
     0
100
AcDbLine
 10
649710.021
 20
4147043.316
 30
2649.68408203125
 11
649717.807942061
 21
4147041.844
 31
2649.443115234375
  0
LINE
  5
1920
330
1F
100
AcDbEntity
  8
2640
370
     0
100
AcDbLine
 10
649718.520942061
 20
4147045.236
 30
2649.498046875
 11
649722.272942061
 21
4147044.501
 31
2649.22607421875
  0
LINE
  5
1921
330
1F
100
AcDbEntity
  8
2640
370
     0
100
AcDbLine
 10
649712.468
 20
4147046.375
 30
2649.56298828125
 11
649718.520942061
 21
4147045.236
 31
2649.498046875
  0
POINT
  5
1B5E
330
1F
100
AcDbEntity
  8
INIT_COORD
100
AcDbPoint
 10
649705.4205905772
 20
4146991.454886707
 30
2646.62548828125
  0
ENDSEC
  0
SECTION
  2
OBJECTS
  0
DICTIONARY
  5
C
330
0
100
AcDbDictionary
281
     1
  3
ACAD_CIP_PREVIOUS_PRODUCT_INFO
350
1979
  3
ACAD_COLOR
350
196F
  3
ACAD_DETAILVIEWSTYLE
350
1974
  3
ACAD_GROUP
350
D
  3
ACAD_IMAGE_VARS
350
1A47
  3
ACAD_LAYOUT
350
1A
  3
ACAD_MATERIAL
350
3B
  3
ACAD_MLEADERSTYLE
350
1963
  3
ACAD_MLINESTYLE
350
17
  3
ACAD_PLOTSETTINGS
350
19
  3
ACAD_PLOTSTYLENAME
350
E
  3
ACAD_SCALELIST
350
5C0
  3
ACAD_SECTIONVIEWSTYLE
350
1972
  3
ACAD_TABLESTYLE
350
1962
  3
ACAD_VISUALSTYLE
350
2A
  3
ACDB_RECOMPOSE_DATA
350
1B6A
  3
AcDbVariableDictionary
350
193A
  3
APPDATA
350
1A45
  0
SUN
  5
1A46
330
29
100
AcDbSun
 90
        1
290
     0
 63
     7
421
 16777215
 40
1.0
291
     1
 91
  2455826
 92
 54000000
292
     0
 70
     0
 71
   256
280
     1
1001
ACAD
1000
AcDbSavedByObjectVersion
1070
     0
  0
DICTIONARY
  5
1996
330
2
100
AcDbDictionary
280
     1
281
     1
  3
ACAD_LAYERSTATES
360
1997
  3
ACLYDICTIONARY
360
1B34
  0
DICTIONARY
  5
197B
330
10
100
AcDbDictionary
280
     1
281
     1
  3
ADSK_XREC_LAYER_RECONCILED
360
197C
  0
DICTIONARY
  5
197D
330
3F
100
AcDbDictionary
280
     1
281
     1
  3
ADSK_XREC_LAYER_RECONCILED
360
197E
  0
DICTIONARY
  5
197F
330
40
100
AcDbDictionary
280
     1
281
     1
  3
ADSK_XREC_LAYER_RECONCILED
360
1980
  0
DICTIONARY
  5
1981
330
41
100
AcDbDictionary
280
     1
281
     1
  3
ADSK_XREC_LAYER_RECONCILED
360
1982
  0
DICTIONARY
  5
1983
330
42
100
AcDbDictionary
280
     1
281
     1
  3
ADSK_XREC_LAYER_RECONCILED
360
1984
  0
DICTIONARY
  5
1985
330
43
100
AcDbDictionary
280
     1
281
     1
  3
ADSK_XREC_LAYER_RECONCILED
360
1986
  0
DICTIONARY
  5
1987
330
44
100
AcDbDictionary
280
     1
281
     1
  3
ADSK_XREC_LAYER_RECONCILED
360
1988
  0
DICTIONARY
  5
1989
330
45
100
AcDbDictionary
280
     1
281
     1
  3
ADSK_XREC_LAYER_RECONCILED
360
198A
  0
DICTIONARY
  5
198B
330
46
100
AcDbDictionary
280
     1
281
     1
  3
ADSK_XREC_LAYER_RECONCILED
360
198C
  0
DICTIONARY
  5
198D
330
47
100
AcDbDictionary
280
     1
281
     1
  3
ADSK_XREC_LAYER_RECONCILED
360
198E
  0
DICTIONARY
  5
198F
330
48
100
AcDbDictionary
280
     1
281
     1
  3
ADSK_XREC_LAYER_RECONCILED
360
1990
  0
DICTIONARY
  5
1991
330
49
100
AcDbDictionary
280
     1
281
     1
  3
ADSK_XREC_LAYER_RECONCILED
360
1992
  0
XRECORD
  5
1979
102
{ACAD_REACTORS
330
C
102
}
330
C
100
AcDbXrecord
280
     1
300
ACD
300
2014
300
ACD_F_S
  0
DICTIONARY
  5
196F
102
{ACAD_REACTORS
330
C
102
}
330
C
100
AcDbDictionary
281
     1
  0
DICTIONARY
  5
1974
102
{ACAD_REACTORS
330
C
102
}
330
C
100
AcDbDictionary
281
     1
  3
Metric50
350
1975
  0
DICTIONARY
  5
D
102
{ACAD_REACTORS
330
C
102
}
330
C
100
AcDbDictionary
281
     1
  0
RASTERVARIABLES
  5
1A47
102
{ACAD_REACTORS
330
C
102
}
330
C
100
AcDbRasterVariables
 90
        0
 70
     1
 71
     1
 72
     1
  0
DICTIONARY
  5
1A
102
{ACAD_REACTORS
330
C
102
}
330
C
100
AcDbDictionary
281
     1
  3
Layout1
350
1E
  3
Layout2
350
26
  3
Model
350
22
  0
DICTIONARY
  5
3B
102
{ACAD_REACTORS
330
C
102
}
330
C
100
AcDbDictionary
281
     1
  3
ByBlock
350
3D
  3
ByLayer
350
3C
  3
Global
350
3E
  0
DICTIONARY
  5
1963
102
{ACAD_REACTORS
330
C
102
}
330
C
100
AcDbDictionary
281
     1
  3
Standard
350
1971
  0
DICTIONARY
  5
17
102
{ACAD_REACTORS
330
C
102
}
330
C
100
AcDbDictionary
281
     1
  3
Standard
350
18
  0
DICTIONARY
  5
19
102
{ACAD_REACTORS
330
C
102
}
330
C
100
AcDbDictionary
281
     1
  0
ACDBDICTIONARYWDFLT
  5
E
102
{ACAD_REACTORS
330
C
102
}
330
C
100
AcDbDictionary
281
     1
  3
Normal
350
F
100
AcDbDictionaryWithDefault
340
F
  0
DICTIONARY
  5
5C0
102
{ACAD_REACTORS
330
C
102
}
330
C
100
AcDbDictionary
281
     1
  3
A0
350
5C1
  3
A1
350
5C2
  3
A2
350
5C3
  3
A3
350
5C4
  3
A4
350
5C5
  3
A5
350
5C6
  3
A6
350
5C7
  3
A7
350
5C8
  3
A8
350
5C9
  3
A9
350
5CA
  3
B0
350
5CB
  3
B1
350
5CC
  3
B2
350
5CD
  3
B3
350
5CE
  3
B4
350
5CF
  3
B5
350
5D0
  3
B6
350
5D1
  3
B7
350
5D2
  3
B8
350
5D3
  3
B9
350
5D4
  3
C0
350
5D5
  3
C1
350
5D6
  3
C2
350
5D7
  3
C3
350
5D8
  3
C4
350
5D9
  3
C5
350
5DA
  3
C6
350
5DB
  3
C7
350
5DC
  3
C8
350
5DD
  3
C9
350
5DE
  3
D0
350
5DF
  3
D1
350
5E0
  3
D2
350
5E1
  0
DICTIONARY
  5
1972
102
{ACAD_REACTORS
330
C
102
}
330
C
100
AcDbDictionary
281
     1
  3
Metric50
350
1973
  0
DICTIONARY
  5
1962
102
{ACAD_REACTORS
330
C
102
}
330
C
100
AcDbDictionary
281
     1
  3
Standard
350
1970
  0
DICTIONARY
  5
2A
102
{ACAD_REACTORS
330
C
102
}
330
C
100
AcDbDictionary
281
     1
  3
2dWireframe
350
2F
  3
3D Hidden
350
31
  3
3dWireframe
350
30
  3
Basic
350
32
  3
Brighten
350
36
  3
ColorChange
350
3A
  3
Conceptual
350
34
  3
Dim
350
35
  3
EdgeColorOff
350
196E
  3
Facepattern
350
39
  3
Flat
350
2B
  3
FlatWithEdges
350
2C
  3
Gouraud
350
2D
  3
GouraudWithEdges
350
2E
  3
Hidden
350
1966
  3
JitterOff
350
196C
  3
Linepattern
350
38
  3
OverhangOff
350
196D
  3
Realistic
350
33
  3
Shaded
350
196B
  3
Shaded with edges
350
196A
  3
Shades of Gray
350
1967
  3
Sketchy
350
1968
  3
Thicken
350
37
  3
Wireframe
350
1965
  3
X-Ray
350
1969
  0
XRECORD
  5
1B6A
102
{ACAD_REACTORS
330
C
102
}
330
C
100
AcDbXrecord
280
     1
 90
        1
330
1970
  0
DICTIONARY
  5
193A
102
{ACAD_REACTORS
330
C
102
}
330
C
100
AcDbDictionary
281
     1
  3
CANNOSCALE
350
193B
  3
CMLEADERSTYLE
350
19AB
  3
CTABLESTYLE
350
19AA
  3
CVIEWDETAILSTYLE
350
19AC
  3
CVIEWSECTIONSTYLE
350
19AD
  3
LAYEREVAL
350
19B0
  3
LAYERNOTIFY
350
19B1
  3
LIGHTINGUNITS
350
19AF
  3
MSLTSCALE
350
19AE
  3
XCLIPFRAME
350
1A67
  0
DICTIONARY
  5
1A45
102
{ACAD_REACTORS
330
C
102
}
330
C
100
AcDbDictionary
281
     1
  0
DICTIONARY
  5
1997
102
{ACAD_REACTORS
330
1996
102
}
330
1996
100
AcDbDictionary
281
     1
  0
DICTIONARY
  5
1B34
102
{ACAD_REACTORS
330
1996
102
}
330
1996
100
AcDbDictionary
281
     1
1001
ACAD
1000
<All
  0
XRECORD
  5
197C
102
{ACAD_REACTORS
330
197B
102
}
330
197B
100
AcDbXrecord
280
     1
290
     1
  0
XRECORD
  5
197E
102
{ACAD_REACTORS
330
197D
102
}
330
197D
100
AcDbXrecord
280
     1
290
     1
  0
XRECORD
  5
1980
102
{ACAD_REACTORS
330
197F
102
}
330
197F
100
AcDbXrecord
280
     1
290
     1
  0
XRECORD
  5
1982
102
{ACAD_REACTORS
330
1981
102
}
330
1981
100
AcDbXrecord
280
     1
290
     1
  0
XRECORD
  5
1984
102
{ACAD_REACTORS
330
1983
102
}
330
1983
100
AcDbXrecord
280
     1
290
     1
  0
XRECORD
  5
1986
102
{ACAD_REACTORS
330
1985
102
}
330
1985
100
AcDbXrecord
280
     1
290
     1
  0
XRECORD
  5
1988
102
{ACAD_REACTORS
330
1987
102
}
330
1987
100
AcDbXrecord
280
     1
290
     1
  0
XRECORD
  5
198A
102
{ACAD_REACTORS
330
1989
102
}
330
1989
100
AcDbXrecord
280
     1
290
     1
  0
XRECORD
  5
198C
102
{ACAD_REACTORS
330
198B
102
}
330
198B
100
AcDbXrecord
280
     1
290
     1
  0
XRECORD
  5
198E
102
{ACAD_REACTORS
330
198D
102
}
330
198D
100
AcDbXrecord
280
     1
290
     1
  0
XRECORD
  5
1990
102
{ACAD_REACTORS
330
198F
102
}
330
198F
100
AcDbXrecord
280
     1
290
     1
  0
XRECORD
  5
1992
102
{ACAD_REACTORS
330
1991
102
}
330
1991
100
AcDbXrecord
280
     1
290
     1
  0
ACDBDETAILVIEWSTYLE
  5
1975
102
{ACAD_REACTORS
330
1974
102
}
102
{ACAD_XDICTIONARY
360
1A43
102
}
330
1974
100
AcDbModelDocViewStyle
 70
     0
  3
Metric50
290
     0
100
AcDbDetailViewStyle
 70
     0
 71
     0
 90
        3
 71
     1
340
11
 62
   256
 40
5.0
340
0
 62
   256
 40
5.0
300

 40
0.0
280
     1
 71
     2
340
16
 90
       25
 62
   256
 71
     3
340
11
 62
   256
 40
5.0
 90
        0
 40
15.0
 90
        1
300
%<\AcVar ViewDetailId>% (%<\AcVar ViewScale \f "%sn">%)
 71
     4
340
16
 90
       25
 62
   256
340
16
 90
       25
 62
   256
280
     0
  0
LAYOUT
  5
1E
102
{ACAD_REACTORS
330
1A
102
}
330
1A
100
AcDbPlotSettings
  1

  2
none_device
  4

  6

 40
0.0
 41
0.0
 42
0.0
 43
0.0
 44
0.0
 45
0.0
 46
0.0
 47
0.0
 48
0.0
 49
0.0
140
0.0
141
0.0
142
1.0
143
1.0
 70
   688
 72
     0
 73
     0
 74
     5
  7

 75
    16
 76
     0
 77
     2
 78
   300
147
1.0
148
0.0
149
0.0
100
AcDbLayout
  1
Layout1
 70
     1
 71
     1
 10
0.0
 20
0.0
 11
420.0
 21
297.0
 12
0.0
 22
0.0
 32
0.0
 14
1.000000000000000E+20
 24
1.000000000000000E+20
 34
1.000000000000000E+20
 15
-1.000000000000000E+20
 25
-1.000000000000000E+20
 35
-1.000000000000000E+20
146
0.0
 13
0.0
 23
0.0
 33
0.0
 16
1.0
 26
0.0
 36
0.0
 17
0.0
 27
1.0
 37
0.0
 76
     0
330
1B
  0
LAYOUT
  5
26
102
{ACAD_REACTORS
330
1A
102
}
330
1A
100
AcDbPlotSettings
  1

  2
none_device
  4

  6

 40
0.0
 41
0.0
 42
0.0
 43
0.0
 44
0.0
 45
0.0
 46
0.0
 47
0.0
 48
0.0
 49
0.0
140
0.0
141
0.0
142
1.0
143
1.0
 70
   688
 72
     0
 73
     0
 74
     5
  7

 75
    16
 76
     0
 77
     2
 78
   300
147
1.0
148
0.0
149
0.0
100
AcDbLayout
  1
Layout2
 70
     1
 71
     2
 10
0.0
 20
0.0
 11
0.0
 21
0.0
 12
0.0
 22
0.0
 32
0.0
 14
0.0
 24
0.0
 34
0.0
 15
0.0
 25
0.0
 35
0.0
146
0.0
 13
0.0
 23
0.0
 33
0.0
 16
1.0
 26
0.0
 36
0.0
 17
0.0
 27
1.0
 37
0.0
 76
     0
330
23
  0
LAYOUT
  5
22
102
{ACAD_REACTORS
330
1A
102
}
330
1A
100
AcDbPlotSettings
  1

  2
none_device
  4

  6

 40
0.0
 41
0.0
 42
0.0
 43
0.0
 44
0.0
 45
0.0
 46
0.0
 47
0.0
 48
0.0
 49
0.0
140
0.0
141
0.0
142
1.0
143
1.0
 70
  1712
 72
     0
 73
     0
 74
     0
  7

 75
     0
 76
     0
 77
     2
 78
   300
147
1.0
148
0.0
149
0.0
100
AcDbLayout
  1
Model
 70
     1
 71
     0
 10
0.0
 20
0.0
 11
420.0
 21
297.0
 12
0.0
 22
0.0
 32
0.0
 14
649704.1127090688
 24
4146989.477599481
 34
2643.580078125
 15
649756.430197147
 25
4147156.022999999
 35
2654.05810546875
146
0.0
 13
0.0
 23
0.0
 33
0.0
 16
1.0
 26
0.0
 36
0.0
 17
0.0
 27
1.0
 37
0.0
 76
     0
330
1F
331
29
  0
MATERIAL
  5
3D
102
{ACAD_REACTORS
330
3B
102
}
330
3B
100
AcDbMaterial
  1
ByBlock
 72
     1
 94
      127
  0
MATERIAL
  5
3C
102
{ACAD_REACTORS
330
3B
102
}
330
3B
100
AcDbMaterial
  1
ByLayer
 72
     1
 94
      127
  0
MATERIAL
  5
3E
102
{ACAD_REACTORS
330
3B
102
}
330
3B
100
AcDbMaterial
  1
Global
 72
     1
 94
      127
  0
MLEADERSTYLE
  5
1971
102
{ACAD_REACTORS
330
1963
102
}
330
1963
100
AcDbMLeaderStyle
179
     2
170
     2
171
     1
172
     0
 90
        2
 40
0.0
 41
0.0
173
     1
 91
-1056964608
340
14
 92
       -2
290
     1
 42
2.0
291
     1
 43
0.36
  3
Standard
341
0
 44
4.0
300

342
11
174
     1
178
     6
175
     1
176
     0
 93
-1056964608
 45
4.0
292
     0
297
     0
 46
4.0
343
0
 94
-1056964608
 47
1.0
 49
1.0
140
1.0
293
     1
141
0.0
294
     1
177
     0
142
1.0
295
     0
296
     0
143
0.125
271
     0
272
     9
273
     9
  0
MLINESTYLE
  5
18
102
{ACAD_REACTORS
330
17
102
}
330
17
100
AcDbMlineStyle
  2
STANDARD
 70
     0
  3

 62
   256
 51
90.0
 52
90.0
 71
     2
 49
0.5
 62
   256
  6
BYLAYER
 49
-0.5
 62
   256
  6
BYLAYER
  0
ACDBPLACEHOLDER
  5
F
102
{ACAD_REACTORS
330
E
102
}
330
E
  0
SCALE
  5
5C1
102
{ACAD_REACTORS
330
5C0
102
}
330
5C0
100
AcDbScale
 70
     0
300
1:1
140
1.0
141
1.0
290
     1
  0
SCALE
  5
5C2
102
{ACAD_REACTORS
330
5C0
102
}
330
5C0
100
AcDbScale
 70
     0
300
1:2
140
1.0
141
2.0
290
     0
  0
SCALE
  5
5C3
102
{ACAD_REACTORS
330
5C0
102
}
330
5C0
100
AcDbScale
 70
     0
300
1:4
140
1.0
141
4.0
290
     0
  0
SCALE
  5
5C4
102
{ACAD_REACTORS
330
5C0
102
}
330
5C0
100
AcDbScale
 70
     0
300
1:5
140
1.0
141
5.0
290
     0
  0
SCALE
  5
5C5
102
{ACAD_REACTORS
330
5C0
102
}
330
5C0
100
AcDbScale
 70
     0
300
1:8
140
1.0
141
8.0
290
     0
  0
SCALE
  5
5C6
102
{ACAD_REACTORS
330
5C0
102
}
330
5C0
100
AcDbScale
 70
     0
300
1:10
140
1.0
141
10.0
290
     0
  0
SCALE
  5
5C7
102
{ACAD_REACTORS
330
5C0
102
}
330
5C0
100
AcDbScale
 70
     0
300
1:16
140
1.0
141
16.0
290
     0
  0
SCALE
  5
5C8
102
{ACAD_REACTORS
330
5C0
102
}
330
5C0
100
AcDbScale
 70
     0
300
1:20
140
1.0
141
20.0
290
     0
  0
SCALE
  5
5C9
102
{ACAD_REACTORS
330
5C0
102
}
330
5C0
100
AcDbScale
 70
     0
300
1:30
140
1.0
141
30.0
290
     0
  0
SCALE
  5
5CA
102
{ACAD_REACTORS
330
5C0
102
}
330
5C0
100
AcDbScale
 70
     0
300
1:40
140
1.0
141
40.0
290
     0
  0
SCALE
  5
5CB
102
{ACAD_REACTORS
330
5C0
102
}
330
5C0
100
AcDbScale
 70
     0
300
1:50
140
1.0
141
50.0
290
     0
  0
SCALE
  5
5CC
102
{ACAD_REACTORS
330
5C0
102
}
330
5C0
100
AcDbScale
 70
     0
300
1:100
140
1.0
141
100.0
290
     0
  0
SCALE
  5
5CD
102
{ACAD_REACTORS
330
5C0
102
}
330
5C0
100
AcDbScale
 70
     0
300
2:1
140
2.0
141
1.0
290
     0
  0
SCALE
  5
5CE
102
{ACAD_REACTORS
330
5C0
102
}
330
5C0
100
AcDbScale
 70
     0
300
4:1
140
4.0
141
1.0
290
     0
  0
SCALE
  5
5CF
102
{ACAD_REACTORS
330
5C0
102
}
330
5C0
100
AcDbScale
 70
     0
300
8:1
140
8.0
141
1.0
290
     0
  0
SCALE
  5
5D0
102
{ACAD_REACTORS
330
5C0
102
}
330
5C0
100
AcDbScale
 70
     0
300
10:1
140
10.0
141
1.0
290
     0
  0
SCALE
  5
5D1
102
{ACAD_REACTORS
330
5C0
102
}
330
5C0
100
AcDbScale
 70
     0
300
100:1
140
100.0
141
1.0
290
     0
  0
SCALE
  5
5D2
102
{ACAD_REACTORS
330
5C0
102
}
330
5C0
100
AcDbScale
 70
     0
300
1/128" = 1'-0"
140
0.0078125
141
12.0
290
     0
  0
SCALE
  5
5D3
102
{ACAD_REACTORS
330
5C0
102
}
330
5C0
100
AcDbScale
 70
     0
300
1/64" = 1'-0"
140
0.015625
141
12.0
290
     0
  0
SCALE
  5
5D4
102
{ACAD_REACTORS
330
5C0
102
}
330
5C0
100
AcDbScale
 70
     0
300
1/32" = 1'-0"
140
0.03125
141
12.0
290
     0
  0
SCALE
  5
5D5
102
{ACAD_REACTORS
330
5C0
102
}
330
5C0
100
AcDbScale
 70
     0
300
1/16" = 1'-0"
140
0.0625
141
12.0
290
     0
  0
SCALE
  5
5D6
102
{ACAD_REACTORS
330
5C0
102
}
330
5C0
100
AcDbScale
 70
     0
300
3/32" = 1'-0"
140
0.09375
141
12.0
290
     0
  0
SCALE
  5
5D7
102
{ACAD_REACTORS
330
5C0
102
}
330
5C0
100
AcDbScale
 70
     0
300
1/8" = 1'-0"
140
0.125
141
12.0
290
     0
  0
SCALE
  5
5D8
102
{ACAD_REACTORS
330
5C0
102
}
330
5C0
100
AcDbScale
 70
     0
300
3/16" = 1'-0"
140
0.1875
141
12.0
290
     0
  0
SCALE
  5
5D9
102
{ACAD_REACTORS
330
5C0
102
}
330
5C0
100
AcDbScale
 70
     0
300
1/4" = 1'-0"
140
0.25
141
12.0
290
     0
  0
SCALE
  5
5DA
102
{ACAD_REACTORS
330
5C0
102
}
330
5C0
100
AcDbScale
 70
     0
300
3/8" = 1'-0"
140
0.375
141
12.0
290
     0
  0
SCALE
  5
5DB
102
{ACAD_REACTORS
330
5C0
102
}
330
5C0
100
AcDbScale
 70
     0
300
1/2" = 1'-0"
140
0.5
141
12.0
290
     0
  0
SCALE
  5
5DC
102
{ACAD_REACTORS
330
5C0
102
}
330
5C0
100
AcDbScale
 70
     0
300
3/4" = 1'-0"
140
0.75
141
12.0
290
     0
  0
SCALE
  5
5DD
102
{ACAD_REACTORS
330
5C0
102
}
330
5C0
100
AcDbScale
 70
     0
300
1" = 1'-0"
140
1.0
141
12.0
290
     0
  0
SCALE
  5
5DE
102
{ACAD_REACTORS
330
5C0
102
}
330
5C0
100
AcDbScale
 70
     0
300
1-1/2" = 1'-0"
140
1.5
141
12.0
290
     0
  0
SCALE
  5
5DF
102
{ACAD_REACTORS
330
5C0
102
}
330
5C0
100
AcDbScale
 70
     0
300
3" = 1'-0"
140
3.0
141
12.0
290
     0
  0
SCALE
  5
5E0
102
{ACAD_REACTORS
330
5C0
102
}
330
5C0
100
AcDbScale
 70
     0
300
6" = 1'-0"
140
6.0
141
12.0
290
     0
  0
SCALE
  5
5E1
102
{ACAD_REACTORS
330
5C0
102
}
330
5C0
100
AcDbScale
 70
     0
300
1'-0" = 1'-0"
140
12.0
141
12.0
290
     0
  0
ACDBSECTIONVIEWSTYLE
  5
1973
102
{ACAD_REACTORS
330
1972
102
}
102
{ACAD_XDICTIONARY
360
1A41
102
}
330
1972
100
AcDbModelDocViewStyle
 70
     0
  3
Metric50
290
     0
100
AcDbSectionViewStyle
 70
     0
 71
     0
 90
      102
 71
     1
340
11
 62
   256
 40
5.0
340
0
340
0
 62
   256
 40
5.0
300
I, O, Q, S, X, Z
 40
10.0
 90
        0
 40
2.5
 90
        0
 71
     2
340
16
 90
       25
 62
   256
340
16
 90
       50
 62
   256
 40
5.0
 40
2.5
 40
5.0
 71
     3
340
11
 62
   256
 40
5.0
 90
        0
 40
15.0
 90
        1
300
%<\AcVar ViewSectionStartId>%-%<\AcVar ViewSectionEndId>% (%<\AcVar ViewScale \f "%sn">%)
 71
     4
 62
   256
 62
   257
300
ANSI31
 40
1.0
 90
        0
290
     0
290
     0
 90
        6
 40
0.0
 40
1.570796326794895
 40
0.2617993877991494
 40
1.308996938995746
 40
-0.2617993877991494
 40
1.832595714594045
  0
TABLESTYLE
  5
1970
102
{ACAD_REACTORS
330
1962
102
}
102
{ACAD_XDICTIONARY
360
1B68
102
}
330
1962
100
AcDbTableStyle
  3
Standard
 70
     0
 71
     0
 40
1.5
 41
1.5
280
     0
281
     0
  7
Standard
140
4.5
170
     2
 62
     0
 63
   257
283
     0
 90
      512
 91
        0
  1

274
    -2
284
     1
 64
     0
275
    -2
285
     1
 65
     0
276
    -2
286
     1
 66
     0
277
    -2
287
     1
 67
     0
278
    -2
288
     1
 68
     0
279
    -2
289
     1
 69
     0
  7
Standard
140
6.0
170
     5
 62
     0
 63
   257
283
     0
 90
      512
 91
        0
  1

274
    -2
284
     1
 64
     0
275
    -2
285
     1
 65
     0
276
    -2
286
     1
 66
     0
277
    -2
287
     1
 67
     0
278
    -2
288
     1
 68
     0
279
    -2
289
     1
 69
     0
  7
Standard
140
4.5
170
     5
 62
     0
 63
   257
283
     0
 90
      512
 91
        0
  1

274
    -2
284
     1
 64
     0
275
    -2
285
     1
 65
     0
276
    -2
286
     1
 66
     0
277
    -2
287
     1
 67
     0
278
    -2
288
     1
 68
     0
279
    -2
289
     1
 69
     0
  0
VISUALSTYLE
  5
2F
102
{ACAD_REACTORS
330
2A
102
}
330
2A
100
AcDbVisualStyle
  2
2dWireframe
 70
     4
177
     2
291
     0
 71
     0
176
     1
 72
     2
176
     1
 73
     0
176
     1
 90
        0
176
     1
 40
-0.6
176
     1
 41
-30.0
176
     1
 62
     5
 63
     7
421
 16777215
176
     1
 74
     1
176
     1
 91
        4
176
     1
 64
     7
176
     1
 65
   257
176
     1
 75
     1
176
     1
175
     1
176
     1
 42
1.0
176
     1
 92
        0
176
     1
 66
   257
176
     1
 43
1.0
176
     1
 76
     1
176
     1
 77
     6
176
     1
 78
     2
176
     1
 67
     7
176
     1
 79
     5
176
     1
170
     0
176
     1
171
     0
176
     1
290
     0
176
     1
 93
        1
176
     1
 44
0.0
176
     1
173
     0
176
     1
  0
VISUALSTYLE
  5
31
102
{ACAD_REACTORS
330
2A
102
}
330
2A
100
AcDbVisualStyle
  2
3D Hidden
 70
     6
177
     2
291
     0
 71
     1
176
     1
 72
     2
176
     1
 73
     2
176
     1
 90
        0
176
     1
 40
-0.6
176
     1
 41
-30.0
176
     1
 62
     5
 63
     7
421
 16777215
176
     1
 74
     2
176
     1
 91
        2
176
     1
 64
     7
176
     1
 65
   257
176
     1
 75
     2
176
     1
175
     1
176
     1
 42
40.0
176
     1
 92
        0
176
     1
 66
   257
176
     1
 43
1.0
176
     1
 76
     1
176
     1
 77
     6
176
     1
 78
     2
176
     1
 67
     7
176
     1
 79
     3
176
     1
170
     0
176
     1
171
     0
176
     1
290
     0
176
     1
 93
        1
176
     1
 44
0.0
176
     1
173
     0
176
     1
  0
VISUALSTYLE
  5
30
102
{ACAD_REACTORS
330
2A
102
}
330
2A
100
AcDbVisualStyle
  2
3dWireframe
 70
     5
177
     2
291
     0
 71
     0
176
     1
 72
     2
176
     1
 73
     0
176
     1
 90
        0
176
     1
 40
-0.6
176
     1
 41
-30.0
176
     1
 62
     5
 63
     7
421
 16777215
176
     1
 74
     1
176
     1
 91
        4
176
     1
 64
     7
176
     1
 65
   257
176
     1
 75
     1
176
     1
175
     1
176
     1
 42
1.0
176
     1
 92
        0
176
     1
 66
   257
176
     1
 43
1.0
176
     1
 76
     1
176
     1
 77
     6
176
     1
 78
     2
176
     1
 67
     7
176
     1
 79
     5
176
     1
170
     0
176
     1
171
     0
176
     1
290
     0
176
     1
 93
        1
176
     1
 44
0.0
176
     1
173
     0
176
     1
  0
VISUALSTYLE
  5
32
102
{ACAD_REACTORS
330
2A
102
}
330
2A
100
AcDbVisualStyle
  2
Basic
 70
     7
177
     2
291
     1
 71
     1
176
     1
 72
     0
176
     1
 73
     1
176
     1
 90
        0
176
     1
 40
-0.6
176
     1
 41
-30.0
176
     1
 62
     5
 63
     7
421
 16777215
176
     1
 74
     0
176
     1
 91
        4
176
     1
 64
     7
176
     1
 65
   257
176
     1
 75
     1
176
     1
175
     1
176
     1
 42
1.0
176
     1
 92
        8
176
     1
 66
     7
176
     1
 43
1.0
176
     1
 76
     1
176
     1
 77
     6
176
     1
 78
     2
176
     1
 67
     7
176
     1
 79
     5
176
     1
170
     0
176
     1
171
     0
176
     1
290
     0
176
     1
 93
        1
176
     1
 44
0.0
176
     1
173
     0
176
     1
  0
VISUALSTYLE
  5
36
102
{ACAD_REACTORS
330
2A
102
}
330
2A
100
AcDbVisualStyle
  2
Brighten
 70
    12
177
     2
291
     1
 71
     2
176
     1
 72
     2
176
     1
 73
     0
176
     1
 90
        0
176
     1
 40
-0.6
176
     1
 41
-30.0
176
     1
 62
     5
 63
     7
421
 16777215
176
     1
 74
     1
176
     1
 91
        4
176
     1
 64
     7
176
     1
 65
   257
176
     1
 75
     1
176
     1
175
     1
176
     1
 42
1.0
176
     1
 92
        8
176
     1
 66
     7
176
     1
 43
1.0
176
     1
 76
     1
176
     1
 77
     6
176
     1
 78
     2
176
     1
 67
     7
176
     1
 79
     5
176
     1
170
     0
176
     1
171
     0
176
     1
290
     0
176
     1
 93
        1
176
     1
 44
50.0
176
     1
173
     0
176
     1
  0
VISUALSTYLE
  5
3A
102
{ACAD_REACTORS
330
2A
102
}
330
2A
100
AcDbVisualStyle
  2
ColorChange
 70
    16
177
     2
291
     1
 71
     2
176
     1
 72
     2
176
     1
 73
     3
176
     1
 90
        0
176
     1
 40
-0.6
176
     1
 41
-30.0
176
     1
 62
     5
 63
     8
421
  8421504
176
     1
 74
     1
176
     1
 91
        4
176
     1
 64
     7
176
     1
 65
   257
176
     1
 75
     1
176
     1
175
     1
176
     1
 42
1.0
176
     1
 92
        8
176
     1
 66
     8
424
  8421504
176
     1
 43
1.0
176
     1
 76
     1
176
     1
 77
     6
176
     1
 78
     2
176
     1
 67
     7
176
     1
 79
     5
176
     1
170
     0
176
     1
171
     0
176
     1
290
     0
176
     1
 93
        1
176
     1
 44
0.0
176
     1
173
     0
176
     1
  0
VISUALSTYLE
  5
34
102
{ACAD_REACTORS
330
2A
102
}
330
2A
100
AcDbVisualStyle
  2
Conceptual
 70
     9
177
     2
291
     0
 71
     3
176
     1
 72
     2
176
     1
 73
     0
176
     1
 90
        0
176
     1
 40
-0.6
176
     1
 41
-30.0
176
     1
 62
     5
 63
     7
421
 16777215
176
     1
 74
     2
176
     1
 91
        2
176
     1
 64
     7
176
     1
 65
   257
176
     1
 75
     1
176
     1
175
     1
176
     1
 42
40.0
176
     1
 92
        8
176
     1
 66
     7
176
     1
 43
1.0
176
     1
 76
     1
176
     1
 77
     6
176
     1
 78
     2
176
     1
 67
     7
176
     1
 79
     3
176
     1
170
     0
176
     1
171
     0
176
     1
290
     0
176
     1
 93
        1
176
     1
 44
0.0
176
     1
173
     0
176
     1
  0
VISUALSTYLE
  5
35
102
{ACAD_REACTORS
330
2A
102
}
330
2A
100
AcDbVisualStyle
  2
Dim
 70
    11
177
     2
291
     1
 71
     2
176
     1
 72
     2
176
     1
 73
     0
176
     1
 90
        0
176
     1
 40
-0.6
176
     1
 41
-30.0
176
     1
 62
     5
 63
     7
421
 16777215
176
     1
 74
     1
176
     1
 91
        4
176
     1
 64
     7
176
     1
 65
   257
176
     1
 75
     1
176
     1
175
     1
176
     1
 42
1.0
176
     1
 92
        8
176
     1
 66
     7
176
     1
 43
1.0
176
     1
 76
     1
176
     1
 77
     6
176
     1
 78
     2
176
     1
 67
     7
176
     1
 79
     5
176
     1
170
     0
176
     1
171
     0
176
     1
290
     0
176
     1
 93
        1
176
     1
 44
-50.0
176
     1
173
     0
176
     1
  0
VISUALSTYLE
  5
196E
102
{ACAD_REACTORS
330
2A
102
}
330
2A
100
AcDbVisualStyle
  2
EdgeColorOff
 70
    22
177
     2
291
     1
 71
     2
176
     0
 72
     2
176
     0
 73
     0
176
     0
 90
        0
176
     0
 40
-0.6
176
     0
 41
-30.0
176
     0
 62
     5
 63
     7
421
 16777215
176
     0
 74
     1
176
     0
 91
        4
176
     0
 64
     7
176
     0
 65
   257
176
     0
 75
     1
176
     0
175
     1
176
     0
 42
1.0
176
     0
 92
        8
176
     2
 66
     7
176
     0
 43
1.0
176
     0
 76
     1
176
     0
 77
     6
176
     0
 78
     2
176
     0
 67
     7
176
     0
 79
     5
176
     0
170
     0
176
     0
171
     0
176
     0
290
     0
176
     0
 93
        1
176
     0
 44
0.0
176
     0
173
     0
176
     0
  0
VISUALSTYLE
  5
39
102
{ACAD_REACTORS
330
2A
102
}
330
2A
100
AcDbVisualStyle
  2
Facepattern
 70
    15
177
     2
291
     1
 71
     2
176
     1
 72
     2
176
     1
 73
     0
176
     1
 90
        0
176
     1
 40
-0.6
176
     1
 41
-30.0
176
     1
 62
     5
 63
     7
421
 16777215
176
     1
 74
     1
176
     1
 91
        4
176
     1
 64
     7
176
     1
 65
   257
176
     1
 75
     1
176
     1
175
     1
176
     1
 42
1.0
176
     1
 92
        8
176
     1
 66
     7
176
     1
 43
1.0
176
     1
 76
     1
176
     1
 77
     6
176
     1
 78
     2
176
     1
 67
     7
176
     1
 79
     5
176
     1
170
     0
176
     1
171
     0
176
     1
290
     0
176
     1
 93
        1
176
     1
 44
0.0
176
     1
173
     0
176
     1
  0
VISUALSTYLE
  5
2B
102
{ACAD_REACTORS
330
2A
102
}
330
2A
100
AcDbVisualStyle
  2
Flat
 70
     0
177
     2
291
     1
 71
     2
176
     1
 72
     1
176
     1
 73
     1
176
     1
 90
        2
176
     1
 40
-0.6
176
     1
 41
30.0
176
     1
 62
     5
 63
     7
421
 16777215
176
     1
 74
     0
176
     1
 91
        4
176
     1
 64
     7
176
     1
 65
   257
176
     1
 75
     1
176
     1
175
     1
176
     1
 42
1.0
176
     1
 92
        8
176
     1
 66
     7
176
     1
 43
1.0
176
     1
 76
     1
176
     1
 77
     6
176
     1
 78
     2
176
     1
 67
     7
176
     1
 79
     5
176
     1
170
     0
176
     1
171
     0
176
     1
290
     0
176
     1
 93
       13
176
     1
 44
0.0
176
     1
173
     0
176
     1
  0
VISUALSTYLE
  5
2C
102
{ACAD_REACTORS
330
2A
102
}
330
2A
100
AcDbVisualStyle
  2
FlatWithEdges
 70
     1
177
     2
291
     1
 71
     2
176
     1
 72
     1
176
     1
 73
     1
176
     1
 90
        2
176
     1
 40
-0.6
176
     1
 41
30.0
176
     1
 62
     5
 63
     7
421
 16777215
176
     1
 74
     1
176
     1
 91
        4
176
     1
 64
     7
176
     1
 65
   257
176
     1
 75
     1
176
     1
175
     1
176
     1
 42
1.0
176
     1
 92
        0
176
     1
 66
   257
176
     1
 43
1.0
176
     1
 76
     1
176
     1
 77
     6
176
     1
 78
     2
176
     1
 67
     7
176
     1
 79
     5
176
     1
170
     0
176
     1
171
     0
176
     1
290
     0
176
     1
 93
       13
176
     1
 44
0.0
176
     1
173
     0
176
     1
  0
VISUALSTYLE
  5
2D
102
{ACAD_REACTORS
330
2A
102
}
330
2A
100
AcDbVisualStyle
  2
Gouraud
 70
     2
177
     2
291
     1
 71
     2
176
     1
 72
     2
176
     1
 73
     1
176
     1
 90
        2
176
     1
 40
-0.6
176
     1
 41
30.0
176
     1
 62
     5
 63
     7
421
 16777215
176
     1
 74
     0
176
     1
 91
        4
176
     1
 64
     7
176
     1
 65
   257
176
     1
 75
     1
176
     1
175
     1
176
     1
 42
1.0
176
     1
 92
        0
176
     1
 66
     7
176
     1
 43
1.0
176
     1
 76
     1
176
     1
 77
     6
176
     1
 78
     2
176
     1
 67
     7
176
     1
 79
     5
176
     1
170
     0
176
     1
171
     0
176
     1
290
     0
176
     1
 93
       13
176
     1
 44
0.0
176
     1
173
     0
176
     1
  0
VISUALSTYLE
  5
2E
102
{ACAD_REACTORS
330
2A
102
}
330
2A
100
AcDbVisualStyle
  2
GouraudWithEdges
 70
     3
177
     2
291
     1
 71
     2
176
     1
 72
     2
176
     1
 73
     1
176
     1
 90
        2
176
     1
 40
-0.6
176
     1
 41
30.0
176
     1
 62
     5
 63
     7
421
 16777215
176
     1
 74
     1
176
     1
 91
        4
176
     1
 64
     7
176
     1
 65
   257
176
     1
 75
     1
176
     1
175
     1
176
     1
 42
1.0
176
     1
 92
        0
176
     1
 66
   257
176
     1
 43
1.0
176
     1
 76
     1
176
     1
 77
     6
176
     1
 78
     2
176
     1
 67
     7
176
     1
 79
     5
176
     1
170
     0
176
     1
171
     0
176
     1
290
     0
176
     1
 93
       13
176
     1
 44
0.0
176
     1
173
     0
176
     1
  0
VISUALSTYLE
  5
1966
102
{ACAD_REACTORS
330
2A
102
}
330
2A
100
AcDbVisualStyle
  2
Hidden
 70
     6
177
     2
291
     0
 71
     1
176
     1
 72
     2
176
     1
 73
     2
176
     1
 90
        0
176
     1
 40
-0.6
176
     1
 41
-30.0
176
     1
 62
     5
 63
     7
421
 16777215
176
     1
 74
     2
176
     1
 91
        2
176
     1
 64
     7
176
     1
 65
   257
176
     1
 75
     2
176
     1
175
     1
176
     1
 42
40.0
176
     1
 92
        0
176
     1
 66
   257
176
     1
 43
1.0
176
     1
 76
     1
176
     1
 77
     6
176
     1
 78
     2
176
     1
 67
     7
176
     1
 79
     3
176
     1
170
     0
176
     1
171
     0
176
     1
290
     0
176
     1
 93
        1
176
     1
 44
0.0
176
     1
173
     0
176
     1
  0
VISUALSTYLE
  5
196C
102
{ACAD_REACTORS
330
2A
102
}
330
2A
100
AcDbVisualStyle
  2
JitterOff
 70
    20
177
     2
291
     1
 71
     2
176
     0
 72
     2
176
     0
 73
     0
176
     0
 90
        0
176
     0
 40
-0.6
176
     0
 41
-30.0
176
     0
 62
     5
 63
     7
421
 16777215
176
     0
 74
     1
176
     0
 91
        4
176
     0
 64
     7
176
     0
 65
   257
176
     0
 75
     1
176
     0
175
     1
176
     0
 42
1.0
176
     0
 92
       10
176
     2
 66
     7
176
     0
 43
1.0
176
     0
 76
     1
176
     0
 77
     6
176
     0
 78
     2
176
     0
 67
     7
176
     0
 79
     5
176
     0
170
     0
176
     0
171
     0
176
     0
290
     0
176
     0
 93
        1
176
     0
 44
0.0
176
     0
173
     0
176
     0
  0
VISUALSTYLE
  5
38
102
{ACAD_REACTORS
330
2A
102
}
330
2A
100
AcDbVisualStyle
  2
Linepattern
 70
    14
177
     2
291
     1
 71
     2
176
     1
 72
     2
176
     1
 73
     0
176
     1
 90
        0
176
     1
 40
-0.6
176
     1
 41
-30.0
176
     1
 62
     5
 63
     7
421
 16777215
176
     1
 74
     1
176
     1
 91
        4
176
     1
 64
     7
176
     1
 65
   257
176
     1
 75
     7
176
     1
175
     7
176
     1
 42
1.0
176
     1
 92
        8
176
     1
 66
     7
176
     1
 43
1.0
176
     1
 76
     1
176
     1
 77
     6
176
     1
 78
     2
176
     1
 67
     7
176
     1
 79
     5
176
     1
170
     0
176
     1
171
     0
176
     1
290
     0
176
     1
 93
        1
176
     1
 44
0.0
176
     1
173
     0
176
     1
  0
VISUALSTYLE
  5
196D
102
{ACAD_REACTORS
330
2A
102
}
330
2A
100
AcDbVisualStyle
  2
OverhangOff
 70
    21
177
     2
291
     1
 71
     2
176
     0
 72
     2
176
     0
 73
     0
176
     0
 90
        0
176
     0
 40
-0.6
176
     0
 41
-30.0
176
     0
 62
     5
 63
     7
421
 16777215
176
     0
 74
     1
176
     0
 91
        4
176
     0
 64
     7
176
     0
 65
   257
176
     0
 75
     1
176
     0
175
     1
176
     0
 42
1.0
176
     0
 92
        9
176
     2
 66
     7
176
     0
 43
1.0
176
     0
 76
     1
176
     0
 77
     6
176
     0
 78
     2
176
     0
 67
     7
176
     0
 79
     5
176
     0
170
     0
176
     0
171
     0
176
     0
290
     0
176
     0
 93
        1
176
     0
 44
0.0
176
     0
173
     0
176
     0
  0
VISUALSTYLE
  5
33
102
{ACAD_REACTORS
330
2A
102
}
330
2A
100
AcDbVisualStyle
  2
Realistic
 70
     8
177
     2
291
     0
 71
     2
176
     1
 72
     2
176
     1
 73
     0
176
     1
 90
        0
176
     1
 40
-0.6
176
     1
 41
-30.0
176
     1
 62
     5
 63
     7
421
 16777215
176
     1
 74
     1
176
     1
 91
        0
176
     1
 64
     7
176
     1
 65
   257
176
     1
 75
     1
176
     1
175
     1
176
     1
 42
1.0
176
     1
 92
        8
176
     1
 66
     8
424
  7895160
176
     1
 43
1.0
176
     1
 76
     1
176
     1
 77
     6
176
     1
 78
     2
176
     1
 67
     7
176
     1
 79
     5
176
     1
170
     0
176
     1
171
     0
176
     1
290
     0
176
     1
 93
       13
176
     1
 44
0.0
176
     1
173
     0
176
     1
  0
VISUALSTYLE
  5
196B
102
{ACAD_REACTORS
330
2A
102
}
330
2A
100
AcDbVisualStyle
  2
Shaded
 70
    27
177
     2
291
     0
 71
     2
176
     1
 72
     2
176
     1
 73
     1
176
     1
 90
        2
176
     1
 40
-0.6
176
     1
 41
30.0
176
     1
 62
     5
 63
     7
421
 16777215
176
     1
 74
     0
176
     1
 91
        4
176
     1
 64
     7
176
     1
 65
   257
176
     1
 75
     1
176
     1
175
     1
176
     1
 42
1.0
176
     1
 92
        8
176
     1
 66
   257
176
     1
 43
1.0
176
     1
 76
     1
176
     1
 77
     6
176
     1
 78
     2
176
     1
 67
     8
425
  7895160
176
     1
 79
     3
176
     1
170
     0
176
     1
171
     0
176
     1
290
     0
176
     1
 93
        5
176
     1
 44
0.0
176
     1
173
     0
176
     1
  0
VISUALSTYLE
  5
196A
102
{ACAD_REACTORS
330
2A
102
}
330
2A
100
AcDbVisualStyle
  2
Shaded with edges
 70
    26
177
     2
291
     0
 71
     2
176
     1
 72
     2
176
     1
 73
     1
176
     1
 90
        2
176
     1
 40
-0.6
176
     1
 41
30.0
176
     1
 62
     5
 63
     7
421
 16777215
176
     1
 74
     1
176
     1
 91
       10
176
     1
 64
     7
176
     1
 65
   257
176
     1
 75
     2
176
     1
175
     1
176
     1
 42
1.0
176
     1
 92
        8
176
     1
 66
   257
176
     1
 43
1.0
176
     1
 76
     1
176
     1
 77
     6
176
     1
 78
     2
176
     1
 67
     7
176
     1
 79
     3
176
     1
170
     0
176
     1
171
     0
176
     1
290
     0
176
     1
 93
        5
176
     1
 44
0.0
176
     1
173
     0
176
     1
  0
VISUALSTYLE
  5
1967
102
{ACAD_REACTORS
330
2A
102
}
330
2A
100
AcDbVisualStyle
  2
Shades of Gray
 70
    23
177
     2
291
     0
 71
     2
176
     1
 72
     2
176
     1
 73
     3
176
     1
 90
        0
176
     1
 40
-0.6
176
     1
 41
-30.0
176
     1
 62
     5
 63
     7
421
 16777215
176
     1
 74
     2
176
     1
 91
        2
176
     1
 64
     7
176
     1
 65
     7
176
     1
 75
     1
176
     1
175
     1
176
     1
 42
40.0
176
     1
 92
        8
176
     1
 66
     7
176
     1
 43
1.0
176
     1
 76
     1
176
     1
 77
     6
176
     1
 78
     2
176
     1
 67
     7
176
     1
 79
     3
176
     1
170
     0
176
     1
171
     0
176
     1
290
     0
176
     1
 93
        1
176
     1
 44
0.0
176
     1
173
     0
176
     1
  0
VISUALSTYLE
  5
1968
102
{ACAD_REACTORS
330
2A
102
}
330
2A
100
AcDbVisualStyle
  2
Sketchy
 70
    24
177
     2
291
     0
 71
     1
176
     1
 72
     2
176
     1
 73
     2
176
     1
 90
        0
176
     1
 40
-0.6
176
     1
 41
-30.0
176
     1
 62
     5
 63
     7
421
 16777215
176
     1
 74
     2
176
     1
 91
        2
176
     1
 64
     7
176
     1
 65
     7
176
     1
 75
     1
176
     1
175
     1
176
     1
 42
40.0
176
     1
 92
       11
176
     1
 66
     7
176
     1
 43
1.0
176
     1
 76
     1
176
     1
 77
     6
176
     1
 78
     2
176
     1
 67
     7
176
     1
 79
     6
176
     1
170
     0
176
     1
171
     0
176
     1
290
     0
176
     1
 93
        1
176
     1
 44
0.0
176
     1
173
     0
176
     1
  0
VISUALSTYLE
  5
37
102
{ACAD_REACTORS
330
2A
102
}
330
2A
100
AcDbVisualStyle
  2
Thicken
 70
    13
177
     2
291
     1
 71
     2
176
     1
 72
     2
176
     1
 73
     0
176
     1
 90
        0
176
     1
 40
-0.6
176
     1
 41
-30.0
176
     1
 62
     5
 63
     7
421
 16777215
176
     1
 74
     1
176
     1
 91
        4
176
     1
 64
     7
176
     1
 65
   257
176
     1
 75
     1
176
     1
175
     1
176
     1
 42
1.0
176
     1
 92
       12
176
     1
 66
     7
176
     1
 43
1.0
176
     1
 76
     1
176
     1
 77
     6
176
     1
 78
     2
176
     1
 67
     7
176
     1
 79
     5
176
     1
170
     0
176
     1
171
     0
176
     1
290
     0
176
     1
 93
        1
176
     1
 44
0.0
176
     1
173
     0
176
     1
  0
VISUALSTYLE
  5
1965
102
{ACAD_REACTORS
330
2A
102
}
330
2A
100
AcDbVisualStyle
  2
Wireframe
 70
     5
177
     2
291
     0
 71
     0
176
     1
 72
     2
176
     1
 73
     0
176
     1
 90
        0
176
     1
 40
-0.6
176
     1
 41
-30.0
176
     1
 62
     5
 63
     7
421
 16777215
176
     1
 74
     1
176
     1
 91
        4
176
     1
 64
     7
176
     1
 65
   257
176
     1
 75
     1
176
     1
175
     1
176
     1
 42
1.0
176
     1
 92
        0
176
     1
 66
   257
176
     1
 43
1.0
176
     1
 76
     1
176
     1
 77
     6
176
     1
 78
     2
176
     1
 67
     7
176
     1
 79
     3
176
     1
170
     0
176
     1
171
     0
176
     1
290
     0
176
     1
 93
        1
176
     1
 44
0.0
176
     1
173
     0
176
     1
  0
VISUALSTYLE
  5
1969
102
{ACAD_REACTORS
330
2A
102
}
330
2A
100
AcDbVisualStyle
  2
X-Ray
 70
    25
177
     2
291
     0
 71
     2
176
     1
 72
     2
176
     1
 73
     1
176
     1
 90
        1
176
     1
 40
0.5
176
     1
 41
-30.0
176
     1
 62
     5
 63
     7
421
 16777215
176
     1
 74
     1
176
     1
 91
        0
176
     1
 64
     7
176
     1
 65
   257
176
     1
 75
     1
176
     1
175
     1
176
     1
 42
1.0
176
     1
 92
        8
176
     1
 66
     7
176
     1
 43
1.0
176
     1
 76
     1
176
     1
 77
     6
176
     1
 78
     2
176
     1
 67
     7
176
     1
 79
     3
176
     1
170
     0
176
     1
171
     0
176
     1
290
     0
176
     1
 93
       13
176
     1
 44
0.0
176
     1
173
     0
176
     1
  0
DICTIONARYVAR
  5
193B
102
{ACAD_REACTORS
330
193A
102
}
330
193A
100
DictionaryVariables
280
     0
  1
1:1
  0
DICTIONARYVAR
  5
19AB
102
{ACAD_REACTORS
330
193A
102
}
330
193A
100
DictionaryVariables
280
     0
  1
Standard
  0
DICTIONARYVAR
  5
19AA
102
{ACAD_REACTORS
330
193A
102
}
330
193A
100
DictionaryVariables
280
     0
  1
Standard
  0
DICTIONARYVAR
  5
19AC
102
{ACAD_REACTORS
330
193A
102
}
330
193A
100
DictionaryVariables
280
     0
  1
Metric50
  0
DICTIONARYVAR
  5
19AD
102
{ACAD_REACTORS
330
193A
102
}
330
193A
100
DictionaryVariables
280
     0
  1
Metric50
  0
DICTIONARYVAR
  5
19B0
102
{ACAD_REACTORS
330
193A
102
}
330
193A
100
DictionaryVariables
280
     0
  1
1
  0
DICTIONARYVAR
  5
19B1
102
{ACAD_REACTORS
330
193A
102
}
330
193A
100
DictionaryVariables
280
     0
  1
15
  0
DICTIONARYVAR
  5
19AF
102
{ACAD_REACTORS
330
193A
102
}
330
193A
100
DictionaryVariables
280
     0
  1
0
  0
DICTIONARYVAR
  5
19AE
102
{ACAD_REACTORS
330
193A
102
}
330
193A
100
DictionaryVariables
280
     0
  1
0
  0
DICTIONARYVAR
  5
1A67
102
{ACAD_REACTORS
330
193A
102
}
330
193A
100
DictionaryVariables
280
     0
  1
0
  0
DICTIONARY
  5
1A43
330
1975
100
AcDbDictionary
280
     1
281
     1
  3
ACAD_XREC_ROUNDTRIP
360
1B66
  0
DICTIONARY
  5
1A41
330
1973
100
AcDbDictionary
280
     1
281
     1
  3
ACAD_XREC_ROUNDTRIP
360
1B67
  0
DICTIONARY
  5
1B68
330
1970
100
AcDbDictionary
280
     1
281
     1
  3
ACAD_ROUNDTRIP_2008_TABLESTYLE_CELLSTYLEMAP
360
1B69
  0
XRECORD
  5
1B66
102
{ACAD_REACTORS
330
1A43
102
}
330
1A43
100
AcDbXrecord
280
     1
102
DISPLAYNAME
  1
Metric50
102
FLAGS
 90
        0
  0
XRECORD
  5
1B67
102
{ACAD_REACTORS
330
1A41
102
}
330
1A41
100
AcDbXrecord
280
     1
102
DISPLAYNAME
  1
Metric50
102
FLAGS
 90
        0
  0
CELLSTYLEMAP
  5
1B69
102
{ACAD_REACTORS
330
1B68
102
}
330
1B68
100
AcDbCellStyleMap
 90
        3
300
CELLSTYLE
  1
TABLEFORMAT_BEGIN
 90
        5
170
     1
 91
        0
 92
    32768
 62
   257
 93
        1
300
CONTENTFORMAT
  1
CONTENTFORMAT_BEGIN
 90
        0
 91
        0
 92
      512
 93
        0
300

 40
0.0
140
1.0
 94
        5
 62
     0
340
11
144
6.0
309
CONTENTFORMAT_END
171
     1
301
MARGIN
  1
CELLMARGIN_BEGIN
 40
1.5
 40
1.5
 40
1.5
 40
1.5
 40
4.5
 40
4.5
309
CELLMARGIN_END
 94
        6
 95
        1
302
GRIDFORMAT
  1
GRIDFORMAT_BEGIN
 90
        0
 91
        1
 62
     0
 92
       -2
340
0
 93
        0
 40
1.125
309
GRIDFORMAT_END
 95
        2
302
GRIDFORMAT
  1
GRIDFORMAT_BEGIN
 90
        0
 91
        1
 62
     0
 92
       -2
340
0
 93
        0
 40
1.125
309
GRIDFORMAT_END
 95
        4
302
GRIDFORMAT
  1
GRIDFORMAT_BEGIN
 90
        0
 91
        1
 62
     0
 92
       -2
340
0
 93
        0
 40
1.125
309
GRIDFORMAT_END
 95
        8
302
GRIDFORMAT
  1
GRIDFORMAT_BEGIN
 90
        0
 91
        1
 62
     0
 92
       -2
340
0
 93
        0
 40
1.125
309
GRIDFORMAT_END
 95
       16
302
GRIDFORMAT
  1
GRIDFORMAT_BEGIN
 90
        0
 91
        1
 62
     0
 92
       -2
340
0
 93
        0
 40
1.125
309
GRIDFORMAT_END
 95
       32
302
GRIDFORMAT
  1
GRIDFORMAT_BEGIN
 90
        0
 91
        1
 62
     0
 92
       -2
340
0
 93
        0
 40
1.125
309
GRIDFORMAT_END
309
TABLEFORMAT_END
  1
CELLSTYLE_BEGIN
 90
        1
 91
        1
300
_TITLE
309
CELLSTYLE_END
300
CELLSTYLE
  1
TABLEFORMAT_BEGIN
 90
        5
170
     1
 91
        0
 92
        0
 62
   257
 93
        1
300
CONTENTFORMAT
  1
CONTENTFORMAT_BEGIN
 90
        0
 91
        0
 92
      512
 93
        0
300

 40
0.0
140
1.0
 94
        5
 62
     0
340
11
144
4.5
309
CONTENTFORMAT_END
171
     1
301
MARGIN
  1
CELLMARGIN_BEGIN
 40
1.5
 40
1.5
 40
1.5
 40
1.5
 40
4.5
 40
4.5
309
CELLMARGIN_END
 94
        6
 95
        1
302
GRIDFORMAT
  1
GRIDFORMAT_BEGIN
 90
        0
 91
        1
 62
     0
 92
       -2
340
0
 93
        0
 40
1.125
309
GRIDFORMAT_END
 95
        2
302
GRIDFORMAT
  1
GRIDFORMAT_BEGIN
 90
        0
 91
        1
 62
     0
 92
       -2
340
0
 93
        0
 40
1.125
309
GRIDFORMAT_END
 95
        4
302
GRIDFORMAT
  1
GRIDFORMAT_BEGIN
 90
        0
 91
        1
 62
     0
 92
       -2
340
0
 93
        0
 40
1.125
309
GRIDFORMAT_END
 95
        8
302
GRIDFORMAT
  1
GRIDFORMAT_BEGIN
 90
        0
 91
        1
 62
     0
 92
       -2
340
0
 93
        0
 40
1.125
309
GRIDFORMAT_END
 95
       16
302
GRIDFORMAT
  1
GRIDFORMAT_BEGIN
 90
        0
 91
        1
 62
     0
 92
       -2
340
0
 93
        0
 40
1.125
309
GRIDFORMAT_END
 95
       32
302
GRIDFORMAT
  1
GRIDFORMAT_BEGIN
 90
        0
 91
        1
 62
     0
 92
       -2
340
0
 93
        0
 40
1.125
309
GRIDFORMAT_END
309
TABLEFORMAT_END
  1
CELLSTYLE_BEGIN
 90
        2
 91
        1
300
_HEADER
309
CELLSTYLE_END
300
CELLSTYLE
  1
TABLEFORMAT_BEGIN
 90
        5
170
     1
 91
        0
 92
        0
 62
   257
 93
        1
300
CONTENTFORMAT
  1
CONTENTFORMAT_BEGIN
 90
        0
 91
        0
 92
      512
 93
        0
300

 40
0.0
140
1.0
 94
        2
 62
     0
340
11
144
4.5
309
CONTENTFORMAT_END
171
     1
301
MARGIN
  1
CELLMARGIN_BEGIN
 40
1.5
 40
1.5
 40
1.5
 40
1.5
 40
4.5
 40
4.5
309
CELLMARGIN_END
 94
        6
 95
        1
302
GRIDFORMAT
  1
GRIDFORMAT_BEGIN
 90
        0
 91
        1
 62
     0
 92
       -2
340
0
 93
        0
 40
1.125
309
GRIDFORMAT_END
 95
        2
302
GRIDFORMAT
  1
GRIDFORMAT_BEGIN
 90
        0
 91
        1
 62
     0
 92
       -2
340
0
 93
        0
 40
1.125
309
GRIDFORMAT_END
 95
        4
302
GRIDFORMAT
  1
GRIDFORMAT_BEGIN
 90
        0
 91
        1
 62
     0
 92
       -2
340
0
 93
        0
 40
1.125
309
GRIDFORMAT_END
 95
        8
302
GRIDFORMAT
  1
GRIDFORMAT_BEGIN
 90
        0
 91
        1
 62
     0
 92
       -2
340
0
 93
        0
 40
1.125
309
GRIDFORMAT_END
 95
       16
302
GRIDFORMAT
  1
GRIDFORMAT_BEGIN
 90
        0
 91
        1
 62
     0
 92
       -2
340
0
 93
        0
 40
1.125
309
GRIDFORMAT_END
 95
       32
302
GRIDFORMAT
  1
GRIDFORMAT_BEGIN
 90
        0
 91
        1
 62
     0
 92
       -2
340
0
 93
        0
 40
1.125
309
GRIDFORMAT_END
309
TABLEFORMAT_END
  1
CELLSTYLE_BEGIN
 90
        3
 91
        2
300
_DATA
309
CELLSTYLE_END
  0
ENDSEC
  0
EOF
